SplineFontDB: 3.2
FontName: hindi15m
FullName: hindi15m
FamilyName: hindi15m
Weight: Regular
Copyright: Copyright 2022 The Noto Project Authors (https://github.com/notofonts/devanagari)
Version: 2.006
ItalicAngle: 0
UnderlinePosition: -128
UnderlineWidth: 51
Ascent: 819
Descent: 205
InvalidEm: 0
sfntRevision: 0x00020189
LayerCount: 2
Layer: 0 1 "Back" 1
Layer: 1 1 "Fore" 0
XUID: [1021 242 -508030597 9470343]
StyleMap: 0x0040
FSType: 0
OS2Version: 4
OS2_WeightWidthSlopeOnly: 0
OS2_UseTypoMetrics: 1
CreationTime: 1432194851
ModificationTime: 1742566604
PfmFamily: 81
TTFWeight: 400
TTFWidth: 5
LineGap: 0
VLineGap: 0
Panose: 0 0 0 0 0 0 0 0 0 0
OS2TypoAscent: 918
OS2TypoAOffset: 0
OS2TypoDescent: -418
OS2TypoDOffset: 0
OS2TypoLinegap: 0
OS2WinAscent: 1380
OS2WinAOffset: 0
OS2WinDescent: 571
OS2WinDOffset: 0
HheadAscent: 918
HheadAOffset: 0
HheadDescent: -418
HheadDOffset: 0
OS2SubXSize: 666
OS2SubYSize: 614
OS2SubXOff: 0
OS2SubYOff: 77
OS2SupXSize: 666
OS2SupYSize: 614
OS2SupXOff: 0
OS2SupYOff: 358
OS2StrikeYSize: 51
OS2StrikeYPos: 330
OS2CapHeight: 637
OS2XHeight: 549
OS2Vendor: 'GOOG'
OS2CodePages: 00000013.00000000
OS2UnicodeRanges: 80008023.00002046.00000000.00000000
MarkAttachClasses: 1
MarkAttachSets: 10
"MarkSet-0" 68 uni0902 uni0901 uni0930094D uni0930094D0902 uni0930094D0901 NullMark
"MarkSet-1" 143 visargaUdattavedic reversedVisargaUdattavedic visargaAnudattavedic reversedVisargaAnudattavedic visargaUdattaTailvedic visargaAnudattaTailvedic
"MarkSet-2" 101 uni20F0 acutecomb uni0306 uni030C uni0302 uni0308 uni0307 gravecomb uni030B uni0304 uni030A tildecomb
"MarkSet-3" 49 uni0306 uni030C uni0302 uni0308 uni0304 tildecomb
"MarkSet-4" 83 uni0945 uni0955 uni0901 invertedCandrabindudeva uni0902.alt uni09450902 uni09450901
"MarkSet-5" 27 uni0941 uni094D uni093C094D

StartChar: exclam
Encoding: 33 33 2
Width: 600
VWidth: 1000
GlyphClass: 1
Flags: W
LayerCount: 2
Fore
SplineSet
293.5 122.599609375 m 4,0,1
 272.700195312 122.599609375 272.700195312 122.599609375 261 135.799804688 c 132,-1,2
 249.299804688 149 249.299804688 149 243.450195312 181.400390625 c 132,-1,3
 237.599609375 213.799804688 237.599609375 213.799804688 236.299804688 268.400390625 c 132,-1,4
 235 323 235 323 235 405.799804688 c 4,5,6
 235 522.200195312 235 522.200195312 236.299804688 587 c 132,-1,7
 237.599609375 651.799804688 237.599609375 651.799804688 245.400390625 683 c 132,-1,8
 253.200195312 714.200195312 253.200195312 714.200195312 269.450195312 720.799804688 c 132,-1,9
 285.700195312 727.400390625 285.700195312 727.400390625 315.599609375 727.400390625 c 4,10,11
 331.200195312 727.400390625 331.200195312 727.400390625 340.299804688 719 c 132,-1,12
 349.400390625 710.599609375 349.400390625 710.599609375 355.25 683 c 132,-1,13
 361.099609375 655.400390625 361.099609375 655.400390625 363.049804688 601.400390625 c 132,-1,14
 365 547.400390625 365 547.400390625 365 455 c 4,15,16
 365 287 365 287 352 204.799804688 c 132,-1,17
 339 122.599609375 339 122.599609375 293.5 122.599609375 c 4,0,1
276.599609375 699.799804688 m 4,18,19
 271.400390625 699.799804688 271.400390625 699.799804688 263.599609375 685.400390625 c 132,-1,20
 255.799804688 671 255.799804688 671 255.799804688 641 c 4,21,22
 255.799804688 625.400390625 255.799804688 625.400390625 257.75 610.400390625 c 132,-1,23
 259.700195312 595.400390625 259.700195312 595.400390625 268.799804688 595.400390625 c 4,24,25
 276.599609375 595.400390625 276.599609375 595.400390625 279.200195312 600.200195312 c 132,-1,26
 281.799804688 605 281.799804688 605 281.799804688 611.599609375 c 132,-1,27
 281.799804688 618.200195312 281.799804688 618.200195312 281.150390625 626.599609375 c 132,-1,28
 280.5 635 280.5 635 280.5 642.200195312 c 4,29,30
 281.799804688 662.599609375 281.799804688 662.599609375 284.400390625 681.200195312 c 132,-1,31
 287 699.799804688 287 699.799804688 276.599609375 699.799804688 c 4,18,19
294.799804688 -21.400390625 m 4,32,33
 270.099609375 -21.400390625 270.099609375 -21.400390625 255.150390625 -6.400390625 c 132,-1,34
 240.200195312 8.599609375 240.200195312 8.599609375 240.200195312 33.7998046875 c 4,35,36
 240.200195312 56.599609375 240.200195312 56.599609375 253.200195312 76.400390625 c 132,-1,37
 266.200195312 96.2001953125 266.200195312 96.2001953125 294.799804688 96.2001953125 c 4,38,39
 324.700195312 96.2001953125 324.700195312 96.2001953125 340.299804688 77.599609375 c 132,-1,40
 355.900390625 59 355.900390625 59 355.900390625 33.7998046875 c 4,41,42
 355.900390625 6.2001953125 355.900390625 6.2001953125 338.349609375 -7.599609375 c 132,-1,43
 320.799804688 -21.400390625 320.799804688 -21.400390625 294.799804688 -21.400390625 c 4,32,33
271.400390625 41 m 4,44,45
 272.700195312 54.2001953125 272.700195312 54.2001953125 277.900390625 65 c 132,-1,46
 283.099609375 75.7998046875 283.099609375 75.7998046875 276.599609375 75.7998046875 c 4,47,48
 267.5 75.7998046875 267.5 75.7998046875 261.650390625 58.400390625 c 132,-1,49
 255.799804688 41 255.799804688 41 255.799804688 27.7998046875 c 4,50,51
 255.799804688 15.7998046875 255.799804688 15.7998046875 262.299804688 15.7998046875 c 4,52,53
 267.5 15.7998046875 267.5 15.7998046875 268.799804688 24.7998046875 c 132,-1,54
 270.099609375 33.7998046875 270.099609375 33.7998046875 271.400390625 41 c 4,44,45
EndSplineSet
EndChar

StartChar: quotedbl
Encoding: 34 34 3
Width: 600
VWidth: 1000
GlyphClass: 1
Flags: W
LayerCount: 2
Fore
SplineSet
256 714 m 1,0,-1
 236 456 l 1,1,-1
 181 456 l 1,2,-1
 161 714 l 1,3,-1
 256 714 l 1,0,-1
439 714 m 1,4,-1
 419 456 l 1,5,-1
 364 456 l 1,6,-1
 344 714 l 1,7,-1
 439 714 l 1,4,-1
EndSplineSet
EndChar

StartChar: numbersign
Encoding: 35 35 4
Width: 600
VWidth: 1000
GlyphClass: 1
Flags: W
LayerCount: 2
Fore
SplineSet
102 0 m 1,0,-1
 140 199 l 1,1,-1
 32 199 l 1,2,-1
 32 266 l 1,3,-1
 153 266 l 1,4,-1
 185 419 l 5,5,-1
 58 419 l 5,6,-1
 58 485 l 5,7,-1
 197 485 l 5,8,-1
 237 687 l 5,9,-1
 309 687 l 5,10,-1
 269 485 l 5,11,-1
 393 485 l 5,12,-1
 433 687 l 5,13,-1
 502 687 l 5,14,-1
 462 485 l 5,15,-1
 568 485 l 5,16,-1
 568 419 l 5,17,-1
 449 419 l 5,18,-1
 418 266 l 1,19,-1
 547 266 l 1,20,-1
 547 199 l 1,21,-1
 405 199 l 1,22,-1
 364 0 l 1,23,-1
 293 0 l 1,24,-1
 334 199 l 1,25,-1
 211 199 l 1,26,-1
 172 0 l 1,27,-1
 102 0 l 1,0,-1
224 266 m 1,28,-1
 347 266 l 1,29,-1
 378 419 l 5,30,-1
 255 419 l 5,31,-1
 224 266 l 1,28,-1
EndSplineSet
EndChar

StartChar: percent
Encoding: 37 37 5
Width: 600
VWidth: 1000
GlyphClass: 1
Flags: W
LayerCount: 2
Fore
SplineSet
83 0 m 1,0,-1
 439 714 l 1,1,-1
 516 714 l 1,2,-1
 160 0 l 1,3,-1
 83 0 l 1,0,-1
456 -9 m 0,4,5
 395 -9 395 -9 354.5 35.5 c 128,-1,6
 314 80 314 80 314 161 c 256,7,8
 314 242 314 242 352.5 286 c 128,-1,9
 391 330 391 330 458 330 c 0,10,11
 519 330 519 330 559.5 286 c 128,-1,12
 600 242 600 242 600 161 c 256,13,14
 600 80 600 80 561 35.5 c 128,-1,15
 522 -9 522 -9 456 -9 c 0,4,5
457 49 m 256,16,17
 491 49 491 49 508 76 c 128,-1,18
 525 103 525 103 525 161 c 0,19,20
 525 220 525 220 508 245.5 c 128,-1,21
 491 271 491 271 457 271 c 256,22,23
 423 271 423 271 405.5 245.5 c 128,-1,24
 388 220 388 220 388 161 c 0,25,26
 388 103 388 103 405.5 76 c 128,-1,27
 423 49 423 49 457 49 c 256,16,17
142 383 m 0,28,29
 81 383 81 383 40.5 427.5 c 128,-1,30
 0 472 0 472 0 553 c 256,31,32
 0 634 0 634 38.5 678 c 128,-1,33
 77 722 77 722 144 722 c 0,34,35
 205 722 205 722 245.5 678 c 128,-1,36
 286 634 286 634 286 553 c 256,37,38
 286 472 286 472 247 427.5 c 128,-1,39
 208 383 208 383 142 383 c 0,28,29
143 441 m 256,40,41
 177 441 177 441 194 468 c 128,-1,42
 211 495 211 495 211 553 c 0,43,44
 211 612 211 612 194 637.5 c 128,-1,45
 177 663 177 663 143 663 c 256,46,47
 109 663 109 663 91.5 637.5 c 128,-1,48
 74 612 74 612 74 553 c 0,49,50
 74 495 74 495 91.5 468 c 128,-1,51
 109 441 109 441 143 441 c 256,40,41
EndSplineSet
EndChar

StartChar: quotesingle
Encoding: 39 39 6
Width: 600
VWidth: 1000
GlyphClass: 1
Flags: W
LayerCount: 2
Fore
SplineSet
347.5 714 m 1,0,-1
 327.5 456 l 1,1,-1
 272.5 456 l 1,2,-1
 252.5 714 l 1,3,-1
 347.5 714 l 1,0,-1
EndSplineSet
EndChar

StartChar: parenleft
Encoding: 40 40 7
Width: 600
VWidth: 1000
GlyphClass: 1
Flags: W
LayerCount: 2
Fore
SplineSet
364.5 -72 m 0,0,1
 310.5 -51 310.5 -51 274 -13 c 128,-1,2
 237.5 25 237.5 25 215 71.5 c 128,-1,3
 192.5 118 192.5 118 182.5 169.5 c 128,-1,4
 172.5 221 172.5 221 172.5 269 c 0,5,6
 172.5 315 172.5 315 181 363 c 128,-1,7
 189.5 411 189.5 411 205 456 c 128,-1,8
 220.5 501 220.5 501 243.5 540.5 c 128,-1,9
 266.5 580 266.5 580 294.5 609 c 0,10,11
 321.5 636 321.5 636 346.5 654 c 128,-1,12
 371.5 672 371.5 672 391.5 672 c 0,13,14
 406.5 672 406.5 672 415.5 660 c 128,-1,15
 424.5 648 424.5 648 424.5 636 c 0,16,17
 424.5 628 424.5 628 412 617 c 128,-1,18
 399.5 606 399.5 606 376.5 582 c 0,19,20
 346.5 550 346.5 550 326.5 512 c 128,-1,21
 306.5 474 306.5 474 294.5 433.5 c 128,-1,22
 282.5 393 282.5 393 278 351.5 c 128,-1,23
 273.5 310 273.5 310 273.5 272 c 256,24,25
 273.5 234 273.5 234 279.5 192.5 c 128,-1,26
 285.5 151 285.5 151 299.5 113 c 128,-1,27
 313.5 75 313.5 75 336.5 43.5 c 128,-1,28
 359.5 12 359.5 12 393.5 -7 c 0,29,30
 410.5 -16 410.5 -16 419 -22.5 c 128,-1,31
 427.5 -29 427.5 -29 427.5 -43 c 0,32,33
 427.5 -56 427.5 -56 414.5 -66 c 128,-1,34
 401.5 -76 401.5 -76 384.5 -76 c 0,35,36
 373.5 -76 373.5 -76 364.5 -72 c 0,0,1
350.5 620 m 0,37,38
 355.5 625 355.5 625 361.5 630.5 c 128,-1,39
 367.5 636 367.5 636 360.5 636 c 0,40,41
 352.5 636 352.5 636 342 628.5 c 128,-1,42
 331.5 621 331.5 621 321.5 611 c 128,-1,43
 311.5 601 311.5 601 305 590.5 c 128,-1,44
 298.5 580 298.5 580 298.5 574 c 0,45,46
 298.5 569 298.5 569 302.5 569 c 0,47,48
 307.5 569 307.5 569 312 575.5 c 128,-1,49
 316.5 582 316.5 582 319.5 587 c 0,50,51
 323.5 594 323.5 594 330.5 601.5 c 128,-1,52
 337.5 609 337.5 609 350.5 620 c 0,37,38
292.5 547 m 0,53,54
 292.5 555 292.5 555 286.5 555 c 0,55,56
 274.5 555 274.5 555 274.5 547 c 0,57,58
 274.5 541 274.5 541 277.5 539.5 c 128,-1,59
 280.5 538 280.5 538 282.5 538 c 256,60,61
 284.5 538 284.5 538 288.5 539.5 c 128,-1,62
 292.5 541 292.5 541 292.5 547 c 0,53,54
EndSplineSet
EndChar

StartChar: parenright
Encoding: 41 41 8
Width: 600
VWidth: 1000
GlyphClass: 1
Flags: W
LayerCount: 2
Fore
SplineSet
229 -93 m 0,0,1
 215 -93 215 -93 202.5 -84.5 c 128,-1,2
 190 -76 190 -76 190 -66 c 0,3,4
 190 -57 190 -57 200 -43 c 128,-1,5
 210 -29 210 -29 224.5 -8.5 c 128,-1,6
 239 12 239 12 256.5 41 c 128,-1,7
 274 70 274 70 288.5 108 c 128,-1,8
 303 146 303 146 313 195 c 128,-1,9
 323 244 323 244 323 305 c 0,10,11
 323 352 323 352 315.5 398.5 c 128,-1,12
 308 445 308 445 294 484 c 128,-1,13
 280 523 280 523 260.5 552 c 128,-1,14
 241 581 241 581 217 594 c 0,15,16
 205 601 205 601 191 610.5 c 128,-1,17
 177 620 177 620 177 638 c 0,18,19
 177 653 177 653 190 662.5 c 128,-1,20
 203 672 203 672 224 672 c 0,21,22
 261 672 261 672 297 646 c 128,-1,23
 333 620 333 620 361 572 c 128,-1,24
 389 524 389 524 406 455.5 c 128,-1,25
 423 387 423 387 423 302 c 0,26,27
 423 227 423 227 414.5 175 c 128,-1,28
 406 123 406 123 390.5 85 c 128,-1,29
 375 47 375 47 354 17 c 128,-1,30
 333 -13 333 -13 308 -44 c 0,31,32
 285 -73 285 -73 265.5 -83 c 128,-1,33
 246 -93 246 -93 229 -93 c 0,0,1
197 621 m 0,34,35
 201 621 201 621 204.5 628.5 c 128,-1,36
 208 636 208 636 208 644 c 0,37,38
 208 657 208 657 201 657 c 0,39,40
 197 657 197 657 193.5 649.5 c 128,-1,41
 190 642 190 642 190 634 c 0,42,43
 190 621 190 621 197 621 c 0,34,35
224 -60 m 256,44,45
 229 -50 229 -50 229.5 -40 c 128,-1,46
 230 -30 230 -30 226 -29 c 0,47,48
 224 -29 224 -29 220.5 -33 c 128,-1,49
 217 -37 217 -37 213.5 -43 c 128,-1,50
 210 -49 210 -49 207.5 -55 c 128,-1,51
 205 -61 205 -61 205 -64 c 0,52,53
 205 -72 205 -72 209 -73 c 0,54,55
 212 -74 212 -74 215.5 -72 c 128,-1,56
 219 -70 219 -70 224 -60 c 256,44,45
EndSplineSet
EndChar

StartChar: asterisk
Encoding: 42 42 9
Width: 600
VWidth: 1000
GlyphClass: 1
Flags: W
LayerCount: 2
Fore
SplineSet
347.5 760 m 1,0,-1
 327.5 568 l 1,1,-1
 519.5 622 l 1,2,-1
 533.5 530 l 1,3,-1
 349.5 515 l 1,4,-1
 468.5 357 l 1,5,-1
 382.5 310 l 1,6,-1
 297.5 485 l 1,7,-1
 220.5 310 l 1,8,-1
 131.5 357 l 1,9,-1
 248.5 515 l 1,10,-1
 66.5 530 l 1,11,-1
 80.5 622 l 1,12,-1
 270.5 568 l 1,13,-1
 249.5 760 l 1,14,-1
 347.5 760 l 1,0,-1
EndSplineSet
EndChar

StartChar: plus
Encoding: 43 43 10
Width: 600
VWidth: 1000
GlyphClass: 1
Flags: W
LayerCount: 2
Fore
SplineSet
339.599609375 391.5 m 5,0,-1
 558.5 391.5 l 5,1,-1
 558.5 313.400390625 l 5,2,-1
 339.599609375 313.400390625 l 5,3,-1
 339.599609375 86.7998046875 l 5,4,-1
 260.400390625 86.7998046875 l 5,5,-1
 260.400390625 313.400390625 l 5,6,-1
 41.5 313.400390625 l 5,7,-1
 41.5 391.5 l 5,8,-1
 260.400390625 391.5 l 5,9,-1
 260.400390625 619.200195312 l 5,10,-1
 339.599609375 619.200195312 l 5,11,-1
 339.599609375 391.5 l 5,0,-1
EndSplineSet
EndChar

StartChar: comma
Encoding: 44 44 11
Width: 600
VWidth: 1000
GlyphClass: 1
Flags: W
LayerCount: 2
Fore
SplineSet
375.5 105 m 1,0,1
 366.5 70 366.5 70 352.5 29 c 128,-1,2
 338.5 -12 338.5 -12 322 -52.5 c 128,-1,3
 305.5 -93 305.5 -93 289.5 -129 c 1,4,-1
 224.5 -129 l 1,5,6
 234.5 -91 234.5 -91 244 -47.5 c 128,-1,7
 253.5 -4 253.5 -4 261.5 38.5 c 128,-1,8
 269.5 81 269.5 81 274.5 116 c 1,9,-1
 368.5 116 l 1,10,-1
 375.5 105 l 1,0,1
EndSplineSet
EndChar

StartChar: hyphen
Encoding: 45 45 12
Width: 600
VWidth: 1000
GlyphClass: 1
Flags: W
LayerCount: 2
Fore
SplineSet
95.5 229 m 1,0,-1
 95.5 307 l 1,1,-1
 504.5 307 l 1,2,-1
 504.5 229 l 1,3,-1
 95.5 229 l 1,0,-1
EndSplineSet
EndChar

StartChar: period
Encoding: 46 46 13
Width: 600
VWidth: 1000
GlyphClass: 1
Flags: W
LayerCount: 2
Fore
SplineSet
291.75 -62.25 m 4,0,1
 231.75 -62.25 231.75 -62.25 189 -20.25 c 132,-1,2
 146.25 21.75 146.25 21.75 146.25 87.75 c 4,3,4
 146.25 123.75 146.25 123.75 159 156 c 132,-1,5
 171.75 188.25 171.75 188.25 194.25 211.5 c 132,-1,6
 216.75 234.75 216.75 234.75 248.25 249 c 132,-1,7
 279.75 263.25 279.75 263.25 317.25 263.25 c 4,8,9
 347.25 263.25 347.25 263.25 372.75 250.5 c 132,-1,10
 398.25 237.75 398.25 237.75 416.25 215.25 c 132,-1,11
 434.25 192.75 434.25 192.75 444 164.25 c 132,-1,12
 453.75 135.75 453.75 135.75 453.75 104.25 c 4,13,14
 453.75 63.75 453.75 63.75 441 33 c 132,-1,15
 428.25 2.25 428.25 2.25 405.75 -18.75 c 132,-1,16
 383.25 -39.75 383.25 -39.75 354 -51 c 132,-1,17
 324.75 -62.25 324.75 -62.25 291.75 -62.25 c 4,0,1
236.25 197.25 m 4,18,19
 246.75 207.75 246.75 207.75 249 215.25 c 132,-1,20
 251.25 222.75 251.25 222.75 248.25 222.75 c 4,21,22
 236.25 222.75 236.25 222.75 222.75 211.5 c 132,-1,23
 209.25 200.25 209.25 200.25 198 184.5 c 132,-1,24
 186.75 168.75 186.75 168.75 179.25 150.75 c 132,-1,25
 171.75 132.75 171.75 132.75 171.75 117.75 c 4,26,27
 171.75 114.75 171.75 114.75 174 105.75 c 132,-1,28
 176.25 96.75 176.25 96.75 180.75 96.75 c 4,29,30
 186.75 96.75 186.75 96.75 195.75 129.75 c 4,31,32
 200.25 150.75 200.25 150.75 212.25 168 c 132,-1,33
 224.25 185.25 224.25 185.25 236.25 197.25 c 4,18,19
297.75 23.25 m 4,34,35
 315.75 23.25 315.75 23.25 340.5 44.25 c 132,-1,36
 365.25 65.25 365.25 65.25 365.25 104.25 c 4,37,38
 365.25 134.25 365.25 134.25 349.5 154.5 c 132,-1,39
 333.75 174.75 333.75 174.75 308.25 174.75 c 260,40,41
 282.75 174.75 282.75 174.75 261.75 154.5 c 132,-1,42
 240.75 134.25 240.75 134.25 240.75 98.25 c 260,43,44
 240.75 62.25 240.75 62.25 257.25 42.75 c 132,-1,45
 273.75 23.25 273.75 23.25 297.75 23.25 c 4,34,35
EndSplineSet
EndChar

StartChar: slash
Encoding: 47 47 14
Width: 600
VWidth: 1000
GlyphClass: 1
Flags: W
LayerCount: 2
Fore
SplineSet
186.5 -77 m 0,0,1
 182.5 -77 182.5 -77 171 -75 c 128,-1,2
 159.5 -73 159.5 -73 147.5 -68.5 c 128,-1,3
 135.5 -64 135.5 -64 126.5 -57 c 128,-1,4
 117.5 -50 117.5 -50 117.5 -41 c 0,5,6
 117.5 -38 117.5 -38 128 -9.5 c 128,-1,7
 138.5 19 138.5 19 155.5 64 c 128,-1,8
 172.5 109 172.5 109 195 166 c 128,-1,9
 217.5 223 217.5 223 241.5 283 c 128,-1,10
 265.5 343 265.5 343 289.5 402 c 128,-1,11
 313.5 461 313.5 461 333.5 509.5 c 128,-1,12
 353.5 558 353.5 558 368.5 592 c 128,-1,13
 383.5 626 383.5 626 389.5 636 c 0,14,15
 396.5 647 396.5 647 408 656.5 c 128,-1,16
 419.5 666 419.5 666 433.5 666 c 0,17,18
 440.5 666 440.5 666 449 663.5 c 128,-1,19
 457.5 661 457.5 661 465 656.5 c 128,-1,20
 472.5 652 472.5 652 477.5 646 c 128,-1,21
 482.5 640 482.5 640 482.5 633 c 0,22,23
 482.5 625 482.5 625 474 599.5 c 128,-1,24
 465.5 574 465.5 574 454 544.5 c 128,-1,25
 442.5 515 442.5 515 431 487.5 c 128,-1,26
 419.5 460 419.5 460 413.5 447 c 0,27,28
 409.5 438 409.5 438 398.5 410.5 c 128,-1,29
 387.5 383 387.5 383 372.5 344.5 c 128,-1,30
 357.5 306 357.5 306 339.5 259.5 c 128,-1,31
 321.5 213 321.5 213 302.5 166.5 c 128,-1,32
 283.5 120 283.5 120 265 76 c 128,-1,33
 246.5 32 246.5 32 231 -2 c 128,-1,34
 215.5 -36 215.5 -36 203.5 -56.5 c 128,-1,35
 191.5 -77 191.5 -77 186.5 -77 c 0,0,1
161.5 -37 m 4,36,37
 165.5 -25 165.5 -25 173.5 -7 c 132,-1,38
 181.5 11 181.5 11 188.5 27.5 c 132,-1,39
 195.5 44 195.5 44 199 56.5 c 132,-1,40
 202.5 69 202.5 69 197.5 70 c 4,41,42
 195.5 71 195.5 71 190.5 71 c 132,-1,43
 185.5 71 185.5 71 182.5 66 c 4,44,45
 180.5 62 180.5 62 174 48.5 c 132,-1,46
 167.5 35 167.5 35 161 19.5 c 132,-1,47
 154.5 4 154.5 4 149.5 -10.5 c 132,-1,48
 144.5 -25 144.5 -25 144.5 -31 c 4,49,50
 144.5 -38 144.5 -38 152 -40 c 132,-1,51
 159.5 -42 159.5 -42 161.5 -37 c 4,36,37
EndSplineSet
EndChar

StartChar: zero
Encoding: 48 48 15
Width: 600
GlyphClass: 1
Flags: W
LayerCount: 2
Fore
SplineSet
307.799804688 -17 m 0,0,1
 225.119140625 -17 225.119140625 -17 169.740234375 12 c 128,-1,2
 114.359375 41 114.359375 41 80.8193359375 88 c 128,-1,3
 47.2802734375 135 47.2802734375 135 34.01953125 194.5 c 128,-1,4
 20.759765625 254 20.759765625 254 20.759765625 314 c 256,5,6
 20.759765625 374 20.759765625 374 36.359375 432 c 128,-1,7
 51.9599609375 490 51.9599609375 490 87.83984375 535.5 c 128,-1,8
 123.719726562 581 123.719726562 581 181.440429688 608.5 c 128,-1,9
 239.16015625 636 239.16015625 636 320.280273438 636 c 0,10,11
 374.880859375 636 374.880859375 636 414.66015625 618.5 c 128,-1,12
 454.440429688 601 454.440429688 601 483.299804688 573.5 c 128,-1,13
 512.16015625 546 512.16015625 546 531.66015625 511 c 128,-1,14
 551.16015625 476 551.16015625 476 561.299804688 440 c 128,-1,15
 571.440429688 404 571.440429688 404 575.33984375 371 c 128,-1,16
 579.240234375 338 579.240234375 338 579.240234375 314 c 0,17,18
 579.240234375 264 579.240234375 264 565.200195312 205.5 c 128,-1,19
 551.16015625 147 551.16015625 147 519.180664062 97.5 c 128,-1,20
 487.200195312 48 487.200195312 48 434.940429688 15.5 c 128,-1,21
 382.680664062 -17 382.680664062 -17 307.799804688 -17 c 0,0,1
136.200195312 524 m 0,22,23
 150.240234375 543 150.240234375 543 158.819335938 553 c 128,-1,24
 167.400390625 563 167.400390625 563 167.400390625 566 c 0,25,26
 167.400390625 568 167.400390625 568 161.16015625 568.5 c 128,-1,27
 154.919921875 569 154.919921875 569 145.559570312 562 c 0,28,29
 139.319335938 556 139.319335938 556 128.400390625 543 c 128,-1,30
 117.48046875 530 117.48046875 530 106.559570312 516 c 128,-1,31
 95.640625 502 95.640625 502 87.83984375 488 c 128,-1,32
 80.0400390625 474 80.0400390625 474 80.0400390625 467 c 256,33,34
 80.0400390625 460 80.0400390625 460 88.619140625 462 c 128,-1,35
 97.2001953125 464 97.2001953125 464 101.880859375 471 c 0,36,37
 106.559570312 479 106.559570312 479 114.359375 492.5 c 128,-1,38
 122.16015625 506 122.16015625 506 136.200195312 524 c 0,22,23
309.359375 60 m 0,39,40
 359.280273438 60 359.280273438 60 388.140625 87 c 128,-1,41
 417 114 417 114 431.819335938 154 c 128,-1,42
 446.640625 194 446.640625 194 450.540039062 240 c 128,-1,43
 454.440429688 286 454.440429688 286 454.440429688 324 c 0,44,45
 454.440429688 348 454.440429688 348 449.759765625 386.5 c 128,-1,46
 445.080078125 425 445.080078125 425 431.040039062 462.5 c 128,-1,47
 417 500 417 500 390.48046875 527 c 128,-1,48
 363.959960938 554 363.959960938 554 320.280273438 554 c 0,49,50
 284.400390625 554 284.400390625 554 259.440429688 526.5 c 128,-1,51
 234.48046875 499 234.48046875 499 217.319335938 460.5 c 128,-1,52
 200.16015625 422 200.16015625 422 192.359375 380 c 128,-1,53
 184.559570312 338 184.559570312 338 184.559570312 308 c 0,54,55
 184.559570312 293 184.559570312 293 184.559570312 269 c 128,-1,56
 184.559570312 245 184.559570312 245 187.680664062 217 c 128,-1,57
 190.799804688 189 190.799804688 189 197.819335938 161.5 c 128,-1,58
 204.83984375 134 204.83984375 134 218.880859375 111.5 c 128,-1,59
 232.919921875 89 232.919921875 89 255.540039062 74.5 c 128,-1,60
 278.16015625 60 278.16015625 60 309.359375 60 c 0,39,40
EndSplineSet
EndChar

StartChar: one
Encoding: 49 49 16
Width: 600
GlyphClass: 1
Flags: W
LayerCount: 2
Fore
SplineSet
404.744140625 0 m 0,0,1
 332.984375 0 332.984375 0 332.984375 48 c 2,2,-1
 332.984375 461 l 2,3,4
 333.184570312 475 333.184570312 475 332.204101562 477 c 0,5,6
 331.184570312 484 331.184570312 484 328.303710938 484 c 0,7,8
 323.184570312 484 323.184570312 484 313.484375 476.5 c 0,9,10
 303.184570312 469 303.184570312 469 267.184570312 455.5 c 128,-1,11
 231.184570312 442 231.184570312 442 217.684570312 436 c 128,-1,12
 204.184570312 430 204.184570312 430 190.384765625 426 c 0,13,14
 176.184570312 421 176.184570312 421 160.744140625 421 c 0,15,16
 139.184570312 421 139.184570312 421 124.084960938 431 c 0,17,18
 103.184570312 443 103.184570312 443 109.264648438 456 c 0,19,20
 109.037109375 458.423828125 109.037109375 458.423828125 119.865234375 486 c 0,21,22
 125.184570312 499 125.184570312 499 151.384765625 511 c 0,23,24
 221.184570312 543 221.184570312 543 242.29296875 553.505859375 c 0,25,26
 298.181640625 583.712890625 298.181640625 583.712890625 304.904296875 586.5 c 0,27,28
 362.184570312 610 362.184570312 610 368.084960938 615 c 0,29,30
 389.184570312 631 389.184570312 631 417.224609375 631 c 0,31,32
 426.184570312 631 426.184570312 631 439.844726562 630 c 0,33,34
 453.184570312 629 453.184570312 629 464.803710938 626 c 0,35,36
 476.184570312 623 476.184570312 623 484.303710938 617 c 0,37,38
 492.104492188 611.060546875 492.104492188 611.060546875 492.104492188 601 c 2,39,-1
 492.104492188 49 l 2,40,41
 492.184570312 31 492.184570312 31 466.365234375 15.5 c 0,42,43
 440.184570312 0 440.184570312 0 404.744140625 0 c 0,0,1
403.184570312 606 m 0,44,45
 410.984375 614 410.984375 614 415.665039062 617 c 128,-1,46
 420.344726562 620 420.344726562 620 415.665039062 621 c 0,47,48
 412.543945312 621 412.543945312 621 401.625 618 c 128,-1,49
 390.704101562 615 390.704101562 615 379.784179688 609 c 0,50,51
 371.984375 604 371.984375 604 359.50390625 597 c 128,-1,52
 347.024414062 590 347.024414062 590 347.024414062 586 c 0,53,54
 347.024414062 583 347.024414062 583 353.264648438 582 c 0,55,56
 364.184570312 581 364.184570312 581 380.565429688 591 c 128,-1,57
 396.944335938 601 396.944335938 601 403.184570312 606 c 0,44,45
386.024414062 46 m 0,58,59
 386.024414062 54 386.024414062 54 381.344726562 59.5 c 128,-1,60
 376.665039062 65 376.665039062 65 376.665039062 76 c 0,61,62
 376.665039062 81 376.665039062 81 375.884765625 85 c 128,-1,63
 375.104492188 89 375.104492188 89 367.303710938 89 c 0,64,65
 361.065429688 89 361.065429688 89 357.944335938 79.5 c 128,-1,66
 354.825195312 70 354.825195312 70 354.825195312 58.5 c 128,-1,67
 354.825195312 47 354.825195312 47 357.944335938 37.5 c 128,-1,68
 361.065429688 28 361.065429688 28 367.303710938 28 c 0,69,70
 386.024414062 28 386.024414062 28 386.024414062 46 c 0,58,59
EndSplineSet
EndChar

StartChar: two
Encoding: 50 50 17
Width: 600
GlyphClass: 1
Flags: W
LayerCount: 2
Fore
SplineSet
90.5087890625 0 m 2,0,1
 76.46875 0 76.46875 0 64.7685546875 13.5 c 128,-1,2
 53.068359375 27 53.068359375 27 56.189453125 39 c 256,3,4
 59.30859375 51 59.30859375 51 81.1484375 69.5 c 128,-1,5
 102.989257812 88 102.989257812 88 129.508789062 109 c 0,6,7
 187.229492188 155 187.229492188 155 233.249023438 203.5 c 128,-1,8
 279.268554688 252 279.268554688 252 312.029296875 299.5 c 128,-1,9
 344.7890625 347 344.7890625 347 361.94921875 392 c 128,-1,10
 379.108398438 437 379.108398438 437 379.108398438 476 c 0,11,12
 379.108398438 518 379.108398438 518 351.80859375 532.5 c 128,-1,13
 324.508789062 547 324.508789062 547 291.749023438 547 c 256,14,15
 260.548828125 547 260.548828125 547 236.368164062 530 c 128,-1,16
 212.189453125 513 212.189453125 513 212.189453125 475 c 0,17,18
 212.189453125 452 212.189453125 452 219.989257812 440.5 c 128,-1,19
 227.7890625 429 227.7890625 429 227.7890625 413 c 0,20,21
 227.7890625 399 227.7890625 399 202.829101562 392.5 c 128,-1,22
 177.868164062 386 177.868164062 386 160.708984375 386 c 0,23,24
 118.588867188 386 118.588867188 386 91.2890625 413 c 128,-1,25
 63.9892578125 440 63.9892578125 440 63.9892578125 481 c 0,26,27
 63.9892578125 514 63.9892578125 514 80.3681640625 542 c 128,-1,28
 96.7490234375 570 96.7490234375 570 127.94921875 591 c 128,-1,29
 159.1484375 612 159.1484375 612 201.268554688 624.5 c 128,-1,30
 243.388671875 637 243.388671875 637 293.30859375 637 c 0,31,32
 341.66796875 637 341.66796875 637 386.908203125 625 c 128,-1,33
 432.1484375 613 432.1484375 613 467.249023438 591 c 128,-1,34
 502.348632812 569 502.348632812 569 523.408203125 538 c 128,-1,35
 544.46875 507 544.46875 507 544.46875 468 c 0,36,37
 544.46875 420 544.46875 420 524.96875 373 c 128,-1,38
 505.46875 326 505.46875 326 475.829101562 284 c 128,-1,39
 446.189453125 242 446.189453125 242 412.6484375 206 c 128,-1,40
 379.108398438 170 379.108398438 170 350.249023438 143.5 c 128,-1,41
 321.388671875 117 321.388671875 117 301.888671875 100.5 c 128,-1,42
 282.388671875 84 282.388671875 84 282.388671875 81 c 1,43,44
 287.068359375 81 287.068359375 81 294.868164062 81 c 2,45,-1
 333.868164062 81 l 1,46,-1
 472.708984375 84 l 2,47,48
 500.7890625 85 500.7890625 85 515.608398438 81 c 128,-1,49
 530.4296875 77 530.4296875 77 536.66796875 69 c 128,-1,50
 542.908203125 61 542.908203125 61 542.908203125 51 c 128,-1,51
 542.908203125 41 542.908203125 41 542.908203125 30 c 0,52,53
 542.908203125 12 542.908203125 12 525.749023438 6 c 128,-1,54
 508.588867188 0 508.588867188 0 458.66796875 0 c 2,55,-1
 90.5087890625 0 l 2,0,1
115.46875 500 m 0,56,57
 117.029296875 512 117.029296875 512 113.908203125 519 c 128,-1,58
 110.7890625 526 110.7890625 526 106.108398438 525 c 0,59,60
 99.8681640625 525 99.8681640625 525 95.96875 518.5 c 128,-1,61
 92.068359375 512 92.068359375 512 91.2890625 503.5 c 128,-1,62
 90.5087890625 495 90.5087890625 495 90.5087890625 487 c 128,-1,63
 90.5087890625 479 90.5087890625 479 90.5087890625 476 c 0,64,65
 93.62890625 463 93.62890625 463 98.30859375 461 c 0,66,67
 106.108398438 456 106.108398438 456 109.229492188 463 c 128,-1,68
 112.348632812 470 112.348632812 470 115.46875 500 c 0,56,57
120.1484375 434 m 0,69,70
 120.1484375 441 120.1484375 441 107.66796875 441 c 256,71,72
 96.7490234375 441 96.7490234375 441 96.7490234375 433 c 0,73,74
 96.7490234375 431 96.7490234375 431 99.8681640625 428 c 128,-1,75
 102.989257812 425 102.989257812 425 106.108398438 425 c 0,76,77
 112.348632812 425 112.348632812 425 116.249023438 428 c 128,-1,78
 120.1484375 431 120.1484375 431 120.1484375 434 c 0,69,70
117.029296875 51 m 0,79,80
 129.508789062 70 129.508789062 70 126.388671875 71 c 0,81,82
 115.46875 71 115.46875 71 102.989257812 61.5 c 128,-1,83
 90.5087890625 52 90.5087890625 52 90.5087890625 41 c 0,84,85
 90.5087890625 33 90.5087890625 33 96.7490234375 33 c 0,86,87
 104.548828125 33 104.548828125 33 117.029296875 51 c 0,79,80
EndSplineSet
EndChar

StartChar: three
Encoding: 51 51 18
Width: 600
GlyphClass: 1
Flags: W
LayerCount: 2
Fore
SplineSet
382.680664062 498 m 0,0,1
 382.680664062 528 382.680664062 528 360.83984375 540.5 c 128,-1,2
 339 553 339 553 293.759765625 553 c 0,3,4
 240.719726562 553 240.719726562 553 214.98046875 527 c 128,-1,5
 189.240234375 501 189.240234375 501 189.240234375 440 c 0,6,7
 189.240234375 426 189.240234375 426 172.859375 420 c 128,-1,8
 156.48046875 414 156.48046875 414 139.319335938 414 c 0,9,10
 42.599609375 414 42.599609375 414 41.0400390625 505 c 0,11,12
 41.0400390625 533 41.0400390625 533 62.880859375 557 c 128,-1,13
 84.7197265625 581 84.7197265625 581 119.040039062 598.5 c 128,-1,14
 153.359375 616 153.359375 616 197.819335938 626.5 c 128,-1,15
 242.280273438 637 242.280273438 637 287.51953125 637 c 0,16,17
 357.719726562 637 357.719726562 637 407.640625 625.5 c 128,-1,18
 457.559570312 614 457.559570312 614 489.540039062 594.5 c 128,-1,19
 521.51953125 575 521.51953125 575 537.900390625 550 c 128,-1,20
 554.280273438 525 554.280273438 525 554.280273438 499 c 0,21,22
 554.280273438 458 554.280273438 458 526.200195312 428 c 128,-1,23
 498.119140625 398 498.119140625 398 463.799804688 377 c 128,-1,24
 429.48046875 356 429.48046875 356 401.400390625 344 c 128,-1,25
 373.319335938 332 373.319335938 332 373.319335938 326 c 256,26,27
 373.319335938 320 373.319335938 320 402.180664062 313 c 128,-1,28
 431.040039062 306 431.040039062 306 466.140625 290.5 c 128,-1,29
 501.240234375 275 501.240234375 275 530.099609375 247 c 128,-1,30
 558.959960938 219 558.959960938 219 558.959960938 171 c 0,31,32
 558.959960938 124 558.959960938 124 530.880859375 90.5 c 128,-1,33
 502.799804688 57 502.799804688 57 457.559570312 35.5 c 128,-1,34
 412.319335938 14 412.319335938 14 354.599609375 4 c 128,-1,35
 296.880859375 -6 296.880859375 -6 237.599609375 -6 c 0,36,37
 212.640625 -6 212.640625 -6 180.66015625 -1.5 c 128,-1,38
 148.680664062 3 148.680664062 3 120.599609375 13 c 128,-1,39
 92.51953125 23 92.51953125 23 73.01953125 37.5 c 128,-1,40
 53.51953125 52 53.51953125 52 53.51953125 73 c 0,41,42
 53.51953125 88 53.51953125 88 63.66015625 98 c 128,-1,43
 73.7998046875 108 73.7998046875 108 90.9599609375 108 c 0,44,45
 111.240234375 108 111.240234375 108 128.400390625 103 c 128,-1,46
 145.559570312 98 145.559570312 98 161.940429688 92.5 c 128,-1,47
 178.319335938 87 178.319335938 87 197.819335938 82.5 c 128,-1,48
 217.319335938 78 217.319335938 78 240.719726562 78 c 0,49,50
 284.400390625 78 284.400390625 78 313.259765625 86 c 128,-1,51
 342.119140625 94 342.119140625 94 358.5 107.5 c 128,-1,52
 374.880859375 121 374.880859375 121 381.119140625 137.5 c 128,-1,53
 387.359375 154 387.359375 154 387.359375 170 c 0,54,55
 387.359375 203 387.359375 203 359.280273438 225.5 c 128,-1,56
 331.200195312 248 331.200195312 248 284.400390625 248 c 0,57,58
 217.319335938 248 217.319335938 248 190.01953125 263.5 c 128,-1,59
 162.719726562 279 162.719726562 279 162.719726562 299 c 0,60,61
 162.719726562 318 162.719726562 318 197.040039062 342.5 c 128,-1,62
 231.359375 367 231.359375 367 272.700195312 392.5 c 128,-1,63
 314.040039062 418 314.040039062 418 348.359375 445 c 128,-1,64
 382.680664062 472 382.680664062 472 382.680664062 498 c 0,0,1
106.559570312 527 m 0,65,66
 108.119140625 539 108.119140625 539 105 546.5 c 128,-1,67
 101.880859375 554 101.880859375 554 97.2001953125 553 c 0,68,69
 90.9599609375 553 90.9599609375 553 85.5 547 c 128,-1,70
 80.0400390625 541 80.0400390625 541 76.140625 532.5 c 128,-1,71
 72.240234375 524 72.240234375 524 69.900390625 516 c 128,-1,72
 67.5595703125 508 67.5595703125 508 69.119140625 504 c 0,73,74
 72.240234375 491 72.240234375 491 76.919921875 488 c 0,75,76
 84.7197265625 483 84.7197265625 483 94.080078125 490 c 128,-1,77
 103.440429688 497 103.440429688 497 106.559570312 527 c 0,65,66
97.2001953125 462 m 0,78,79
 97.2001953125 469 97.2001953125 469 86.2802734375 469 c 256,80,81
 75.359375 469 75.359375 469 75.359375 461 c 0,82,83
 75.359375 459 75.359375 459 78.48046875 456 c 128,-1,84
 81.599609375 453 81.599609375 453 84.7197265625 453 c 0,85,86
 90.9599609375 453 90.9599609375 453 94.080078125 456 c 128,-1,87
 97.2001953125 459 97.2001953125 459 97.2001953125 462 c 0,78,79
215.759765625 298 m 0,88,89
 218.880859375 303 218.880859375 303 225.119140625 311 c 128,-1,90
 231.359375 319 231.359375 319 239.16015625 327 c 0,91,92
 245.400390625 333 245.400390625 333 246.959960938 338 c 128,-1,93
 248.51953125 343 248.51953125 343 245.400390625 343 c 0,94,95
 239.16015625 343 239.16015625 343 229.799804688 337 c 128,-1,96
 220.440429688 331 220.440429688 331 211.859375 322.5 c 128,-1,97
 203.280273438 314 203.280273438 314 196.259765625 305.5 c 128,-1,98
 189.240234375 297 189.240234375 297 189.240234375 291 c 0,99,100
 189.240234375 282 189.240234375 282 198.599609375 282 c 256,101,102
 206.400390625 282 206.400390625 282 215.759765625 298 c 0,88,89
103.440429688 82 m 0,103,104
 103.440429688 104 103.440429688 104 89.400390625 94 c 0,105,106
 81.599609375 89 81.599609375 89 78.48046875 80 c 128,-1,107
 75.359375 71 75.359375 71 76.919921875 63 c 0,108,109
 78.48046875 59 78.48046875 59 81.599609375 57.5 c 128,-1,110
 84.7197265625 56 84.7197265625 56 87.83984375 56 c 256,111,112
 90.9599609375 56 90.9599609375 56 97.2001953125 65 c 128,-1,113
 103.440429688 74 103.440429688 74 103.440429688 82 c 0,103,104
EndSplineSet
EndChar

StartChar: four
Encoding: 52 52 19
Width: 600
VWidth: 1000
GlyphClass: 1
Flags: W
LayerCount: 2
Fore
SplineSet
467.700195312 0 m 0,0,1
 430.259765625 0 430.259765625 0 417 19.5 c 128,-1,2
 403.740234375 39 403.740234375 39 403.740234375 62 c 2,3,-1
 403.740234375 130 l 2,4,5
 403.740234375 142 403.740234375 142 383.459960938 142 c 2,6,-1
 101.099609375 142 l 2,7,8
 66.7802734375 142 66.7802734375 142 50.400390625 152 c 128,-1,9
 34.01953125 162 34.01953125 162 34.01953125 173 c 0,10,11
 121.380859375 610.5 l 0,12,13
 136.98046875 614 136.98046875 614 152.580078125 614 c 0,14,15
 160.380859375 614 160.380859375 614 174.419921875 612 c 128,-1,16
 188.459960938 610 188.459960938 610 201.719726562 606.5 c 128,-1,17
 214.98046875 603 214.98046875 603 225.119140625 598 c 128,-1,18
 235.259765625 593 235.259765625 593 235.259765625 587 c 256,19,20
 235.259765625 573 235.259765625 573 235.259765625 558.5 c 0,21,-1
 221.219726562 235 l 0,22,23
 219.66015625 232 219.66015625 232 219.66015625 229 c 0,24,25
 219.66015625 224 219.66015625 224 232.140625 224 c 2,26,-1
 383.459960938 224 l 2,27,28
 395.940429688 224 395.940429688 224 399.83984375 226.5 c 128,-1,29
 403.740234375 229 403.740234375 229 403.740234375 235 c 6,30,-1
 403.740234375 536 l 6,31,32
 403.740234375 561 403.740234375 561 410.759765625 576.5 c 128,-1,33
 417.780273438 592 417.780273438 592 428.700195312 601 c 128,-1,34
 439.619140625 610 439.619140625 610 453.66015625 613 c 128,-1,35
 467.700195312 616 467.700195312 616 483.299804688 616 c 0,36,37
 525.419921875 616 525.419921875 616 545.700195312 597 c 128,-1,38
 565.98046875 578 565.98046875 578 565.98046875 550 c 2,39,-1
 565.98046875 70 l 2,40,41
 565.98046875 49 565.98046875 49 558.180664062 35 c 128,-1,42
 550.380859375 21 550.380859375 21 536.33984375 13.5 c 128,-1,43
 522.299804688 6 522.299804688 6 504.359375 3 c 128,-1,44
 486.419921875 0 486.419921875 0 467.700195312 0 c 0,0,1
434.940429688 541 m 256,45,46
 441.180664062 541 441.180664062 541 446.640625 547 c 128,-1,47
 452.099609375 553 452.099609375 553 456 561 c 128,-1,48
 459.900390625 569 459.900390625 569 462.240234375 577.5 c 128,-1,49
 464.580078125 586 464.580078125 586 464.580078125 591 c 0,50,51
 464.580078125 598 464.580078125 598 453.66015625 598 c 0,52,53
 448.98046875 598 448.98046875 598 444.299804688 593.5 c 128,-1,54
 439.619140625 589 439.619140625 589 435.719726562 582.5 c 128,-1,55
 431.819335938 576 431.819335938 576 428.700195312 569.5 c 128,-1,56
 425.580078125 563 425.580078125 563 425.580078125 558 c 0,57,58
 425.580078125 552 425.580078125 552 427.140625 546.5 c 128,-1,59
 428.700195312 541 428.700195312 541 434.940429688 541 c 256,45,46
102.66015625 215 m 0,60,61
 108.900390625 228 108.900390625 228 112.799804688 235 c 128,-1,62
 116.700195312 242 116.700195312 242 115.140625 251 c 0,63,64
 115.140625 259 115.140625 259 107.33984375 259 c 0,65,66
 102.66015625 259 102.66015625 259 97.2001953125 251.5 c 128,-1,67
 91.740234375 244 91.740234375 244 86.2802734375 234 c 128,-1,68
 80.8193359375 224 80.8193359375 224 77.7001953125 214 c 128,-1,69
 74.580078125 204 74.580078125 204 74.580078125 199 c 0,70,71
 74.580078125 188 74.580078125 188 82.380859375 188 c 0,72,73
 93.2998046875 189 93.2998046875 189 102.66015625 215 c 0,60,61
87.0595703125 169 m 0,74,75
 87.0595703125 179 87.0595703125 179 74.580078125 179 c 256,76,77
 62.099609375 179 62.099609375 179 62.099609375 169 c 0,78,79
 62.099609375 167 62.099609375 167 63.66015625 166 c 0,80,81
 69.900390625 162 69.900390625 162 74.580078125 162 c 0,82,83
 77.7001953125 162 77.7001953125 162 82.380859375 164 c 128,-1,84
 87.0595703125 166 87.0595703125 166 87.0595703125 169 c 0,74,75
455.219726562 29 m 0,85,86
 450.540039062 35 450.540039062 35 445.859375 37.5 c 128,-1,87
 441.180664062 40 441.180664062 40 441.180664062 45 c 0,88,89
 441.180664062 49 441.180664062 49 439.619140625 53 c 0,90,91
 439.619140625 61 439.619140625 61 431.819335938 61 c 0,92,93
 422.459960938 61 422.459960938 61 422.459960938 50 c 0,94,95
 422.459960938 42 422.459960938 42 429.48046875 28.5 c 128,-1,96
 436.5 15 436.5 15 445.859375 15 c 0,97,98
 450.540039062 15 450.540039062 15 455.219726562 19.5 c 128,-1,99
 459.900390625 24 459.900390625 24 455.219726562 29 c 0,85,86
EndSplineSet
EndChar

StartChar: five
Encoding: 53 53 20
Width: 600
GlyphClass: 1
Flags: W
LayerCount: 2
Fore
SplineSet
140.099609375 -8 m 0,0,1
 104.219726562 -8 104.219726562 -8 84.7197265625 -1.5 c 128,-1,2
 65.2197265625 5 65.2197265625 5 55.859375 14.5 c 128,-1,3
 46.5 24 46.5 24 44.16015625 33.5 c 128,-1,4
 41.8193359375 43 41.8193359375 43 41.8193359375 49 c 0,5,6
 41.8193359375 63 41.8193359375 63 50.400390625 71.5 c 128,-1,7
 58.98046875 80 58.98046875 80 73.01953125 83.5 c 128,-1,8
 87.0595703125 87 87.0595703125 87 105 87.5 c 128,-1,9
 122.940429688 88 122.940429688 88 140.099609375 88 c 0,10,11
 278.940429688 88 278.940429688 88 337.440429688 115 c 128,-1,12
 395.940429688 142 395.940429688 142 395.940429688 201 c 0,13,14
 395.940429688 257 395.940429688 257 354.599609375 283.5 c 128,-1,15
 313.259765625 310 313.259765625 310 235.259765625 310 c 0,16,17
 205.619140625 310 205.619140625 310 185.33984375 307 c 128,-1,18
 165.059570312 304 165.059570312 304 151.01953125 300.5 c 128,-1,19
 136.98046875 297 136.98046875 297 124.5 294 c 128,-1,20
 112.01953125 291 112.01953125 291 94.859375 291 c 256,21,22
 79.259765625 291 79.259765625 291 69.900390625 300 c 128,-1,23
 60.5400390625 309 60.5400390625 309 55.859375 322 c 128,-1,24
 51.1806640625 335 51.1806640625 335 50.400390625 350 c 128,-1,25
 49.619140625 365 49.619140625 365 49.619140625 375 c 2,26,-1
 49.619140625 582 l 2,27,28
 49.619140625 610 49.619140625 610 70.6806640625 620.5 c 128,-1,29
 91.740234375 631 91.740234375 631 122.940429688 631 c 2,30,-1
 494.219726562 631 l 2,31,32
 506.700195312 631 506.700195312 631 518.400390625 623 c 128,-1,33
 530.099609375 615 530.099609375 615 530.099609375 601 c 0,34,35
 530.099609375 583 530.099609375 583 518.400390625 566 c 128,-1,36
 506.700195312 549 506.700195312 549 491.099609375 549 c 2,37,-1
 222.780273438 548 l 2,38,39
 214.98046875 548 214.98046875 548 211.859375 543.5 c 128,-1,40
 208.740234375 539 208.740234375 539 208.740234375 534 c 2,41,-1
 208.740234375 409 l 2,42,43
 208.740234375 393 208.740234375 393 213.419921875 390.5 c 128,-1,44
 218.099609375 388 218.099609375 388 229.01953125 388 c 2,45,-1
 268.01953125 389 l 2,46,47
 331.98046875 391 331.98046875 391 385.799804688 380.5 c 128,-1,48
 439.619140625 370 439.619140625 370 477.83984375 346.5 c 128,-1,49
 516.059570312 323 516.059570312 323 537.119140625 287 c 128,-1,50
 558.180664062 251 558.180664062 251 558.180664062 202 c 0,51,52
 558.180664062 162 558.180664062 162 533.219726562 124.5 c 128,-1,53
 508.259765625 87 508.259765625 87 456 57.5 c 128,-1,54
 403.740234375 28 403.740234375 28 325.740234375 10 c 128,-1,55
 247.740234375 -8 247.740234375 -8 140.099609375 -8 c 0,0,1
93.2998046875 413 m 0,56,57
 93.2998046875 432 93.2998046875 432 91.740234375 442.5 c 128,-1,58
 90.1806640625 453 90.1806640625 453 80.8193359375 446 c 0,59,60
 76.140625 443 76.140625 443 73.01953125 431 c 128,-1,61
 69.900390625 419 69.900390625 419 69.900390625 404.5 c 128,-1,62
 69.900390625 390 69.900390625 390 73.01953125 378 c 128,-1,63
 76.140625 366 76.140625 366 80.8193359375 362 c 256,64,65
 85.5 359 85.5 359 87.0595703125 359 c 0,66,67
 93.2998046875 360 93.2998046875 360 93.2998046875 413 c 0,56,57
107.33984375 334 m 0,68,69
 107.33984375 344 107.33984375 344 97.98046875 344 c 0,70,71
 80.8193359375 344 80.8193359375 344 80.8193359375 330 c 0,72,73
 80.8193359375 323 80.8193359375 323 93.2998046875 323 c 0,74,75
 101.099609375 323 101.099609375 323 104.219726562 327.5 c 128,-1,76
 107.33984375 332 107.33984375 332 107.33984375 334 c 0,68,69
91.740234375 49 m 0,77,78
 90.1806640625 51 90.1806640625 51 90.9599609375 55 c 128,-1,79
 91.740234375 59 91.740234375 59 92.51953125 63 c 128,-1,80
 93.2998046875 67 93.2998046875 67 91.740234375 69.5 c 128,-1,81
 90.1806640625 72 90.1806640625 72 83.9404296875 72 c 0,82,83
 76.140625 72 76.140625 72 73.01953125 63 c 128,-1,84
 69.900390625 54 69.900390625 54 71.4599609375 43 c 256,85,86
 73.01953125 32 73.01953125 32 77.7001953125 22 c 128,-1,87
 82.380859375 12 82.380859375 12 91.740234375 12 c 0,88,89
 94.859375 12 94.859375 12 97.2001953125 23.5 c 128,-1,90
 99.5400390625 35 99.5400390625 35 91.740234375 49 c 0,77,78
EndSplineSet
EndChar

StartChar: six
Encoding: 54 54 21
Width: 600
GlyphClass: 1
Flags: W
LayerCount: 2
Fore
SplineSet
302.33984375 -11 m 0,0,1
 219.66015625 -11 219.66015625 -11 161.16015625 9 c 128,-1,2
 102.66015625 29 102.66015625 29 66 62.5 c 128,-1,3
 29.33984375 96 29.33984375 96 12.1806640625 139.5 c 128,-1,4
 -4.98046875 183 -4.98046875 183 -4.98046875 230 c 0,5,6
 -4.98046875 282 -4.98046875 282 8.2802734375 336 c 128,-1,7
 21.5400390625 390 21.5400390625 390 48.83984375 439 c 128,-1,8
 76.140625 488 76.140625 488 119.819335938 530 c 128,-1,9
 163.5 572 163.5 572 225.900390625 601 c 0,10,11
 271.140625 621 271.140625 621 315.599609375 628 c 128,-1,12
 360.059570312 635 360.059570312 635 394.380859375 635 c 0,13,14
 402.180664062 635 402.180664062 635 414.66015625 633.5 c 128,-1,15
 427.140625 632 427.140625 632 438.059570312 629 c 128,-1,16
 448.98046875 626 448.98046875 626 457.559570312 620.5 c 128,-1,17
 466.140625 615 466.140625 615 466.140625 607 c 0,18,19
 466.140625 593 466.140625 593 458.33984375 581 c 128,-1,20
 450.540039062 569 450.540039062 569 408.419921875 560 c 0,21,22
 366.299804688 551 366.299804688 551 332.759765625 533.5 c 128,-1,23
 299.219726562 516 299.219726562 516 272.700195312 494 c 128,-1,24
 246.180664062 472 246.180664062 472 227.459960938 446 c 128,-1,25
 208.740234375 420 208.740234375 420 193.140625 394 c 0,26,27
 185.33984375 382 185.33984375 382 179.099609375 363 c 128,-1,28
 172.859375 344 172.859375 344 172.859375 333 c 0,29,30
 172.859375 323 172.859375 323 179.099609375 323 c 0,31,32
 183.780273438 323 183.780273438 323 195.48046875 332.5 c 128,-1,33
 207.180664062 342 207.180664062 342 227.459960938 353.5 c 128,-1,34
 247.740234375 365 247.740234375 365 278.16015625 374.5 c 128,-1,35
 308.580078125 384 308.580078125 384 352.259765625 384 c 0,36,37
 475.5 384 475.5 384 540.240234375 331 c 128,-1,38
 604.98046875 278 604.98046875 278 604.98046875 191 c 0,39,40
 604.98046875 149 604.98046875 149 580.799804688 112.5 c 128,-1,41
 556.619140625 76 556.619140625 76 515.280273438 48 c 128,-1,42
 473.940429688 20 473.940429688 20 418.559570312 4.5 c 128,-1,43
 363.180664062 -11 363.180664062 -11 302.33984375 -11 c 0,0,1
294.540039062 82 m 0,44,45
 361.619140625 82 361.619140625 82 402.180664062 109 c 128,-1,46
 442.740234375 136 442.740234375 136 442.740234375 195 c 0,47,48
 442.740234375 212 442.740234375 212 438.059570312 229.5 c 128,-1,49
 433.380859375 247 433.380859375 247 420.900390625 261 c 128,-1,50
 408.419921875 275 408.419921875 275 386.580078125 284 c 128,-1,51
 364.740234375 293 364.740234375 293 330.419921875 293 c 0,52,53
 300.780273438 293 300.780273438 293 269.580078125 282.5 c 128,-1,54
 238.380859375 272 238.380859375 272 214.200195312 256.5 c 128,-1,55
 190.01953125 241 190.01953125 241 175.200195312 221 c 128,-1,56
 160.380859375 201 160.380859375 201 160.380859375 182 c 0,57,58
 160.380859375 140 160.380859375 140 188.459960938 111 c 128,-1,59
 216.540039062 82 216.540039062 82 294.540039062 82 c 0,44,45
93.2998046875 110 m 0,60,61
 88.619140625 121 88.619140625 121 82.380859375 130.5 c 128,-1,62
 76.140625 140 76.140625 140 69.900390625 152 c 0,63,64
 66.7802734375 158 66.7802734375 158 64.4404296875 163 c 128,-1,65
 62.099609375 168 62.099609375 168 55.859375 167 c 0,66,67
 51.1806640625 167 51.1806640625 167 48.0595703125 159 c 0,68,69
 46.5 152 46.5 152 51.9599609375 138.5 c 128,-1,70
 57.419921875 125 57.419921875 125 66 112.5 c 128,-1,71
 74.580078125 100 74.580078125 100 83.16015625 91.5 c 128,-1,72
 91.740234375 83 91.740234375 83 94.859375 83 c 0,73,74
 102.66015625 83 102.66015625 83 102.66015625 88 c 0,75,76
 102.66015625 92 102.66015625 92 99.5400390625 97.5 c 128,-1,77
 96.419921875 103 96.419921875 103 93.2998046875 110 c 0,60,61
EndSplineSet
EndChar

StartChar: seven
Encoding: 55 55 22
Width: 600
GlyphClass: 1
Flags: W
LayerCount: 2
Fore
SplineSet
174.419921875 -2 m 0,0,1
 152.580078125 -2 152.580078125 -2 136.98046875 6.5 c 128,-1,2
 121.380859375 15 121.380859375 15 121.380859375 26 c 0,3,4
 121.380859375 35 121.380859375 35 137.759765625 72 c 128,-1,5
 154.140625 109 154.140625 109 177.540039062 160 c 128,-1,6
 200.940429688 211 200.940429688 211 229.799804688 269.5 c 128,-1,7
 258.66015625 328 258.66015625 328 285.180664062 380 c 128,-1,8
 311.700195312 432 311.700195312 432 332.759765625 472 c 128,-1,9
 353.819335938 512 353.819335938 512 361.619140625 526 c 0,10,11
 369.419921875 541 369.419921875 541 350.700195312 542 c 2,12,-1
 143.219726562 542 l 2,13,14
 99.5400390625 542 99.5400390625 542 75.359375 550.5 c 128,-1,15
 51.1806640625 559 51.1806640625 559 51.1806640625 587 c 256,16,17
 51.1806640625 615 51.1806640625 615 77.7001953125 623 c 128,-1,18
 104.219726562 631 104.219726562 631 146.33984375 631 c 2,19,-1
 483.299804688 631 l 2,20,21
 509.819335938 631 509.819335938 631 529.319335938 620 c 128,-1,22
 548.819335938 609 548.819335938 609 548.819335938 595 c 0,23,24
 548.819335938 585 548.819335938 585 530.880859375 542 c 128,-1,25
 512.940429688 499 512.940429688 499 484.859375 439.5 c 128,-1,26
 456.780273438 380 456.780273438 380 422.459960938 311 c 128,-1,27
 388.140625 242 388.140625 242 356.16015625 180.5 c 128,-1,28
 324.180664062 119 324.180664062 119 299.219726562 73 c 128,-1,29
 274.259765625 27 274.259765625 27 260.219726562 11 c 0,30,31
 257.099609375 6 257.099609375 6 234.48046875 2 c 128,-1,32
 211.859375 -2 211.859375 -2 174.419921875 -2 c 0,0,1
102.66015625 608 m 0,33,34
 102.66015625 616 102.66015625 616 94.859375 616 c 256,35,36
 87.0595703125 616 87.0595703125 616 76.140625 608.5 c 128,-1,37
 65.2197265625 601 65.2197265625 601 65.2197265625 590 c 0,38,39
 65.2197265625 570 65.2197265625 570 79.259765625 569 c 0,40,41
 83.9404296875 569 83.9404296875 569 88.619140625 574 c 128,-1,42
 93.2998046875 579 93.2998046875 579 96.419921875 585 c 128,-1,43
 99.5400390625 591 99.5400390625 591 101.099609375 597.5 c 128,-1,44
 102.66015625 604 102.66015625 604 102.66015625 608 c 0,33,34
174.419921875 39 m 0,45,46
 177.540039062 49 177.540039062 49 180.66015625 60 c 128,-1,47
 183.780273438 71 183.780273438 71 186.900390625 75 c 0,48,49
 193.140625 80 193.140625 80 190.799804688 85 c 128,-1,50
 188.459960938 90 188.459960938 90 180.66015625 90 c 0,51,52
 175.98046875 90 175.98046875 90 170.51953125 83 c 128,-1,53
 165.059570312 76 165.059570312 76 161.16015625 66 c 128,-1,54
 157.259765625 56 157.259765625 56 154.140625 46.5 c 128,-1,55
 151.01953125 37 151.01953125 37 151.01953125 32 c 0,56,57
 151.01953125 20 151.01953125 20 158.819335938 19 c 256,58,59
 166.619140625 20 166.619140625 20 174.419921875 39 c 0,45,46
EndSplineSet
EndChar

StartChar: eight
Encoding: 56 56 23
Width: 600
GlyphClass: 1
Flags: W
LayerCount: 2
Fore
SplineSet
287.51953125 -6 m 0,0,1
 223.559570312 -6 223.559570312 -6 169.740234375 9 c 128,-1,2
 115.919921875 24 115.919921875 24 78.48046875 48 c 128,-1,3
 41.0400390625 72 41.0400390625 72 19.98046875 103 c 128,-1,4
 -1.080078125 134 -1.080078125 134 -1.080078125 167 c 0,5,6
 -1.080078125 206 -1.080078125 206 26.2197265625 233.5 c 128,-1,7
 53.51953125 261 53.51953125 261 86.2802734375 280.5 c 128,-1,8
 119.040039062 300 119.040039062 300 146.33984375 313 c 128,-1,9
 173.640625 326 173.640625 326 173.640625 333 c 0,10,11
 173.640625 341 173.640625 341 148.680664062 350 c 128,-1,12
 123.719726562 359 123.719726562 359 93.2998046875 375.5 c 128,-1,13
 62.880859375 392 62.880859375 392 38.7001953125 417 c 128,-1,14
 14.51953125 442 14.51953125 442 14.51953125 482 c 0,15,16
 14.51953125 515 14.51953125 515 37.140625 543.5 c 128,-1,17
 59.759765625 572 59.759765625 572 99.5400390625 593.5 c 128,-1,18
 139.319335938 615 139.319335938 615 190.799804688 627.5 c 128,-1,19
 242.280273438 640 242.280273438 640 298.440429688 640 c 0,20,21
 340.559570312 640 340.559570312 640 388.140625 629 c 128,-1,22
 435.719726562 618 435.719726562 618 476.280273438 598.5 c 128,-1,23
 516.83984375 579 516.83984375 579 543.359375 549 c 128,-1,24
 569.880859375 519 569.880859375 519 569.880859375 480 c 0,25,26
 569.880859375 442 569.880859375 442 547.259765625 419 c 128,-1,27
 524.640625 396 524.640625 396 498.119140625 382.5 c 128,-1,28
 471.599609375 369 471.599609375 369 449.759765625 361.5 c 128,-1,29
 427.919921875 354 427.919921875 354 427.919921875 348 c 0,30,31
 427.919921875 339 427.919921875 339 455.219726562 327 c 128,-1,32
 482.51953125 315 482.51953125 315 515.280273438 296.5 c 128,-1,33
 548.040039062 278 548.040039062 278 574.559570312 248 c 128,-1,34
 601.080078125 218 601.080078125 218 601.080078125 173 c 0,35,36
 601.080078125 139 601.080078125 139 576.900390625 107 c 128,-1,37
 552.719726562 75 552.719726562 75 509.040039062 49.5 c 128,-1,38
 465.359375 24 465.359375 24 409.200195312 9 c 128,-1,39
 353.040039062 -6 353.040039062 -6 287.51953125 -6 c 0,0,1
83.16015625 524 m 0,40,41
 84.7197265625 530 84.7197265625 530 92.51953125 537.5 c 128,-1,42
 100.319335938 545 100.319335938 545 109.680664062 551.5 c 128,-1,43
 119.040039062 558 119.040039062 558 127.619140625 563.5 c 128,-1,44
 136.200195312 569 136.200195312 569 140.880859375 572 c 0,45,46
 158.040039062 584 158.040039062 584 159.599609375 592 c 0,47,48
 159.599609375 596 159.599609375 596 153.359375 596 c 0,49,50
 139.319335938 596 139.319335938 596 122.16015625 586.5 c 128,-1,51
 105 577 105 577 90.9599609375 563 c 128,-1,52
 76.919921875 549 76.919921875 549 66.7802734375 535 c 128,-1,53
 56.640625 521 56.640625 521 56.640625 513 c 256,54,55
 56.640625 505 56.640625 505 62.880859375 505 c 0,56,57
 75.359375 505 75.359375 505 83.16015625 524 c 0,40,41
298.440429688 380 m 0,58,59
 318.719726562 380 318.719726562 380 339 388.5 c 128,-1,60
 359.280273438 397 359.280273438 397 374.880859375 411.5 c 128,-1,61
 390.48046875 426 390.48046875 426 401.400390625 444 c 128,-1,62
 412.319335938 462 412.319335938 462 412.319335938 480 c 0,63,64
 412.319335938 516 412.319335938 516 380.33984375 542 c 128,-1,65
 348.359375 568 348.359375 568 296.880859375 568 c 256,66,67
 245.400390625 568 245.400390625 568 208.740234375 545.5 c 128,-1,68
 172.080078125 523 172.080078125 523 172.080078125 484 c 0,69,70
 172.080078125 470 172.080078125 470 179.880859375 452 c 128,-1,71
 187.680664062 434 187.680664062 434 204.059570312 417.5 c 128,-1,72
 220.440429688 401 220.440429688 401 244.619140625 390.5 c 128,-1,73
 268.799804688 380 268.799804688 380 298.440429688 380 c 0,58,59
66 480 m 0,74,75
 66 489 66 489 55.080078125 489 c 0,76,77
 47.2802734375 489 47.2802734375 489 44.9404296875 486 c 128,-1,78
 42.599609375 483 42.599609375 483 42.599609375 480 c 0,79,80
 42.599609375 478 42.599609375 478 44.16015625 476 c 0,81,82
 47.2802734375 472 47.2802734375 472 53.51953125 472 c 0,83,84
 56.640625 472 56.640625 472 61.3193359375 474 c 128,-1,85
 66 476 66 476 66 480 c 0,74,75
290.640625 75 m 0,86,87
 367.080078125 75 367.080078125 75 395.16015625 100.5 c 128,-1,88
 423.240234375 126 423.240234375 126 423.240234375 173 c 0,89,90
 423.240234375 192 423.240234375 192 410.759765625 213 c 128,-1,91
 398.280273438 234 398.280273438 234 380.33984375 251.5 c 128,-1,92
 362.400390625 269 362.400390625 269 341.33984375 280.5 c 128,-1,93
 320.280273438 292 320.280273438 292 303.119140625 292 c 0,94,95
 279.719726562 292 279.719726562 292 255.540039062 280 c 128,-1,96
 231.359375 268 231.359375 268 211.859375 250 c 128,-1,97
 192.359375 232 192.359375 232 180.66015625 210 c 128,-1,98
 168.959960938 188 168.959960938 188 168.959960938 167 c 0,99,100
 168.959960938 151 168.959960938 151 177.540039062 134.5 c 128,-1,101
 186.119140625 118 186.119140625 118 201.719726562 104.5 c 128,-1,102
 217.319335938 91 217.319335938 91 239.940429688 83 c 128,-1,103
 262.559570312 75 262.559570312 75 290.640625 75 c 0,86,87
72.240234375 227 m 256,104,105
 76.919921875 235 76.919921875 235 72.240234375 238.5 c 128,-1,106
 67.5595703125 242 67.5595703125 242 56.640625 234 c 0,107,108
 51.9599609375 231 51.9599609375 231 44.16015625 223.5 c 128,-1,109
 36.359375 216 36.359375 216 29.33984375 207 c 128,-1,110
 22.3193359375 198 22.3193359375 198 16.859375 188 c 128,-1,111
 11.400390625 178 11.400390625 178 11.400390625 170 c 0,112,113
 9.83984375 162 9.83984375 162 15.2998046875 154 c 128,-1,114
 20.759765625 146 20.759765625 146 31.6806640625 146 c 0,115,116
 44.16015625 146 44.16015625 146 42.599609375 159 c 128,-1,117
 41.0400390625 172 41.0400390625 172 44.16015625 183 c 0,118,119
 48.83984375 198 48.83984375 198 58.2001953125 208.5 c 128,-1,120
 67.5595703125 219 67.5595703125 219 72.240234375 227 c 256,104,105
EndSplineSet
EndChar

StartChar: nine
Encoding: 57 57 24
Width: 600
VWidth: 1000
GlyphClass: 1
Flags: W
LayerCount: 2
Fore
SplineSet
296.880859375 623 m 0,0,1
 382.680664062 623 382.680664062 623 440.400390625 601.5 c 128,-1,2
 498.119140625 580 498.119140625 580 532.440429688 546 c 128,-1,3
 566.759765625 512 566.759765625 512 581.580078125 470 c 128,-1,4
 596.400390625 428 596.400390625 428 596.400390625 387 c 0,5,6
 596.400390625 336 596.400390625 336 578.459960938 284 c 128,-1,7
 560.51953125 232 560.51953125 232 528.540039062 185 c 128,-1,8
 496.559570312 138 496.559570312 138 452.880859375 99 c 128,-1,9
 409.200195312 60 409.200195312 60 357.719726562 34 c 0,10,11
 315.599609375 13 315.599609375 13 271.140625 2.5 c 128,-1,12
 226.680664062 -8 226.680664062 -8 192.359375 -8 c 0,13,14
 164.280273438 -8 164.280273438 -8 144.780273438 -1.5 c 128,-1,15
 125.280273438 5 125.280273438 5 125.280273438 21 c 0,16,17
 125.280273438 36 125.280273438 36 137.759765625 51.5 c 128,-1,18
 150.240234375 67 150.240234375 67 192.359375 76 c 0,19,20
 232.919921875 85 232.919921875 85 264.900390625 100 c 128,-1,21
 296.880859375 115 296.880859375 115 321.83984375 135 c 128,-1,22
 346.799804688 155 346.799804688 155 364.740234375 178.5 c 128,-1,23
 382.680664062 202 382.680664062 202 396.719726562 227 c 0,24,25
 404.51953125 239 404.51953125 239 410.759765625 257.5 c 128,-1,26
 417 276 417 276 417 287 c 0,27,28
 417 297 417 297 410.759765625 297 c 0,29,30
 406.080078125 297 406.080078125 297 395.940429688 289 c 128,-1,31
 385.799804688 281 385.799804688 281 365.51953125 272 c 128,-1,32
 345.240234375 263 345.240234375 263 314.040039062 255 c 128,-1,33
 282.83984375 247 282.83984375 247 236.040039062 247 c 0,34,35
 126.83984375 247 126.83984375 247 65.2197265625 295 c 128,-1,36
 3.599609375 343 3.599609375 343 3.599609375 425 c 0,37,38
 3.599609375 463 3.599609375 463 22.3193359375 499 c 128,-1,39
 41.0400390625 535 41.0400390625 535 78.48046875 562.5 c 128,-1,40
 115.919921875 590 115.919921875 590 170.51953125 606.5 c 128,-1,41
 225.119140625 623 225.119140625 623 296.880859375 623 c 0,0,1
304.680664062 535 m 0,42,43
 239.16015625 535 239.16015625 535 199.380859375 508 c 128,-1,44
 159.599609375 481 159.599609375 481 159.599609375 432 c 0,45,46
 159.599609375 390 159.599609375 390 188.459960938 364.5 c 128,-1,47
 217.319335938 339 217.319335938 339 268.799804688 339 c 0,48,49
 300 339 300 339 328.859375 347 c 128,-1,50
 357.719726562 355 357.719726562 355 379.559570312 368 c 128,-1,51
 401.400390625 381 401.400390625 381 415.440429688 398.5 c 128,-1,52
 429.48046875 416 429.48046875 416 429.48046875 434 c 0,53,54
 429.48046875 455 429.48046875 455 424.01953125 473 c 128,-1,55
 418.559570312 491 418.559570312 491 404.51953125 505 c 128,-1,56
 390.48046875 519 390.48046875 519 366.299804688 527 c 128,-1,57
 342.119140625 535 342.119140625 535 304.680664062 535 c 0,42,43
81.599609375 486 m 0,58,59
 84.7197265625 496 84.7197265625 496 88.619140625 503.5 c 128,-1,60
 92.51953125 511 92.51953125 511 92.51953125 517 c 0,61,62
 92.51953125 524 92.51953125 524 81.599609375 524 c 0,63,64
 76.919921875 524 76.919921875 524 68.33984375 511 c 128,-1,65
 59.759765625 498 59.759765625 498 52.740234375 480 c 128,-1,66
 45.7197265625 462 45.7197265625 462 41.0400390625 444 c 128,-1,67
 36.359375 426 36.359375 426 39.48046875 415 c 0,68,69
 44.16015625 403 44.16015625 403 51.9599609375 403 c 256,70,71
 59.759765625 403 59.759765625 403 63.66015625 410.5 c 128,-1,72
 67.5595703125 418 67.5595703125 418 70.6806640625 426 c 0,73,74
 76.919921875 443 76.919921875 443 76.919921875 457 c 128,-1,75
 76.919921875 471 76.919921875 471 81.599609375 486 c 0,58,59
75.359375 380 m 0,76,77
 75.359375 385 75.359375 385 73.01953125 388.5 c 128,-1,78
 70.6806640625 392 70.6806640625 392 66 392 c 0,79,80
 58.2001953125 392 58.2001953125 392 51.9599609375 389 c 128,-1,81
 45.7197265625 386 45.7197265625 386 45.7197265625 376 c 0,82,83
 45.7197265625 373 45.7197265625 373 49.619140625 370 c 128,-1,84
 53.51953125 367 53.51953125 367 59.759765625 367 c 0,85,86
 69.119140625 367 69.119140625 367 72.240234375 372.5 c 128,-1,87
 75.359375 378 75.359375 378 75.359375 380 c 0,76,77
187.680664062 58 m 2,88,89
 187.680664062 61 187.680664062 61 180.66015625 60 c 128,-1,90
 173.640625 59 173.640625 59 165.83984375 55 c 128,-1,91
 158.040039062 51 158.040039062 51 151.799804688 44 c 128,-1,92
 145.559570312 37 145.559570312 37 145.559570312 28 c 0,93,94
 145.559570312 26 145.559570312 26 147.900390625 20 c 128,-1,95
 150.240234375 14 150.240234375 14 156.48046875 14 c 0,96,97
 161.16015625 14 161.16015625 14 166.619140625 20.5 c 128,-1,98
 172.080078125 27 172.080078125 27 176.759765625 35.5 c 128,-1,99
 181.440429688 44 181.440429688 44 184.559570312 51 c 128,-1,100
 187.680664062 58 187.680664062 58 187.680664062 58 c 2,88,89
EndSplineSet
EndChar

StartChar: colon
Encoding: 58 58 25
Width: 600
GlyphClass: 1
Flags: W
LayerCount: 2
Fore
SplineSet
211.099609375 -32.7998046875 m 0,0,1
 211.099609375 20.400390625 211.099609375 20.400390625 237 42.099609375 c 128,-1,2
 262.900390625 63.7998046875 262.900390625 63.7998046875 297.900390625 63.7998046875 c 0,3,4
 335.700195312 63.7998046875 335.700195312 63.7998046875 362.299804688 42.099609375 c 128,-1,5
 388.900390625 20.400390625 388.900390625 20.400390625 388.900390625 -32.7998046875 c 0,6,7
 388.900390625 -84.599609375 388.900390625 -84.599609375 362.299804688 -107 c 128,-1,8
 335.700195312 -129.400390625 335.700195312 -129.400390625 297.900390625 -129.400390625 c 0,9,10
 261.5 -129.400390625 261.5 -129.400390625 236.299804688 -107 c 128,-1,11
 211.099609375 -84.599609375 211.099609375 -84.599609375 211.099609375 -32.7998046875 c 0,0,1
211.099609375 581.799804688 m 0,12,13
 211.099609375 636.400390625 211.099609375 636.400390625 237 657.400390625 c 128,-1,14
 262.900390625 678.400390625 262.900390625 678.400390625 297.900390625 678.400390625 c 0,15,16
 335.700195312 678.400390625 335.700195312 678.400390625 362.299804688 656.700195312 c 128,-1,17
 388.900390625 635 388.900390625 635 388.900390625 581.799804688 c 0,18,19
 388.900390625 530 388.900390625 530 362.299804688 506.900390625 c 128,-1,20
 335.700195312 483.799804688 335.700195312 483.799804688 297.900390625 483.799804688 c 0,21,22
 261.5 483.799804688 261.5 483.799804688 236.299804688 506.900390625 c 128,-1,23
 211.099609375 530 211.099609375 530 211.099609375 581.799804688 c 0,12,13
EndSplineSet
EndChar

StartChar: semicolon
Encoding: 59 59 26
Width: 600
GlyphClass: 1
Flags: W
LayerCount: 2
Fore
SplineSet
400.099609375 65 m 1,0,1
 387.5 14.599609375 387.5 14.599609375 367.900390625 -44.2001953125 c 128,-1,2
 348.299804688 -103 348.299804688 -103 324.5 -161.099609375 c 128,-1,3
 300.700195312 -219.200195312 300.700195312 -219.200195312 276.900390625 -271 c 1,4,-1
 183.099609375 -271 l 1,5,6
 192.900390625 -230.400390625 192.900390625 -230.400390625 203.400390625 -184.900390625 c 128,-1,7
 213.900390625 -139.400390625 213.900390625 -139.400390625 224.400390625 -92.5 c 128,-1,8
 234.900390625 -45.599609375 234.900390625 -45.599609375 242.599609375 -1.5 c 128,-1,9
 250.299804688 42.599609375 250.299804688 42.599609375 255.900390625 80.400390625 c 1,10,-1
 390.299804688 80.400390625 l 1,11,-1
 400.099609375 65 l 1,0,1
239.099609375 605.400390625 m 0,12,13
 239.099609375 660 239.099609375 660 265 681 c 128,-1,14
 290.900390625 702 290.900390625 702 325.900390625 702 c 0,15,16
 363.700195312 702 363.700195312 702 390.299804688 680.299804688 c 128,-1,17
 416.900390625 658.599609375 416.900390625 658.599609375 416.900390625 605.400390625 c 0,18,19
 416.900390625 553.599609375 416.900390625 553.599609375 390.299804688 530.5 c 128,-1,20
 363.700195312 507.400390625 363.700195312 507.400390625 325.900390625 507.400390625 c 0,21,22
 289.5 507.400390625 289.5 507.400390625 264.299804688 530.5 c 128,-1,23
 239.099609375 553.599609375 239.099609375 553.599609375 239.099609375 605.400390625 c 0,12,13
EndSplineSet
EndChar

StartChar: less
Encoding: 60 60 27
Width: 600
GlyphClass: 1
Flags: W
LayerCount: 2
Fore
SplineSet
541.5 119 m 1,0,-1
 58.5 331 l 1,1,-1
 58.5 382 l 1,2,-1
 541.5 623 l 1,3,-1
 541.5 543 l 1,4,-1
 154.5 360 l 1,5,-1
 541.5 199 l 1,6,-1
 541.5 119 l 1,0,-1
EndSplineSet
EndChar

StartChar: equal
Encoding: 61 61 28
Width: 600
GlyphClass: 1
Flags: W
LayerCount: 2
Fore
SplineSet
65.5 426 m 1,0,-1
 65.5 499 l 1,1,-1
 534.5 499 l 1,2,-1
 534.5 426 l 1,3,-1
 65.5 426 l 1,0,-1
65.5 222 m 1,4,-1
 65.5 295 l 1,5,-1
 534.5 295 l 1,6,-1
 534.5 222 l 1,7,-1
 65.5 222 l 1,4,-1
EndSplineSet
EndChar

StartChar: greater
Encoding: 62 62 29
Width: 600
GlyphClass: 1
Flags: W
LayerCount: 2
Fore
SplineSet
58.5 199 m 1,0,-1
 444.5 359 l 1,1,-1
 58.5 543 l 1,2,-1
 58.5 623 l 1,3,-1
 541.5 382 l 1,4,-1
 541.5 331 l 1,5,-1
 58.5 119 l 1,6,-1
 58.5 199 l 1,0,-1
EndSplineSet
EndChar

StartChar: question
Encoding: 63 63 30
Width: 600
GlyphClass: 1
Flags: W
LayerCount: 2
Fore
SplineSet
228 204 m 6,0,1
 228 243 228 243 236 271 c 132,-1,2
 244 299 244 299 263 324.5 c 132,-1,3
 282 350 282 350 314 378 c 4,4,5
 354 412 354 412 376 434.5 c 132,-1,6
 398 457 398 457 407.5 478.5 c 132,-1,7
 417 500 417 500 417 530 c 4,8,9
 417 579 417 579 385 606 c 132,-1,10
 353 633 353 633 293 633 c 4,11,12
 243 633 243 633 204 620 c 132,-1,13
 165 607 165 607 129 590 c 5,14,-1
 97 662 l 5,15,16
 138 684 138 684 188 698 c 132,-1,17
 238 712 238 712 299 712 c 4,18,19
 396 712 396 712 449.5 663.5 c 132,-1,20
 503 615 503 615 503 532 c 4,21,22
 503 486 503 486 488 454 c 132,-1,23
 473 422 473 422 446 395 c 132,-1,24
 419 368 419 368 382 337 c 4,25,26
 348 308 348 308 330 286.5 c 132,-1,27
 312 265 312 265 306 244 c 132,-1,28
 300 223 300 223 300 194 c 6,29,-1
 300 176 l 5,30,-1
 228 176 l 5,31,-1
 228 204 l 6,0,1
205 26 m 4,32,33
 205 64 205 64 223 79 c 132,-1,34
 241 94 241 94 268 94 c 4,35,36
 294 94 294 94 312.5 78.5 c 132,-1,37
 331 63 331 63 331 26 c 4,38,39
 331 -11 331 -11 312.5 -27.5 c 132,-1,40
 294 -44 294 -44 268 -44 c 4,41,42
 240 -44 240 -44 222.5 -27.5 c 132,-1,43
 205 -11 205 -11 205 26 c 4,32,33
EndSplineSet
EndChar

StartChar: bracketleft
Encoding: 91 91 31
Width: 600
GlyphClass: 1
Flags: W
LayerCount: 2
Fore
SplineSet
202.487304688 -72 m 0,0,1
 199.487304688 -69 199.487304688 -69 197.987304688 -58 c 128,-1,2
 196.487304688 -47 196.487304688 -47 195.487304688 -12.5 c 128,-1,3
 194.487304688 22 194.487304688 22 194.487304688 89 c 128,-1,4
 194.487304688 156 194.487304688 156 194.487304688 272 c 0,5,6
 194.487304688 355 194.487304688 355 194.487304688 414.5 c 128,-1,7
 194.487304688 474 194.487304688 474 194.487304688 515.5 c 128,-1,8
 194.487304688 557 194.487304688 557 195.487304688 583.5 c 128,-1,9
 196.487304688 610 196.487304688 610 198.487304688 626 c 128,-1,10
 200.487304688 642 200.487304688 642 203.487304688 650 c 128,-1,11
 206.487304688 658 206.487304688 658 211.487304688 665 c 0,12,13
 215.487304688 670 215.487304688 670 227.487304688 673 c 128,-1,14
 239.487304688 676 239.487304688 676 255.487304688 677.5 c 128,-1,15
 271.487304688 679 271.487304688 679 291.487304688 679.5 c 128,-1,16
 311.487304688 680 311.487304688 680 331.487304688 680 c 0,17,18
 373.487304688 680 373.487304688 680 394.487304688 665.5 c 128,-1,19
 415.487304688 651 415.487304688 651 396.487304688 631 c 0,20,21
 391.487304688 625 391.487304688 625 376.987304688 620.5 c 128,-1,22
 362.487304688 616 362.487304688 616 331.487304688 616 c 0,23,24
 317.487304688 616 317.487304688 616 309.487304688 614 c 128,-1,25
 301.487304688 612 301.487304688 612 298.487304688 607 c 128,-1,26
 295.487304688 602 295.487304688 602 295.487304688 593.5 c 128,-1,27
 295.487304688 585 295.487304688 585 295.487304688 570 c 2,28,-1
 295.487304688 -20 l 1,29,-1
 314.487304688 -20 l 2,30,31
 358.487304688 -20 358.487304688 -20 372.987304688 -28 c 128,-1,32
 387.487304688 -36 387.487304688 -36 387.487304688 -57 c 0,33,34
 387.487304688 -67 387.487304688 -67 383.987304688 -73 c 128,-1,35
 380.487304688 -79 380.487304688 -79 369.987304688 -81.5 c 128,-1,36
 359.487304688 -84 359.487304688 -84 340.987304688 -84.5 c 128,-1,37
 322.487304688 -85 322.487304688 -85 291.487304688 -85 c 0,38,39
 263.487304688 -85 263.487304688 -85 247.987304688 -85 c 128,-1,40
 232.487304688 -85 232.487304688 -85 222.987304688 -83.5 c 128,-1,41
 213.487304688 -82 213.487304688 -82 209.487304688 -79.5 c 128,-1,42
 205.487304688 -77 205.487304688 -77 202.487304688 -72 c 0,0,1
240.487304688 631 m 256,43,44
 242.487304688 639 242.487304688 639 251.487304688 645 c 128,-1,45
 260.487304688 651 260.487304688 651 267.487304688 651 c 0,46,47
 276.487304688 651 276.487304688 651 276.487304688 658 c 0,48,49
 276.487304688 659 276.487304688 659 274.987304688 659 c 128,-1,50
 273.487304688 659 273.487304688 659 267.487304688 659 c 0,51,52
 252.487304688 659 252.487304688 659 237.987304688 649 c 128,-1,53
 223.487304688 639 223.487304688 639 223.487304688 625 c 0,54,55
 223.487304688 613 223.487304688 613 227.487304688 612 c 256,56,57
 231.487304688 612 231.487304688 612 234.987304688 617.5 c 128,-1,58
 238.487304688 623 238.487304688 623 240.487304688 631 c 256,43,44
EndSplineSet
EndChar

StartChar: backslash
Encoding: 92 92 32
Width: 600
GlyphClass: 1
Flags: W
LayerCount: 2
Fore
SplineSet
184 682 m 0,0,1
 191 682 191 682 209.5 645.5 c 128,-1,2
 228 609 228 609 252 554 c 128,-1,3
 276 499 276 499 302.5 433 c 128,-1,4
 329 367 329 367 352.5 307 c 128,-1,5
 376 247 376 247 393 202.5 c 128,-1,6
 410 158 410 158 416 145 c 0,7,8
 422 132 422 132 434 104 c 128,-1,9
 446 76 446 76 458 45.5 c 128,-1,10
 470 15 470 15 478.5 -11 c 128,-1,11
 487 -37 487 -37 487 -45 c 0,12,13
 487 -52 487 -52 482 -58.5 c 128,-1,14
 477 -65 477 -65 469 -69.5 c 128,-1,15
 461 -74 461 -74 452.5 -76.5 c 128,-1,16
 444 -79 444 -79 437 -79 c 0,17,18
 423 -79 423 -79 411 -69 c 128,-1,19
 399 -59 399 -59 392 -48 c 0,20,21
 386 -38 386 -38 370.5 -3 c 128,-1,22
 355 32 355 32 334.5 81.5 c 128,-1,23
 314 131 314 131 289.5 191.5 c 128,-1,24
 265 252 265 252 240.5 313.5 c 128,-1,25
 216 375 216 375 193 433.5 c 128,-1,26
 170 492 170 492 152.5 538 c 128,-1,27
 135 584 135 584 124 613 c 128,-1,28
 113 642 113 642 113 645 c 0,29,30
 113 654 113 654 122.5 661.5 c 128,-1,31
 132 669 132 669 144 673.5 c 128,-1,32
 156 678 156 678 168 680 c 128,-1,33
 180 682 180 682 184 682 c 0,0,1
158 641 m 0,34,35
 156 646 156 646 148.5 644 c 128,-1,36
 141 642 141 642 141 635 c 0,37,38
 141 629 141 629 146 614 c 128,-1,39
 151 599 151 599 158 583 c 128,-1,40
 165 567 165 567 171.5 553.5 c 128,-1,41
 178 540 178 540 180 536 c 0,42,43
 183 531 183 531 188 530.5 c 128,-1,44
 193 530 193 530 195 531 c 0,45,46
 200 532 200 532 196.5 545 c 128,-1,47
 193 558 193 558 186 575 c 128,-1,48
 179 592 179 592 170.5 610.5 c 128,-1,49
 162 629 162 629 158 641 c 0,34,35
EndSplineSet
EndChar

StartChar: bracketright
Encoding: 93 93 33
Width: 600
GlyphClass: 1
Flags: W
LayerCount: 2
Fore
SplineSet
228.25 -82 m 0,0,1
 213.25 -82 213.25 -82 202.25 -73.5 c 128,-1,2
 191.25 -65 191.25 -65 191.25 -56 c 0,3,4
 191.25 -33 191.25 -33 205.25 -25 c 128,-1,5
 219.25 -17 219.25 -17 239.25 -17 c 0,6,7
 264.25 -17 264.25 -17 278.25 -15 c 128,-1,8
 292.25 -13 292.25 -13 298.75 -8.5 c 128,-1,9
 305.25 -4 305.25 -4 306.75 3.5 c 128,-1,10
 308.25 11 308.25 11 308.25 22 c 2,11,-1
 308.25 564 l 2,12,13
 308.25 594 308.25 594 295.75 604 c 128,-1,14
 283.25 614 283.25 614 272.25 614 c 256,15,16
 261.25 614 261.25 614 248.75 612 c 128,-1,17
 236.25 610 236.25 610 225.25 610 c 0,18,19
 211.25 610 211.25 610 201.25 617.5 c 128,-1,20
 191.25 625 191.25 625 191.25 648 c 0,21,22
 191.25 660 191.25 660 208.25 669 c 128,-1,23
 225.25 678 225.25 678 255.25 678 c 0,24,25
 281.25 678 281.25 678 305.75 678 c 128,-1,26
 330.25 678 330.25 678 350.25 676.5 c 128,-1,27
 370.25 675 370.25 675 383.25 672 c 128,-1,28
 396.25 669 396.25 669 399.25 663 c 0,29,30
 402.25 658 402.25 658 402.75 641 c 128,-1,31
 403.25 624 403.25 624 403.25 584.5 c 128,-1,32
 403.25 545 403.25 545 403.75 477.5 c 128,-1,33
 404.25 410 404.25 410 405.25 302 c 0,34,35
 407.25 198 407.25 198 408.25 130.5 c 128,-1,36
 409.25 63 409.25 63 408.25 22 c 0,37,38
 408.25 -7 408.25 -7 404.25 -25.5 c 128,-1,39
 400.25 -44 400.25 -44 394.25 -55.5 c 128,-1,40
 388.25 -67 388.25 -67 379.75 -72 c 128,-1,41
 371.25 -77 371.25 -77 360.25 -78 c 0,42,43
 342.25 -80 342.25 -80 320.25 -81 c 128,-1,44
 298.25 -82 298.25 -82 278.75 -82 c 128,-1,45
 259.25 -82 259.25 -82 244.75 -82 c 128,-1,46
 230.25 -82 230.25 -82 228.25 -82 c 0,0,1
223.25 659 m 256,47,48
 219.25 664 219.25 664 212.25 660 c 128,-1,49
 205.25 656 205.25 656 205.25 648 c 0,50,51
 205.25 638 205.25 638 209.25 638 c 256,52,53
 213.25 638 213.25 638 213.25 645 c 0,54,55
 214.25 649 214.25 649 220.75 651.5 c 128,-1,56
 227.25 654 227.25 654 223.25 659 c 256,47,48
EndSplineSet
EndChar

StartChar: asciicircum
Encoding: 94 94 34
Width: 600
GlyphClass: 1
Flags: W
LayerCount: 2
Fore
SplineSet
46 273 m 1,0,-1
 263 736 l 1,1,-1
 314 736 l 1,2,-1
 554 273 l 1,3,-1
 474 273 l 1,4,-1
 290 641 l 1,5,-1
 126 273 l 1,6,-1
 46 273 l 1,0,-1
EndSplineSet
EndChar

StartChar: underscore
Encoding: 95 95 35
Width: 600
GlyphClass: 1
Flags: W
LayerCount: 2
Fore
SplineSet
529.5 -158 m 1,0,-1
 70.5 -158 l 1,1,-1
 70.5 -92 l 1,2,-1
 529.5 -92 l 1,3,-1
 529.5 -158 l 1,0,-1
EndSplineSet
EndChar

StartChar: braceleft
Encoding: 123 123 36
Width: 600
GlyphClass: 1
Flags: W
LayerCount: 2
Fore
SplineSet
35 379 m 1,0,1
 76 379 76 379 122.5 388 c 128,-1,2
 169 397 169 397 183.5 417.5 c 128,-1,3
 198 438 198 438 198 471 c 2,4,-1
 198 708 l 2,5,6
 198 759 198 759 220.5 790 c 128,-1,7
 243 821 243 821 379 836 c 128,-1,8
 515 851 515 851 565 852 c 5,9,-1
 565 778 l 5,10,11
 537 778 537 778 420 771.5 c 128,-1,12
 303 765 303 765 292 749 c 128,-1,13
 281 733 281 733 281 701 c 2,14,-1
 281 466 l 2,15,16
 281 415 281 415 253.5 384.5 c 128,-1,17
 226 354 226 354 172 343 c 1,18,-1
 172 338 l 1,19,20
 225 328 225 328 253 298 c 128,-1,21
 281 268 281 268 281 216 c 2,22,-1
 281 -18 l 2,23,24
 281 -50 281 -50 292 -66.5 c 128,-1,25
 303 -83 303 -83 420 -89 c 128,-1,26
 537 -95 537 -95 565 -96 c 5,27,-1
 565 -170 l 5,28,29
 515 -169 515 -169 379 -154 c 128,-1,30
 243 -139 243 -139 220.5 -108 c 128,-1,31
 198 -77 198 -77 198 -26 c 2,32,-1
 198 211 l 2,33,34
 198 245 198 245 183.5 265 c 128,-1,35
 169 285 169 285 122.5 294 c 128,-1,36
 76 303 76 303 35 303 c 1,37,-1
 35 379 l 1,0,1
EndSplineSet
EndChar

StartChar: bar
Encoding: 124 124 37
Width: 600
GlyphClass: 1
Flags: W
LayerCount: 2
Fore
SplineSet
263.5 852 m 1,0,-1
 336.5 852 l 1,1,-1
 336.5 -170 l 1,2,-1
 263.5 -170 l 1,3,-1
 263.5 852 l 1,0,-1
EndSplineSet
EndChar

StartChar: asciitilde
Encoding: 126 126 39
Width: 600
GlyphClass: 1
Flags: W
LayerCount: 2
Fore
SplineSet
29.73046875 343 m 5,0,1
 60.150390625 371 60.150390625 371 95.8349609375 384 c 132,-1,2
 131.51953125 397 131.51953125 397 174.810546875 397 c 4,3,4
 197.040039062 397 197.040039062 397 216.344726562 394.5 c 132,-1,5
 235.650390625 392 235.650390625 392 259.635742188 385.5 c 132,-1,6
 283.620117188 379 283.620117188 379 319.889648438 366 c 4,7,8
 364.349609375 350 364.349609375 350 388.334960938 344 c 132,-1,9
 412.3203125 338 412.3203125 338 436.889648438 338 c 4,10,11
 470.8203125 338 470.8203125 338 506.504882812 355.5 c 132,-1,12
 542.189453125 373 542.189453125 373 570.26953125 398 c 5,13,-1
 570.26953125 317 l 5,14,15
 541.01953125 290 541.01953125 290 504.75 276.5 c 132,-1,16
 468.48046875 263 468.48046875 263 425.189453125 263 c 4,17,18
 402.959960938 263 402.959960938 263 383.655273438 265.5 c 132,-1,19
 364.349609375 268 364.349609375 268 340.950195312 275 c 132,-1,20
 317.549804688 282 317.549804688 282 280.110351562 295 c 4,21,22
 236.819335938 311 236.819335938 311 213.419921875 317 c 132,-1,23
 190.01953125 323 190.01953125 323 163.110351562 323 c 4,24,25
 130.349609375 323 130.349609375 323 94.6650390625 305.5 c 132,-1,26
 58.98046875 288 58.98046875 288 29.73046875 262 c 5,27,-1
 29.73046875 343 l 5,0,1
EndSplineSet
EndChar

StartChar: A
Encoding: 65 65 40
Width: 600
VWidth: 1000
GlyphClass: 2
Flags: W
LayerCount: 2
Fore
SplineSet
255 221 m 4
 228.400390625 221 228.400390625 221 212.299804688 237.25 c 4
 196.200195312 253.5 196.200195312 253.5 196.200195312 280.799804688 c 4
 196.200195312 305.5 196.200195312 305.5 210.200195312 326.950195312 c 4
 224.200195312 348.400390625 224.200195312 348.400390625 255 348.400390625 c 4
 287.200195312 348.400390625 287.200195312 348.400390625 304 328.25 c 4
 320.799804688 308.100585938 320.799804688 308.100585938 320.799804688 280.799804688 c 4
 320.799804688 250.900390625 320.799804688 250.900390625 301.900390625 235.950195312 c 4
 283 221 283 221 255 221 c 4
229.799804688 288.600585938 m 4
 231.200195312 302.900390625 231.200195312 302.900390625 236.799804688 314.600585938 c 4
 242.400390625 326.299804688 242.400390625 326.299804688 235.400390625 326.299804688 c 4
 225.600585938 326.299804688 225.600585938 326.299804688 219.299804688 307.450195312 c 4
 213 288.600585938 213 288.600585938 213 274.299804688 c 4
 213 261.299804688 213 261.299804688 220 261.299804688 c 4
 225.600585938 261.299804688 225.600585938 261.299804688 227 271.049804688 c 4
 228.400390625 280.799804688 228.400390625 280.799804688 229.799804688 288.600585938 c 4
EndSplineSet
Refer: 66 97 N 1 0 0 1 0 0 2
EndChar

StartChar: B
Encoding: 66 66 41
Width: 600
VWidth: 1000
GlyphClass: 2
Flags: W
LayerCount: 2
Fore
SplineSet
318.022460938 -3.921875 m 4,0,1
 252.68359375 -4 252.68359375 -4 209.203125 16.8720703125 c 4,2,3
 164.68359375 37 164.68359375 37 139.754882812 65.09765625 c 5,4,-1
 133.193359375 65.09765625 l 5,5,-1
 124.443359375 4.927734375 l 5,6,-1
 45.69921875 4.927734375 l 5,7,-1
 45.69921875 669.072265625 l 5,8,-1
 140.848632812 669.072265625 l 5,9,-1
 140.848632812 514.606445312 l 6,10,11
 140.484375 490 140.484375 490 140.301757812 465.939453125 c 4,12,13
 139.383789062 442 139.383789062 442 136.473632812 417.272460938 c 5,14,-1
 140.848632812 417.272460938 l 5,15,16
 163.583984375 446 163.583984375 446 207.5625 466.825195312 c 4,17,18
 251.583984375 488 251.583984375 488 318.022460938 488.061523438 c 4,19,20
 370.383789062 488 370.383789062 488 414.264648438 472.576171875 c 4,21,22
 457.284179688 457 457.284179688 457 489.181640625 426.120117188 c 4,23,24
 517.784179688 398 517.784179688 398 537.302734375 349.138671875 c 4,25,26
 554.083984375 307 554.083984375 307 554.254882812 242.955078125 c 4,27,28
 555.18359375 182 555.18359375 182 537.302734375 135.885742188 c 4,29,30
 519.984375 90 519.984375 90 488.635742188 58.4609375 c 4,31,32
 456.18359375 27 456.18359375 27 413.717773438 11.5625 c 4,33,34
 370.383789062 -4 370.383789062 -4 318.022460938 -3.921875 c 4,0,1
299.430664062 60.671875 m 4,35,36
 379.268554688 60.671875 379.268554688 60.671875 416.453125 107.5703125 c 132,-1,37
 453.637695312 154.46875 453.637695312 154.46875 453.637695312 242.955078125 c 4,38,39
 453.637695312 329.670898438 453.637695312 329.670898438 416.453125 376.568359375 c 132,-1,40
 379.268554688 423.466796875 379.268554688 423.466796875 298.3359375 423.466796875 c 4,41,42
 222.873046875 423.466796875 222.873046875 423.466796875 181.860351562 377.010742188 c 132,-1,43
 140.848632812 330.556640625 140.848632812 330.556640625 140.848632812 244.724609375 c 4,44,45
 140.848632812 155.353515625 140.848632812 155.353515625 179.673828125 108.013671875 c 132,-1,46
 218.499023438 60.671875 218.499023438 60.671875 299.430664062 60.671875 c 4,35,36
295.583007812 178 m 4,47,48
 266.323242188 178 266.323242188 178 248.612304688 194.25 c 132,-1,49
 230.903320312 210.5 230.903320312 210.5 230.903320312 237.799804688 c 4,50,51
 230.903320312 262.5 230.903320312 262.5 246.302734375 283.950195312 c 132,-1,52
 261.703125 305.400390625 261.703125 305.400390625 295.583007812 305.400390625 c 4,53,54
 331.002929688 305.400390625 331.002929688 305.400390625 349.483398438 285.25 c 132,-1,55
 367.962890625 265.100585938 367.962890625 265.100585938 367.962890625 237.799804688 c 4,56,57
 367.962890625 207.900390625 367.962890625 207.900390625 347.173828125 192.950195312 c 132,-1,58
 326.3828125 178 326.3828125 178 295.583007812 178 c 4,47,48
267.862304688 245.600585938 m 4,59,60
 269.403320312 259.900390625 269.403320312 259.900390625 275.5625 271.600585938 c 132,-1,61
 281.723632812 283.299804688 281.723632812 283.299804688 274.0234375 283.299804688 c 4,62,63
 263.243164062 283.299804688 263.243164062 283.299804688 256.3125 264.450195312 c 132,-1,64
 249.3828125 245.600585938 249.3828125 245.600585938 249.3828125 231.299804688 c 4,65,66
 249.3828125 218.299804688 249.3828125 218.299804688 257.083007812 218.299804688 c 4,67,68
 263.243164062 218.299804688 263.243164062 218.299804688 264.783203125 228.049804688 c 132,-1,69
 266.323242188 237.799804688 266.323242188 237.799804688 267.862304688 245.600585938 c 4,59,60
EndSplineSet
EndChar

StartChar: C
Encoding: 67 67 42
Width: 600
VWidth: 1000
GlyphClass: 2
Flags: W
LayerCount: 2
Fore
SplineSet
302.099609375 603.049804688 m 0
 275.5 603.049804688 275.5 603.049804688 259.399414062 619.299804688 c 0
 243.299804688 635.549804688 243.299804688 635.549804688 243.299804688 662.849609375 c 0
 243.299804688 687.549804688 243.299804688 687.549804688 257.299804688 709 c 0
 271.299804688 730.450195312 271.299804688 730.450195312 302.099609375 730.450195312 c 0
 334.299804688 730.450195312 334.299804688 730.450195312 351.099609375 710.299804688 c 0
 367.899414062 690.150390625 367.899414062 690.150390625 367.899414062 662.849609375 c 0
 367.899414062 632.950195312 367.899414062 632.950195312 349 618 c 0
 330.099609375 603.049804688 330.099609375 603.049804688 302.099609375 603.049804688 c 0
276.899414062 670.650390625 m 0
 278.299804688 684.950195312 278.299804688 684.950195312 283.899414062 696.650390625 c 0
 289.5 708.349609375 289.5 708.349609375 282.5 708.349609375 c 0
 272.700195312 708.349609375 272.700195312 708.349609375 266.399414062 689.5 c 0
 260.099609375 670.650390625 260.099609375 670.650390625 260.099609375 656.349609375 c 0
 260.099609375 643.349609375 260.099609375 643.349609375 267.099609375 643.349609375 c 0
 272.700195312 643.349609375 272.700195312 643.349609375 274.099609375 653.099609375 c 0
 275.5 662.849609375 275.5 662.849609375 276.899414062 670.650390625 c 0
EndSplineSet
Refer: 70 99 S 1 0 0 1 0 0 2
EndChar

StartChar: D
Encoding: 68 68 43
Width: 600
VWidth: 1000
GlyphClass: 2
Flags: W
LayerCount: 2
Fore
SplineSet
284.416992188 2.5400390625 m 4,0,1
 228.498046875 3 228.498046875 3 181.103515625 15.7314453125 c 4,2,3
 134.998046875 29 134.998046875 29 100.875976562 56.083984375 c 4,4,5
 67.8974609375 83 67.8974609375 83 49.509765625 124.372070312 c 4,6,7
 31.59765625 166 31.59765625 166 31.6162109375 220.595703125 c 4,8,9
 31.59765625 290 31.59765625 290 61.0517578125 337.383789062 c 4,10,11
 90.998046875 385 90.998046875 385 149.359375 409.551757812 c 4,12,13
 208.698242188 434 208.698242188 434 295.959960938 433.99609375 c 4,14,15
 338.498046875 434 338.498046875 434 371.569335938 426.235351562 c 4,16,17
 404.498046875 418 404.498046875 418 428.1328125 404.895507812 c 4,18,19
 451.797851562 391 451.797851562 391 465.647460938 373.46875 c 5,20,-1
 472.57421875 373.46875 l 5,21,22
 471.59765625 381 471.59765625 381 469.6875 391.704101562 c 4,23,24
 468.297851562 402 468.297851562 402 466.802734375 413.431640625 c 4,25,26
 466.09765625 432 466.09765625 432 465.647460938 434.771484375 c 6,27,-1
 465.647460938 652.059570312 l 5,28,-1
 568.384765625 652.059570312 l 5,29,-1
 568.384765625 10.2998046875 l 5,30,-1
 482.962890625 10.2998046875 l 5,31,-1
 471.419921875 66.171875 l 5,32,-1
 466.802734375 66.171875 l 5,33,34
 449.59765625 48 449.59765625 48 424.669921875 33.19140625 c 4,35,36
 400.09765625 19 400.09765625 19 365.797851562 10.6884765625 c 4,37,38
 331.897460938 3 331.897460938 3 284.416992188 2.5400390625 c 4,0,1
304.041015625 59.1884765625 m 4,39,40
 385.999023438 59.1884765625 385.999023438 59.1884765625 425.823242188 97.599609375 c 132,-1,41
 465.647460938 136.01171875 465.647460938 136.01171875 465.647460938 201.971679688 c 6,42,-1
 465.647460938 217.491210938 l 6,43,44
 465.647460938 263.275390625 465.647460938 263.275390625 450.641601562 299.360351562 c 132,-1,45
 435.634765625 335.444335938 435.634765625 335.444335938 401.004882812 356.395507812 c 132,-1,46
 366.375 377.348632812 366.375 377.348632812 307.502929688 377.348632812 c 4,47,48
 226.69921875 377.348632812 226.69921875 377.348632812 182.2578125 336.99609375 c 132,-1,49
 137.815429688 296.64453125 137.815429688 296.64453125 137.815429688 213.611328125 c 4,50,51
 137.815429688 136.788085938 137.815429688 136.788085938 178.794921875 97.98828125 c 132,-1,52
 219.7734375 59.1884765625 219.7734375 59.1884765625 304.041015625 59.1884765625 c 4,39,40
300.001953125 157 m 4,53,54
 270.7421875 157 270.7421875 157 253.032226562 173.25 c 132,-1,55
 235.322265625 189.5 235.322265625 189.5 235.322265625 216.799804688 c 4,56,57
 235.322265625 241.5 235.322265625 241.5 250.72265625 262.950195312 c 132,-1,58
 266.122070312 284.400390625 266.122070312 284.400390625 300.001953125 284.400390625 c 4,59,60
 335.421875 284.400390625 335.421875 284.400390625 353.90234375 264.25 c 132,-1,61
 372.381835938 244.100585938 372.381835938 244.100585938 372.381835938 216.799804688 c 4,62,63
 372.381835938 186.900390625 372.381835938 186.900390625 351.592773438 171.950195312 c 132,-1,64
 330.801757812 157 330.801757812 157 300.001953125 157 c 4,53,54
272.282226562 224.600585938 m 4,65,66
 273.822265625 238.900390625 273.822265625 238.900390625 279.981445312 250.600585938 c 132,-1,67
 286.142578125 262.299804688 286.142578125 262.299804688 278.442382812 262.299804688 c 4,68,69
 267.663085938 262.299804688 267.663085938 262.299804688 260.731445312 243.450195312 c 132,-1,70
 253.801757812 224.600585938 253.801757812 224.600585938 253.801757812 210.299804688 c 4,71,72
 253.801757812 197.299804688 253.801757812 197.299804688 261.501953125 197.299804688 c 4,73,74
 267.663085938 197.299804688 267.663085938 197.299804688 269.202148438 207.049804688 c 132,-1,75
 270.7421875 216.799804688 270.7421875 216.799804688 272.282226562 224.600585938 c 4,65,66
EndSplineSet
EndChar

StartChar: E
Encoding: 69 69 44
Width: 600
VWidth: 1000
GlyphClass: 2
Flags: W
LayerCount: 2
Fore
SplineSet
385.5 20 m 6,0,1
 219 20 219 20 130.5 94 c 4,2,3
 43 168 43 168 42.5 311 c 260,4,5
 43 454 43 454 129.5 528 c 132,-1,6
 216 602 216 602 385.5 602 c 6,7,-1
 557.5 602 l 5,8,-1
 557.5 531 l 5,9,-1
 373.5 531 l 6,10,11
 139 531 139 531 116.5 347 c 5,12,-1
 557.5 347 l 5,13,-1
 557.5 276 l 5,14,-1
 116.5 276 l 5,15,16
 127 185 127 185 192.5 138 c 4,17,18
 259 91 259 91 373.5 91 c 6,19,-1
 557.5 91 l 5,20,-1
 557.5 20 l 5,21,-1
 385.5 20 l 6,0,1
EndSplineSet
EndChar

StartChar: F
Encoding: 70 70 45
Width: 600
VWidth: 1000
GlyphClass: 2
Flags: W
LayerCount: 2
Fore
SplineSet
123 0 m 0,0,1
 96 0 96 0 78.5 9.5 c 128,-1,2
 61 19 61 19 61 49 c 2,3,-1
 61 543 l 2,4,5
 61 582 61 582 89.5 599.5 c 0,6,7
 118.209960938 617.12890625 118.209960938 617.12890625 163 617 c 2,8,-1
 510 616 l 2,9,10
 521 616 521 616 530 604.5 c 128,-1,11
 539 593 539 593 539 579 c 0,12,13
 539 572 539 572 537.5 561.5 c 128,-1,14
 536 551 536 551 533 541.5 c 128,-1,15
 530 532 530 532 525.5 525.5 c 128,-1,16
 520.986328125 518.98046875 520.986328125 518.98046875 515 519 c 2,17,-1
 201 520 l 2,18,19
 175 520 175 520 175 494 c 2,20,-1
 175 345 l 2,21,22
 175 335 175 335 181.5 330.5 c 128,-1,23
 188.150390625 325.895507812 188.150390625 325.895507812 198 326 c 2,24,-1
 481 329 l 2,25,26
 489 329 489 329 495 324 c 128,-1,27
 501 319 501 319 506 310.5 c 128,-1,28
 511 302 511 302 513.5 293 c 128,-1,29
 516 284 516 284 516 276 c 0,30,31
 516 236.40234375 516 236.40234375 478 236 c 2,32,-1
 195 233 l 2,33,34
 187 233 187 233 181 227 c 128,-1,35
 175 221 175 221 175 213 c 2,36,-1
 175 48 l 2,37,38
 175 32 175 32 170.5 22.5 c 128,-1,39
 166 13 166 13 158.5 8 c 128,-1,40
 151 3 151 3 141.5 1.5 c 128,-1,41
 132 0 132 0 123 0 c 0,0,1
111 26 m 0,42,43
 110 31 110 31 101.5 42 c 128,-1,44
 93 53 93 53 91 78 c 0,45,46
 89 91 89 91 85.5 94 c 128,-1,47
 82 97 82 97 80 97 c 256,48,49
 78 97 78 97 76.5 91 c 128,-1,50
 75 85 75 85 77 75 c 0,51,52
 77 70 77 70 79 60.5 c 128,-1,53
 81 51 81 51 84.5 41.5 c 128,-1,54
 88 32 88 32 93 25 c 128,-1,55
 98 18 98 18 105 19 c 0,56,57
 111 19 111 19 111 26 c 0,42,43
EndSplineSet
EndChar

StartChar: G
Encoding: 71 71 46
Width: 600
VWidth: 1000
GlyphClass: 2
Flags: W
LayerCount: 2
Fore
SplineSet
470.268554688 650.599609375 m 0,0,1
 443.668945312 650.599609375 443.668945312 650.599609375 427.568359375 666.849609375 c 128,-1,2
 411.46875 683.099609375 411.46875 683.099609375 411.46875 710.399414062 c 0,3,4
 411.46875 735.099609375 411.46875 735.099609375 425.46875 756.549804688 c 128,-1,5
 439.46875 778 439.46875 778 470.268554688 778 c 0,6,7
 502.46875 778 502.46875 778 519.268554688 757.849609375 c 128,-1,8
 536.068359375 737.700195312 536.068359375 737.700195312 536.068359375 710.399414062 c 0,9,10
 536.068359375 680.5 536.068359375 680.5 517.168945312 665.549804688 c 128,-1,11
 498.268554688 650.599609375 498.268554688 650.599609375 470.268554688 650.599609375 c 0,0,1
445.068359375 718.200195312 m 0,12,13
 446.46875 732.5 446.46875 732.5 452.068359375 744.200195312 c 128,-1,14
 457.668945312 755.899414062 457.668945312 755.899414062 450.668945312 755.899414062 c 0,15,16
 440.869140625 755.899414062 440.869140625 755.899414062 434.568359375 737.049804688 c 128,-1,17
 428.268554688 718.200195312 428.268554688 718.200195312 428.268554688 703.899414062 c 0,18,19
 428.268554688 690.899414062 428.268554688 690.899414062 435.268554688 690.899414062 c 0,20,21
 440.869140625 690.899414062 440.869140625 690.899414062 442.268554688 700.649414062 c 128,-1,22
 443.668945312 710.399414062 443.668945312 710.399414062 445.068359375 718.200195312 c 0,12,13
313.0546875 -5 m 0,23,24
 226.268554688 -5 226.268554688 -5 182.0546875 28 c 0,25,26
 138.268554688 61 138.268554688 61 112.0546875 111 c 0,27,28
 96.142578125 142.1953125 96.142578125 142.1953125 75.0546875 219 c 0,29,30
 66.2685546875 251 66.2685546875 251 64.0546875 328 c 0,31,32
 62.634765625 361.112304688 62.634765625 361.112304688 77.5546875 437.5 c 0,33,34
 87.2685546875 487 87.2685546875 487 116.0546875 532.5 c 0,35,36
 142.268554688 574 142.268554688 574 186.5546875 599.5 c 0,37,38
 230.268554688 625 230.268554688 625 314.0546875 625 c 0,39,40
 345.268554688 625 345.268554688 625 373.5546875 616.5 c 0,41,42
 401.268554688 608 401.268554688 608 424.0546875 589.5 c 0,43,44
 447.268554688 569 447.268554688 569 459.0546875 540.5 c 0,45,46
 473.268554688 506 473.268554688 506 472.0546875 466 c 0,47,48
 471.268554688 450 471.268554688 450 465.5546875 440.5 c 0,49,50
 459.268554688 431 459.268554688 431 449.5546875 425.5 c 0,51,52
 439.268554688 420 439.268554688 420 430.0546875 418.5 c 0,53,54
 419.268554688 417 419.268554688 417 414.0546875 417 c 0,55,56
 399.268554688 417 399.268554688 417 387.5546875 427 c 0,57,58
 375.268554688 437 375.268554688 437 375.0546875 466 c 0,59,60
 375.268554688 511 375.268554688 511 354.5546875 529 c 0,61,62
 333.268554688 547 333.268554688 547 299.0546875 547 c 0,63,64
 264.268554688 547 264.268554688 547 246.5546875 530.5 c 0,65,66
 228.268554688 514 228.268554688 514 214.0546875 483.5 c 0,67,68
 198.268554688 449 198.268554688 449 192.0546875 410 c 0,69,70
 183.268554688 360 183.268554688 360 184.0546875 314 c 0,71,72
 184.268554688 285 184.268554688 285 187.5546875 245 c 0,73,74
 190.268554688 210 190.268554688 210 203.0546875 169 c 0,75,76
 214.268554688 133 214.268554688 133 237.0546875 107.5 c 0,77,78
 258.268554688 82 258.268554688 82 315.0546875 82 c 0,79,80
 343.268554688 82 343.268554688 82 360.5546875 96.5 c 0,81,82
 377.268554688 111 377.268554688 111 384.5546875 132 c 0,83,84
 391.268554688 153 391.268554688 153 393.5546875 175.5 c 0,85,86
 395.268554688 198 395.268554688 198 394.0546875 214 c 256,87,88
 393.268554688 230 393.268554688 230 380.5546875 231.5 c 0,89,90
 368.268554688 233 368.268554688 233 345.0546875 233 c 2,91,-1
 294.0546875 233 l 2,92,93
 287.268554688 233 287.268554688 233 283.0546875 239 c 0,94,95
 277.268554688 245 277.268554688 245 265.0546875 253.5 c 0,96,97
 252.268554688 262 252.268554688 262 250.0546875 271 c 0,98,99
 247.268554688 284 247.268554688 284 248.0546875 286 c 0,100,101
 263.268554688 300 263.268554688 300 278.0546875 314.5 c 0,102,103
 289.456054688 327.208984375 289.456054688 327.208984375 312.0546875 327 c 2,104,-1
 420.0546875 326 l 2,105,106
 452.268554688 326 452.268554688 326 476.0546875 306 c 0,107,108
 501.268554688 286 501.268554688 286 501.0546875 249 c 0,109,110
 501.268554688 206 501.268554688 206 491.5546875 161 c 0,111,112
 480.268554688 112 480.268554688 112 460.0546875 79 c 0,113,114
 437.268554688 42 437.268554688 42 402.0546875 18.5 c 0,115,116
 365.268554688 -5 365.268554688 -5 313.0546875 -5 c 0,23,24
198.0546875 58 m 128,-1,118
 198.5546875 64 198.5546875 64 178.0546875 84 c 0,119,120
 168.5546875 93 168.5546875 93 160.0546875 106.5 c 0,121,122
 150.5546875 120 150.5546875 120 143.5546875 133 c 128,-1,123
 136.5546875 146 136.5546875 146 131.5546875 157.5 c 128,-1,124
 126.5546875 169 126.5546875 169 127.0546875 173 c 0,125,126
 126.5546875 178 126.5546875 178 124.0546875 179.5 c 0,127,128
 120.5546875 181 120.5546875 181 120.0546875 181 c 0,129,130
 112.5546875 181 112.5546875 181 112.0546875 170 c 256,131,132
 112.5546875 159 112.5546875 159 121.0546875 139 c 0,133,134
 130.5546875 119 130.5546875 119 142.5546875 99.5 c 128,-1,135
 154.5546875 80 154.5546875 80 168.5546875 66 c 128,-1,136
 182.5546875 52 182.5546875 52 192.0546875 52 c 0,137,117
 197.5546875 52 197.5546875 52 198.0546875 58 c 128,-1,118
221.0546875 45 m 0,138,139
 220.5546875 52 220.5546875 52 214.0546875 52 c 0,140,141
 210.5546875 52 210.5546875 52 208.5546875 49 c 128,-1,142
 206.5546875 46 206.5546875 46 207.0546875 44 c 0,143,144
 206.5546875 39 206.5546875 39 209.5546875 38 c 128,-1,145
 212.5546875 37 212.5546875 37 214.0546875 37 c 0,146,147
 221.5546875 37 221.5546875 37 221.0546875 45 c 0,138,139
EndSplineSet
EndChar

StartChar: H
Encoding: 72 72 47
Width: 600
VWidth: 1000
GlyphClass: 2
Flags: W
LayerCount: 2
Fore
SplineSet
349 556.599609375 m 0
 322.400390625 556.599609375 322.400390625 556.599609375 306.299804688 572.849609375 c 0
 290.200195312 589.099609375 290.200195312 589.099609375 290.200195312 616.399414062 c 0
 290.200195312 641.099609375 290.200195312 641.099609375 304.200195312 662.549804688 c 0
 318.200195312 684 318.200195312 684 349 684 c 0
 381.200195312 684 381.200195312 684 398 663.849609375 c 0
 414.799804688 643.700195312 414.799804688 643.700195312 414.799804688 616.399414062 c 0
 414.799804688 586.5 414.799804688 586.5 395.900390625 571.549804688 c 0
 377 556.599609375 377 556.599609375 349 556.599609375 c 0
323.799804688 624.200195312 m 0
 325.200195312 638.5 325.200195312 638.5 330.799804688 650.200195312 c 0
 336.400390625 661.899414062 336.400390625 661.899414062 329.400390625 661.899414062 c 0
 319.600585938 661.899414062 319.600585938 661.899414062 313.299804688 643.049804688 c 0
 307 624.200195312 307 624.200195312 307 609.899414062 c 0
 307 596.899414062 307 596.899414062 314 596.899414062 c 0
 319.600585938 596.899414062 319.600585938 596.899414062 321 606.649414062 c 0
 322.400390625 616.399414062 322.400390625 616.399414062 323.799804688 624.200195312 c 0
EndSplineSet
Refer: 77 104 N 1 0 0 1 0 0 2
EndChar

StartChar: I
Encoding: 73 73 48
Width: 600
VWidth: 1000
GlyphClass: 2
Flags: W
LayerCount: 2
Fore
SplineSet
81 448 m 1,0,-1
 264 790 l 1,1,-1
 314 790 l 1,2,-1
 510 448 l 1,3,-1
 432 448 l 1,4,-1
 290 697 l 1,5,-1
 159 448 l 1,6,-1
 81 448 l 1,0,-1
70 0 m 1,7,-1
 70 60 l 1,8,-1
 261 75 l 1,9,-1
 261 526 l 1,10,-1
 351 526 l 1,11,-1
 351 75 l 1,12,-1
 530 60 l 1,13,-1
 530 0 l 1,14,-1
 70 0 l 1,7,-1
EndSplineSet
EndChar

StartChar: J
Encoding: 74 74 49
Width: 600
VWidth: 1000
GlyphClass: 2
Flags: W
LayerCount: 2
Fore
SplineSet
253 4 m 0,0,1
 290.5 2 290.5 2 317.5 22.5 c 0,2,3
 337.418945312 39.099609375 337.418945312 39.099609375 348 67.5 c 0,4,5
 357.5 93 357.5 93 359 130 c 128,-1,6
 360.5 167 360.5 167 360.5 206 c 2,7,-1
 360.5 541 l 1,8,-1
 520.5 541 l 2,9,10
 542.5 541 542.5 541 550.5 552 c 128,-1,11
 558.5 563 558.5 563 558.5 580 c 256,12,13
 558.5 597 558.5 597 552 607 c 128,-1,14
 545.5 617 545.5 617 520.5 617 c 2,15,-1
 74.5 617 l 2,16,17
 56.5 617 56.5 617 49 608.5 c 128,-1,18
 41.5 600 41.5 600 41.5 586 c 0,19,20
 41.5 566 41.5 566 48 553.5 c 128,-1,21
 54.5 541 54.5 541 70.5 541 c 2,22,-1
 257.5 541 l 1,23,-1
 257.5 156 l 2,24,25
 257.5 119 257.5 119 255 96 c 128,-1,26
 252.5 73 252.5 73 241.5 73 c 2,27,-1
 233.5 73 l 1,28,-1
 150.5 71 l 0,29,30
 141.5 56 141.5 56 142.5 4 c 0,31,-1
 253 4 l 0,0,1
538.5 587 m 0,32,33
 538.5 592 538.5 592 537 598.5 c 128,-1,34
 535.5 605 535.5 605 537.5 605 c 0,35,36
 542.5 605 542.5 605 546 597.5 c 128,-1,37
 549.5 590 549.5 590 549.5 579 c 0,38,39
 549.5 572 549.5 572 547 564.5 c 128,-1,40
 544.5 557 544.5 557 539.5 557 c 256,41,42
 534.5 557 534.5 557 536.5 567.5 c 128,-1,43
 538.5 578 538.5 578 538.5 587 c 0,32,33
312.053710938 33.8388671875 m 0,44,-1
 285.5 42 l 0,45,46
 278.5 45 278.5 45 267.680664062 52.5595703125 c 0,47,48
 260.5 58 260.5 58 256.821289062 63.1533203125 c 0,49,50
 253.5 69 253.5 69 255.337890625 71.267578125 c 0,51,52
 257.5 77 257.5 77 267.341796875 72.251953125 c 0,53,54
 281.5 66 281.5 66 281.822265625 65.6904296875 c 0,55,56
 295.5 60 295.5 60 297.5 60 c 0,57,58
 310.5 55 l 0,59,60
 320.5 55 320.5 55 325.138671875 47.486328125 c 0,61,62
 328.5 42 328.5 42 327.861328125 35.599609375 c 0,63,64
 327.5 32 327.5 32 320.825195312 32.7421875 c 0,65,66
 314.5 33 314.5 33 312.053710938 33.8388671875 c 0,44,-1
EndSplineSet
EndChar

StartChar: K
Encoding: 75 75 50
Width: 600
VWidth: 1000
GlyphClass: 2
Flags: W
LayerCount: 2
Fore
SplineSet
157 0 m 0,0,1
 136 0 136 0 126 11 c 128,-1,2
 116 22 116 22 112.5 38.5 c 128,-1,3
 109 55 109 55 109 73 c 128,-1,4
 109 91 109 91 109 105 c 2,5,-1
 109 204 l 1,6,-1
 108 402 l 1,7,-1
 108 501 l 2,8,9
 108 533 108 533 110 554 c 128,-1,10
 112 575 112 575 118 590 c 128,-1,11
 124 605 124 605 135.5 613 c 128,-1,12
 147 621 147 621 167 621 c 0,13,14
 190 621 190 621 207.5 602.5 c 128,-1,15
 225 584 225 584 225 554 c 0,16,17
 225 549 225 549 224.5 533 c 128,-1,18
 224 517 224 517 224 493.5 c 128,-1,19
 224 470 224 470 224 446.5 c 128,-1,20
 224 423 224 423 224 403.5 c 128,-1,21
 224 384 224 384 225.5 371 c 128,-1,22
 227 358 227 358 229 358 c 0,23,24
 233 358 233 358 245 377 c 128,-1,25
 257 396 257 396 273 425 c 128,-1,26
 289 454 289 454 308 487 c 128,-1,27
 327 520 327 520 346 549 c 128,-1,28
 365 578 365 578 381.5 597 c 128,-1,29
 398 616 398 616 409 616 c 0,30,31
 418 616 418 616 429 613 c 128,-1,32
 440 610 440 610 449 604 c 128,-1,33
 458 598 458 598 464 589 c 128,-1,34
 470 580 470 580 470 567 c 0,35,36
 470 559 470 559 459 538.5 c 128,-1,37
 448 518 448 518 432 492 c 128,-1,38
 416 466 416 466 396.5 437.5 c 128,-1,39
 377 409 377 409 361 385 c 128,-1,40
 345 361 345 361 334 344 c 128,-1,41
 323 327 323 327 323 324 c 0,42,43
 323 320 323 320 335.5 300.5 c 128,-1,44
 348 281 348 281 367 253.5 c 128,-1,45
 386 226 386 226 407.5 194 c 128,-1,46
 429 162 429 162 448 133 c 128,-1,47
 467 104 467 104 479.5 81 c 128,-1,48
 492 58 492 58 492 48 c 0,49,50
 492 35 492 35 483.5 26 c 128,-1,51
 475 17 475 17 463 11 c 128,-1,52
 451 5 451 5 439 2 c 128,-1,53
 427 -1 427 -1 419 -1 c 0,54,55
 405 -1 405 -1 390 18 c 0,56,57
 371 41 371 41 363 57 c 0,58,59
 359 65 359 65 345 87.5 c 128,-1,60
 331 110 331 110 315 136 c 0,61,62
 289 179 289 179 283 186 c 0,63,64
 266 210 266 210 258 223 c 0,65,66
 255 228 255 228 250 228 c 0,67,68
 246 229 246 229 241 223 c 2,69,-1
 231 210 l 2,70,71
 223 200 223 200 223 178 c 2,72,-1
 223 155 l 1,73,-1
 224 125 l 1,74,-1
 224 102 l 2,75,76
 224 51 224 51 208 25.5 c 128,-1,77
 192 0 192 0 157 0 c 0,0,1
127 566 m 0,78,79
 132 565 132 565 137 568.5 c 128,-1,80
 142 572 142 572 146.5 577.5 c 128,-1,81
 151 583 151 583 154.5 589 c 128,-1,82
 158 595 158 595 159 599 c 0,83,84
 160 602 160 602 157 604.5 c 128,-1,85
 154 607 154 607 151 607 c 0,86,87
 147 607 147 607 142.5 602.5 c 128,-1,88
 138 598 138 598 133.5 591.5 c 128,-1,89
 129 585 129 585 126.5 579 c 128,-1,90
 124 573 124 573 124 570 c 0,91,92
 124 566 124 566 127 566 c 0,78,79
383 558 m 0,93,94
 386 558 386 558 391.5 562.5 c 128,-1,95
 397 567 397 567 402 573.5 c 128,-1,96
 407 580 407 580 410.5 586.5 c 128,-1,97
 414 593 414 593 413 597 c 0,98,99
 413 601 413 601 409 601 c 0,100,101
 406 602 406 602 400 597.5 c 128,-1,102
 394 593 394 593 388.5 586.5 c 128,-1,103
 383 580 383 580 379 573.5 c 128,-1,104
 375 567 375 567 376 564 c 0,105,106
 378 559 378 559 383 558 c 0,93,94
142 81 m 0,107,108
 142 85 142 85 142 97.5 c 128,-1,109
 142 110 142 110 141 123.5 c 128,-1,110
 140 137 140 137 138 147.5 c 128,-1,111
 136 158 136 158 132 158 c 0,112,113
 129 158 129 158 126.5 153 c 128,-1,114
 124 148 124 148 123 141 c 128,-1,115
 122 134 122 134 121.5 127.5 c 128,-1,116
 121 121 121 121 121 119 c 0,117,118
 121 115 121 115 121 104.5 c 128,-1,119
 121 94 121 94 122.5 83 c 128,-1,120
 124 72 124 72 127 63 c 128,-1,121
 130 54 130 54 136 54 c 0,122,123
 138 54 138 54 139.5 58 c 128,-1,124
 141 62 141 62 141.5 66.5 c 128,-1,125
 142 71 142 71 142 75.5 c 128,-1,126
 142 80 142 80 142 81 c 0,107,108
422 21 m 0,127,128
 422 24 422 24 419 30.5 c 128,-1,129
 416 37 416 37 411.5 43 c 128,-1,130
 407 49 407 49 402 54 c 128,-1,131
 397 59 397 59 394 59 c 0,132,133
 392 59 392 59 391 55.5 c 128,-1,134
 390 52 390 52 390 50 c 0,135,136
 390 47 390 47 392.5 41 c 128,-1,137
 395 35 395 35 398.5 29 c 128,-1,138
 402 23 402 23 407 19 c 128,-1,139
 412 15 412 15 416 15 c 0,140,141
 422 15 422 15 422 21 c 0,127,128
151 31 m 0,142,143
 153 36 153 36 149 41 c 128,-1,144
 145 46 145 46 140 46 c 0,145,146
 134 46 134 46 130.5 41 c 128,-1,147
 127 36 127 36 129 31 c 0,148,149
 133 21 133 21 140 21 c 256,150,151
 147 21 147 21 151 31 c 0,142,143
EndSplineSet
EndChar

StartChar: L
Encoding: 76 76 51
Width: 600
GlyphClass: 2
Flags: W
LayerCount: 2
Fore
SplineSet
30 564 m 5,0,-1
 30 637 l 5,1,-1
 575.400390625 637 l 5,2,-1
 575.400390625 564 l 5,3,-1
 525.900390625 564 l 5,4,-1
 525.900390625 0 l 5,5,-1
 451.200195312 0 l 5,6,-1
 451.200195312 388 l 5,7,-1
 491.700195312 355 l 5,8,9
 477.299804688 362 477.299804688 362 464.25 364.5 c 132,-1,10
 451.200195312 367 451.200195312 367 440.400390625 367 c 4,11,12
 408.900390625 367 408.900390625 367 384.150390625 351 c 132,-1,13
 359.400390625 335 359.400390625 335 342.299804688 298 c 132,-1,14
 325.200195312 261 325.200195312 261 315.299804688 198 c 5,15,-1
 241.5 222 l 5,16,17
 254.099609375 330 254.099609375 330 305.400390625 384 c 132,-1,18
 356.700195312 438 356.700195312 438 440.400390625 438 c 4,19,20
 458.400390625 438 458.400390625 438 474.150390625 435 c 132,-1,21
 489.900390625 432 489.900390625 432 500.700195312 428 c 5,22,-1
 504.299804688 406 l 5,23,-1
 451.200195312 425 l 5,24,-1
 451.200195312 564 l 5,25,-1
 30 564 l 5,0,-1
289.200195312 311 m 5,26,27
 273.900390625 336 273.900390625 336 249.599609375 351.5 c 132,-1,28
 225.299804688 367 225.299804688 367 192 367 c 4,29,30
 148.799804688 367 148.799804688 367 124.049804688 337.5 c 132,-1,31
 99.2998046875 308 99.2998046875 308 99.2998046875 260 c 4,32,33
 99.2998046875 202 99.2998046875 202 138 152.5 c 132,-1,34
 176.700195312 103 176.700195312 103 261.299804688 49 c 5,35,-1
 218.099609375 -14 l 5,36,37
 128.099609375 45 128.099609375 45 76.349609375 113 c 132,-1,38
 24.599609375 181 24.599609375 181 24.599609375 268 c 4,39,40
 24.599609375 353 24.599609375 353 69.599609375 396.5 c 132,-1,41
 114.599609375 440 114.599609375 440 184.799804688 440 c 4,42,43
 230.700195312 440 230.700195312 440 264.900390625 421 c 132,-1,44
 299.099609375 402 299.099609375 402 324.299804688 372 c 5,45,-1
 289.200195312 311 l 5,26,27
EndSplineSet
EndChar

StartChar: M
Encoding: 77 77 52
Width: 600
VWidth: 1000
GlyphClass: 2
Flags: W
LayerCount: 2
Fore
SplineSet
322.08984375 595.75 m 4,0,1
 284.490234375 595.75 284.490234375 595.75 257.69921875 623.469726562 c 132,-1,2
 230.91015625 651.190429688 230.91015625 651.190429688 230.91015625 694.75 c 4,3,4
 230.91015625 718.509765625 230.91015625 718.509765625 238.900390625 739.794921875 c 132,-1,5
 246.890625 761.080078125 246.890625 761.080078125 260.990234375 776.424804688 c 132,-1,6
 275.08984375 791.76953125 275.08984375 791.76953125 294.830078125 801.174804688 c 132,-1,7
 314.5703125 810.580078125 314.5703125 810.580078125 338.0703125 810.580078125 c 4,8,9
 356.869140625 810.580078125 356.869140625 810.580078125 372.849609375 802.165039062 c 132,-1,10
 388.830078125 793.75 388.830078125 793.75 400.109375 778.900390625 c 132,-1,11
 411.390625 764.049804688 411.390625 764.049804688 417.5 745.240234375 c 132,-1,12
 423.609375 726.4296875 423.609375 726.4296875 423.609375 705.639648438 c 4,13,14
 423.609375 678.91015625 423.609375 678.91015625 415.619140625 658.615234375 c 132,-1,15
 407.630859375 638.3203125 407.630859375 638.3203125 393.529296875 624.459960938 c 132,-1,16
 379.4296875 610.599609375 379.4296875 610.599609375 361.099609375 603.174804688 c 132,-1,17
 342.76953125 595.75 342.76953125 595.75 322.08984375 595.75 c 4,0,1
287.310546875 767.01953125 m 4,18,19
 293.890625 773.950195312 293.890625 773.950195312 295.30078125 778.900390625 c 132,-1,20
 296.7109375 783.849609375 296.7109375 783.849609375 294.830078125 783.849609375 c 4,21,22
 287.310546875 783.849609375 287.310546875 783.849609375 278.849609375 776.424804688 c 132,-1,23
 270.390625 769 270.390625 769 263.33984375 758.60546875 c 132,-1,24
 256.291015625 748.209960938 256.291015625 748.209960938 251.58984375 736.330078125 c 132,-1,25
 246.890625 724.450195312 246.890625 724.450195312 246.890625 714.549804688 c 4,26,27
 246.890625 712.5703125 246.890625 712.5703125 248.30078125 706.629882812 c 132,-1,28
 249.7109375 700.690429688 249.7109375 700.690429688 252.529296875 700.690429688 c 4,29,30
 256.291015625 700.690429688 256.291015625 700.690429688 261.9296875 722.469726562 c 4,31,32
 264.75 736.330078125 264.75 736.330078125 272.26953125 747.71484375 c 132,-1,33
 279.791015625 759.099609375 279.791015625 759.099609375 287.310546875 767.01953125 c 4,18,19
325.849609375 652.1796875 m 4,34,35
 337.130859375 652.1796875 337.130859375 652.1796875 352.640625 666.040039062 c 132,-1,36
 368.150390625 679.900390625 368.150390625 679.900390625 368.150390625 705.639648438 c 4,37,38
 368.150390625 725.440429688 368.150390625 725.440429688 358.279296875 738.8046875 c 132,-1,39
 348.41015625 752.169921875 348.41015625 752.169921875 332.4296875 752.169921875 c 260,40,41
 316.44921875 752.169921875 316.44921875 752.169921875 303.291015625 738.8046875 c 132,-1,42
 290.130859375 725.440429688 290.130859375 725.440429688 290.130859375 701.6796875 c 260,43,44
 290.130859375 677.919921875 290.130859375 677.919921875 300.470703125 665.049804688 c 132,-1,45
 310.810546875 652.1796875 310.810546875 652.1796875 325.849609375 652.1796875 c 4,34,35
88.970703125 2.740234375 m 0,46,47
 74.869140625 2.740234375 74.869140625 2.740234375 66.41015625 8.1845703125 c 128,-1,48
 57.94921875 13.6298828125 57.94921875 13.6298828125 53.720703125 22.5400390625 c 128,-1,49
 49.490234375 31.4501953125 49.490234375 31.4501953125 48.080078125 42.8349609375 c 128,-1,50
 46.669921875 54.2197265625 46.669921875 54.2197265625 46.669921875 67.08984375 c 2,51,-1
 46.669921875 493.780273438 l 2,52,53
 46.669921875 504.669921875 46.669921875 504.669921875 47.140625 517.540039062 c 128,-1,54
 47.609375 530.41015625 47.609375 530.41015625 51.369140625 541.299804688 c 128,-1,55
 55.130859375 552.190429688 55.130859375 552.190429688 63.58984375 559.615234375 c 128,-1,56
 72.05078125 567.040039062 72.05078125 567.040039062 87.08984375 567.040039062 c 0,57,58
 105.890625 567.040039062 105.890625 567.040039062 115.291015625 552.684570312 c 128,-1,59
 124.689453125 538.330078125 124.689453125 538.330078125 128.919921875 520.509765625 c 128,-1,60
 133.150390625 502.690429688 133.150390625 502.690429688 134.08984375 488.334960938 c 128,-1,61
 135.029296875 473.98046875 135.029296875 473.98046875 136.91015625 473.98046875 c 256,62,63
 138.791015625 473.98046875 138.791015625 473.98046875 142.55078125 489.325195312 c 128,-1,64
 146.310546875 504.669921875 146.310546875 504.669921875 156.1796875 522.490234375 c 128,-1,65
 166.05078125 540.309570312 166.05078125 540.309570312 183.91015625 555.655273438 c 128,-1,66
 201.76953125 571 201.76953125 571 232.791015625 571 c 0,67,68
 259.109375 571 259.109375 571 276.029296875 556.150390625 c 128,-1,69
 292.94921875 541.299804688 292.94921875 541.299804688 303.291015625 522.985351562 c 128,-1,70
 313.630859375 504.669921875 313.630859375 504.669921875 319.26953125 489.8203125 c 128,-1,71
 324.91015625 474.969726562 324.91015625 474.969726562 327.73046875 474.969726562 c 256,72,73
 330.55078125 474.969726562 330.55078125 474.969726562 335.720703125 489.8203125 c 128,-1,74
 340.890625 504.669921875 340.890625 504.669921875 351.23046875 522.985351562 c 128,-1,75
 361.5703125 541.299804688 361.5703125 541.299804688 379.900390625 556.150390625 c 128,-1,76
 398.23046875 571 398.23046875 571 428.310546875 571 c 0,77,78
 466.849609375 571 466.849609375 571 491.291015625 551.200195312 c 128,-1,79
 515.73046875 531.400390625 515.73046875 531.400390625 529.359375 496.254882812 c 128,-1,80
 542.990234375 461.110351562 542.990234375 461.110351562 548.16015625 413.094726562 c 128,-1,81
 553.330078125 365.080078125 553.330078125 365.080078125 553.330078125 309.639648438 c 2,82,-1
 553.330078125 29.4697265625 l 2,83,84
 553.330078125 15.6103515625 553.330078125 15.6103515625 535.470703125 9.1748046875 c 128,-1,85
 517.609375 2.740234375 517.609375 2.740234375 498.810546875 2.740234375 c 256,86,87
 480.009765625 2.740234375 480.009765625 2.740234375 469.669921875 8.1845703125 c 128,-1,88
 459.330078125 13.6298828125 459.330078125 13.6298828125 459.330078125 28.48046875 c 2,89,-1
 459.330078125 300.73046875 l 2,90,91
 459.330078125 312.610351562 459.330078125 312.610351562 459.330078125 340.825195312 c 128,-1,92
 459.330078125 369.040039062 459.330078125 369.040039062 455.099609375 398.740234375 c 128,-1,93
 450.869140625 428.440429688 450.869140625 428.440429688 441 450.71484375 c 128,-1,94
 431.130859375 472.990234375 431.130859375 472.990234375 411.390625 472.990234375 c 0,95,96
 394.470703125 472.990234375 394.470703125 472.990234375 383.66015625 459.129882812 c 128,-1,97
 372.849609375 445.26953125 372.849609375 445.26953125 366.26953125 421.014648438 c 128,-1,98
 359.689453125 396.759765625 359.689453125 396.759765625 356.400390625 362.60546875 c 128,-1,99
 353.109375 328.450195312 353.109375 328.450195312 351.23046875 286.870117188 c 0,100,101
 348.41015625 238.360351562 348.41015625 238.360351562 347.470703125 211.629882812 c 128,-1,102
 346.529296875 184.900390625 346.529296875 184.900390625 347 142.825195312 c 128,-1,103
 347.470703125 100.75 347.470703125 100.75 347.939453125 71.544921875 c 128,-1,104
 348.41015625 42.33984375 348.41015625 42.33984375 348.41015625 33.4296875 c 0,105,106
 348.41015625 19.5703125 348.41015625 19.5703125 332.900390625 11.1552734375 c 128,-1,107
 317.390625 2.740234375 317.390625 2.740234375 294.830078125 2.740234375 c 256,108,109
 272.26953125 2.740234375 272.26953125 2.740234375 262.869140625 9.669921875 c 128,-1,110
 253.470703125 16.599609375 253.470703125 16.599609375 253.470703125 40.3603515625 c 2,111,-1
 253.470703125 300.73046875 l 2,112,113
 253.470703125 311.620117188 253.470703125 311.620117188 253.470703125 340.330078125 c 128,-1,114
 253.470703125 369.040039062 253.470703125 369.040039062 249.7109375 398.740234375 c 128,-1,115
 245.94921875 428.440429688 245.94921875 428.440429688 236.55078125 451.209960938 c 128,-1,116
 227.150390625 473.98046875 227.150390625 473.98046875 208.349609375 473.98046875 c 0,117,118
 191.4296875 473.98046875 191.4296875 473.98046875 179.6796875 458.634765625 c 128,-1,119
 167.9296875 443.290039062 167.9296875 443.290039062 160.41015625 419.530273438 c 128,-1,120
 152.890625 395.76953125 152.890625 395.76953125 148.66015625 366.0703125 c 128,-1,121
 144.4296875 336.370117188 144.4296875 336.370117188 142.55078125 308.650390625 c 128,-1,122
 140.669921875 280.9296875 140.669921875 280.9296875 140.19921875 257.169921875 c 128,-1,123
 139.73046875 233.41015625 139.73046875 233.41015625 139.73046875 221.530273438 c 2,124,-1
 139.73046875 47.2900390625 l 2,125,126
 139.73046875 28.48046875 139.73046875 28.48046875 124.689453125 15.6103515625 c 128,-1,127
 109.650390625 2.740234375 109.650390625 2.740234375 88.970703125 2.740234375 c 0,46,47
69.23046875 473.98046875 m 0,128,129
 74.869140625 474.969726562 74.869140625 474.969726562 75.33984375 485.365234375 c 128,-1,130
 75.810546875 495.759765625 75.810546875 495.759765625 75.810546875 503.6796875 c 0,131,132
 75.810546875 510.610351562 75.810546875 510.610351562 77.689453125 519.025390625 c 128,-1,133
 79.5703125 527.440429688 79.5703125 527.440429688 80.98046875 534.370117188 c 128,-1,134
 82.390625 541.299804688 82.390625 541.299804688 82.390625 546.25 c 128,-1,135
 82.390625 551.200195312 82.390625 551.200195312 78.630859375 551.200195312 c 0,136,137
 72.05078125 551.200195312 72.05078125 551.200195312 67.8203125 544.764648438 c 128,-1,138
 63.58984375 538.330078125 63.58984375 538.330078125 61.7109375 529.419921875 c 128,-1,139
 59.830078125 520.509765625 59.830078125 520.509765625 58.890625 512.58984375 c 128,-1,140
 57.94921875 504.669921875 57.94921875 504.669921875 57.94921875 501.700195312 c 0,141,142
 57.94921875 493.780273438 57.94921875 493.780273438 59.830078125 483.384765625 c 128,-1,143
 61.7109375 472.990234375 61.7109375 472.990234375 69.23046875 473.98046875 c 0,128,129
286.369140625 25.509765625 m 0,144,145
 286.369140625 35.41015625 286.369140625 35.41015625 280.259765625 38.875 c 128,-1,146
 274.150390625 42.33984375 274.150390625 42.33984375 274.150390625 53.23046875 c 0,147,148
 274.150390625 55.2099609375 274.150390625 55.2099609375 274.150390625 60.6552734375 c 128,-1,149
 274.150390625 66.099609375 274.150390625 66.099609375 273.6796875 71.544921875 c 128,-1,150
 273.2109375 76.990234375 273.2109375 76.990234375 271.330078125 81.4453125 c 128,-1,151
 269.44921875 85.900390625 269.44921875 85.900390625 266.630859375 85.900390625 c 0,152,153
 264.75 85.900390625 264.75 85.900390625 263.810546875 81.4453125 c 128,-1,154
 262.869140625 76.990234375 262.869140625 76.990234375 262.400390625 71.0498046875 c 128,-1,155
 261.9296875 65.1103515625 261.9296875 65.1103515625 261.9296875 59.6650390625 c 128,-1,156
 261.9296875 54.2197265625 261.9296875 54.2197265625 261.9296875 52.240234375 c 0,157,158
 261.9296875 40.3603515625 261.9296875 40.3603515625 265.220703125 26.9951171875 c 128,-1,159
 268.509765625 13.6298828125 268.509765625 13.6298828125 277.91015625 13.6298828125 c 0,160,161
 286.369140625 13.6298828125 286.369140625 13.6298828125 286.369140625 25.509765625 c 0,144,145
489.41015625 26.5 m 0,162,163
 489.41015625 36.400390625 489.41015625 36.400390625 484.240234375 43.8251953125 c 128,-1,164
 479.0703125 51.25 479.0703125 51.25 479.0703125 62.1396484375 c 0,165,166
 479.0703125 66.099609375 479.0703125 66.099609375 478.599609375 76 c 128,-1,167
 478.130859375 85.900390625 478.130859375 85.900390625 472.490234375 85.900390625 c 0,168,169
 467.791015625 85.900390625 467.791015625 85.900390625 467.3203125 75.009765625 c 128,-1,170
 466.849609375 64.1201171875 466.849609375 64.1201171875 466.849609375 61.150390625 c 256,171,172
 466.849609375 58.1796875 466.849609375 58.1796875 467.3203125 50.259765625 c 128,-1,173
 467.791015625 42.33984375 467.791015625 42.33984375 469.669921875 34.9150390625 c 128,-1,174
 471.55078125 27.490234375 471.55078125 27.490234375 474.369140625 21.5498046875 c 128,-1,175
 477.189453125 15.6103515625 477.189453125 15.6103515625 481.890625 15.6103515625 c 0,176,177
 485.650390625 15.6103515625 485.650390625 15.6103515625 487.529296875 20.0654296875 c 128,-1,178
 489.41015625 24.51953125 489.41015625 24.51953125 489.41015625 26.5 c 0,162,163
87.08984375 26.5 m 0,179,180
 87.08984375 37.3896484375 87.08984375 37.3896484375 82.859375 38.3798828125 c 128,-1,181
 78.630859375 39.3701171875 78.630859375 39.3701171875 73.9296875 46.2998046875 c 0,182,183
 72.990234375 48.2802734375 72.990234375 48.2802734375 72.51953125 53.724609375 c 128,-1,184
 72.05078125 59.169921875 72.05078125 59.169921875 72.05078125 64.615234375 c 128,-1,185
 72.05078125 70.0595703125 72.05078125 70.0595703125 70.640625 74.5146484375 c 128,-1,186
 69.23046875 78.9697265625 69.23046875 78.9697265625 66.41015625 78.9697265625 c 0,187,188
 61.7109375 78.9697265625 61.7109375 78.9697265625 61.240234375 69.5654296875 c 128,-1,189
 60.76953125 60.16015625 60.76953125 60.16015625 60.76953125 53.23046875 c 0,190,191
 60.76953125 49.26953125 60.76953125 49.26953125 61.7109375 43.330078125 c 128,-1,192
 62.650390625 37.3896484375 62.650390625 37.3896484375 65 31.4501953125 c 128,-1,193
 67.349609375 25.509765625 67.349609375 25.509765625 70.640625 21.0546875 c 128,-1,194
 73.9296875 16.599609375 73.9296875 16.599609375 78.630859375 16.599609375 c 0,195,196
 87.08984375 16.599609375 87.08984375 16.599609375 87.08984375 26.5 c 0,179,180
EndSplineSet
EndChar

StartChar: N
Encoding: 78 78 53
Width: 600
VWidth: 1000
GlyphClass: 2
Flags: W
LayerCount: 2
Fore
SplineSet
292.08984375 586.75 m 0,0,1
 254.490234375 586.75 254.490234375 586.75 227.69921875 614.469726562 c 128,-1,2
 200.91015625 642.190429688 200.91015625 642.190429688 200.91015625 685.75 c 0,3,4
 200.91015625 709.509765625 200.91015625 709.509765625 208.900390625 730.794921875 c 128,-1,5
 216.890625 752.080078125 216.890625 752.080078125 230.990234375 767.424804688 c 128,-1,6
 245.08984375 782.76953125 245.08984375 782.76953125 264.830078125 792.174804688 c 128,-1,7
 284.5703125 801.580078125 284.5703125 801.580078125 308.0703125 801.580078125 c 0,8,9
 326.869140625 801.580078125 326.869140625 801.580078125 342.849609375 793.165039062 c 128,-1,10
 358.830078125 784.75 358.830078125 784.75 370.109375 769.900390625 c 128,-1,11
 381.390625 755.049804688 381.390625 755.049804688 387.5 736.240234375 c 128,-1,12
 393.609375 717.4296875 393.609375 717.4296875 393.609375 696.639648438 c 0,13,14
 393.609375 669.91015625 393.609375 669.91015625 385.619140625 649.615234375 c 128,-1,15
 377.630859375 629.3203125 377.630859375 629.3203125 363.529296875 615.459960938 c 128,-1,16
 349.4296875 601.599609375 349.4296875 601.599609375 331.099609375 594.174804688 c 128,-1,17
 312.76953125 586.75 312.76953125 586.75 292.08984375 586.75 c 0,0,1
257.310546875 758.01953125 m 0,18,19
 263.890625 764.950195312 263.890625 764.950195312 265.30078125 769.900390625 c 128,-1,20
 266.7109375 774.849609375 266.7109375 774.849609375 264.830078125 774.849609375 c 0,21,22
 257.310546875 774.849609375 257.310546875 774.849609375 248.849609375 767.424804688 c 128,-1,23
 240.390625 760 240.390625 760 233.33984375 749.60546875 c 128,-1,24
 226.291015625 739.209960938 226.291015625 739.209960938 221.58984375 727.330078125 c 128,-1,25
 216.890625 715.450195312 216.890625 715.450195312 216.890625 705.549804688 c 0,26,27
 216.890625 703.5703125 216.890625 703.5703125 218.30078125 697.629882812 c 128,-1,28
 219.7109375 691.690429688 219.7109375 691.690429688 222.529296875 691.690429688 c 0,29,30
 226.291015625 691.690429688 226.291015625 691.690429688 231.9296875 713.469726562 c 0,31,32
 234.75 727.330078125 234.75 727.330078125 242.26953125 738.71484375 c 128,-1,33
 249.791015625 750.099609375 249.791015625 750.099609375 257.310546875 758.01953125 c 0,18,19
295.849609375 643.1796875 m 0,34,35
 307.130859375 643.1796875 307.130859375 643.1796875 322.640625 657.040039062 c 128,-1,36
 338.150390625 670.900390625 338.150390625 670.900390625 338.150390625 696.639648438 c 0,37,38
 338.150390625 716.440429688 338.150390625 716.440429688 328.279296875 729.8046875 c 128,-1,39
 318.41015625 743.169921875 318.41015625 743.169921875 302.4296875 743.169921875 c 256,40,41
 286.44921875 743.169921875 286.44921875 743.169921875 273.291015625 729.8046875 c 128,-1,42
 260.130859375 716.440429688 260.130859375 716.440429688 260.130859375 692.6796875 c 256,43,44
 260.130859375 668.919921875 260.130859375 668.919921875 270.470703125 656.049804688 c 128,-1,45
 280.810546875 643.1796875 280.810546875 643.1796875 295.849609375 643.1796875 c 0,34,35
46.5400390625 0 m 1,46,-1
 37.259765625 560 l 1,47,-1
 130.059570312 560 l 1,48,-1
 145.139648438 459 l 1,49,-1
 150.940429688 459 l 1,50,51
 170 490 170 490 199.080078125 509.5 c 128,-1,52
 228 529 228 529 268.099609375 538.5 c 0,53,54
 307 548 307 548 353.940429688 548 c 0,55,56
 448 548 448 548 505.3203125 502.5 c 0,57,58
 562.740234375 457.204913314 562.740234375 457.204913314 562.740234375 360 c 2,59,-1
 562.740234375 0 l 1,60,-1
 458.33984375 0 l 1,61,-1
 458.33984375 344 l 2,62,63
 458 397 458 397 426.440429688 430.5 c 0,64,65
 384 473 384 473 323.780273438 462 c 0,66,67
 209 441 209 441 189.799804688 410 c 0,68,69
 150.940429688 348.906345171 150.940429688 348.906345171 150.940429688 277 c 2,70,-1
 150.940429688 0 l 1,71,-1
 46.5400390625 0 l 1,46,-1
EndSplineSet
EndChar

StartChar: O
Encoding: 79 79 54
Width: 600
VWidth: 1000
GlyphClass: 2
Flags: W
LayerCount: 2
Fore
SplineSet
182.204101562 340.775390625 m 0,0,1
 170.09765625 345.23046875 170.09765625 345.23046875 162.182617188 354.139648438 c 128,-1,2
 154.267578125 363.049804688 154.267578125 363.049804688 151.939453125 372.950195312 c 128,-1,3
 149.611328125 382.849609375 149.611328125 382.849609375 152.87109375 393.245117188 c 0,4,5
 157.060546875 404.629882812 157.060546875 404.629882812 165.442382812 410.075195312 c 0,6,7
 170.09765625 412.549804688 170.09765625 412.549804688 177.08203125 415.025390625 c 0,8,9
 184.06640625 416.509765625 184.06640625 416.509765625 196.637695312 418.490234375 c 128,-1,10
 209.208984375 420.469726562 209.208984375 420.469726562 227.833007812 420.469726562 c 0,11,12
 283.704101562 420.469726562 283.704101562 420.469726562 312.571289062 420.96484375 c 0,13,14
 379.618164062 420.469726562 379.618164062 420.469726562 402.897460938 419.48046875 c 128,-1,15
 426.177734375 418.490234375 426.177734375 418.490234375 437.818359375 413.044921875 c 0,16,17
 449.458007812 408.58984375 449.458007812 408.58984375 452.250976562 399.184570312 c 0,18,19
 455.044921875 390.76953125 455.044921875 390.76953125 455.044921875 375.424804688 c 0,20,21
 455.044921875 363.049804688 455.044921875 363.049804688 449.923828125 356.120117188 c 128,-1,22
 444.801757812 349.190429688 444.801757812 349.190429688 431.764648438 344.240234375 c 128,-1,23
 418.728515625 339.290039062 418.728515625 339.290039062 396.379882812 337.8046875 c 0,24,25
 374.03125 335.330078125 374.03125 335.330078125 312.571289062 335.825195312 c 0,26,27
 239.9375 335.330078125 239.9375 335.330078125 213.3984375 337.309570312 c 128,-1,28
 186.859375 339.290039062 186.859375 339.290039062 182.204101562 340.775390625 c 0,0,1
189.653320312 401.165039062 m 0,29,30
 189.653320312 402.650390625 189.653320312 402.650390625 187.325195312 404.629882812 c 0,31,32
 185.928710938 405.620117188 185.928710938 405.620117188 181.272460938 403.14453125 c 128,-1,33
 176.616210938 400.669921875 176.616210938 400.669921875 174.2890625 391.264648438 c 0,34,35
 171.959960938 382.849609375 171.959960938 382.849609375 171.959960938 375.424804688 c 256,36,37
 171.959960938 368.990234375 171.959960938 368.990234375 173.822265625 368.495117188 c 0,38,39
 176.616210938 368.990234375 176.616210938 368.990234375 181.272460938 381.365234375 c 0,40,41
 186.859375 394.73046875 186.859375 394.73046875 186.859375 395.224609375 c 0,42,43
 189.653320312 397.700195312 189.653320312 397.700195312 189.653320312 401.165039062 c 0,29,30
180.340820312 181.384765625 m 0,44,45
 162.6484375 184.849609375 162.6484375 184.849609375 153.801757812 198.709960938 c 128,-1,46
 144.955078125 212.5703125 144.955078125 212.5703125 151.473632812 226.924804688 c 0,47,48
 156.129882812 236.330078125 156.129882812 236.330078125 163.11328125 240.78515625 c 0,49,50
 170.09765625 246.23046875 170.09765625 246.23046875 184.53125 248.209960938 c 0,51,52
 206.415039062 251.1796875 206.415039062 251.1796875 222.245117188 251.1796875 c 0,53,54
 281.841796875 251.1796875 281.841796875 251.1796875 331.661132812 251.674804688 c 128,-1,55
 381.48046875 252.169921875 381.48046875 252.169921875 405.2265625 250.190429688 c 128,-1,56
 428.971679688 248.209960938 428.971679688 248.209960938 442.008789062 245.240234375 c 128,-1,57
 455.044921875 242.26953125 455.044921875 242.26953125 460.166992188 235.33984375 c 128,-1,58
 465.2890625 228.41015625 465.2890625 228.41015625 465.2890625 218.014648438 c 0,59,60
 465.2890625 204.650390625 465.2890625 204.650390625 459.700195312 196.235351562 c 0,61,62
 454.11328125 186.830078125 454.11328125 186.830078125 439.680664062 182.375 c 0,63,64
 425.247070312 176.9296875 425.247070312 176.9296875 401.03515625 174.950195312 c 0,65,66
 366.581054688 171.98046875 366.581054688 171.98046875 313.502929688 172.474609375 c 0,67,68
 240.869140625 172.969726562 240.869140625 172.969726562 214.329101562 175.940429688 c 128,-1,69
 187.791015625 178.91015625 187.791015625 178.91015625 180.340820312 181.384765625 c 0,44,45
183.134765625 229.89453125 m 0,70,71
 183.134765625 232.370117188 183.134765625 232.370117188 180.340820312 232.865234375 c 256,72,73
 177.546875 232.370117188 177.546875 232.370117188 176.616210938 231.875 c 0,74,75
 174.75390625 230.389648438 174.75390625 230.389648438 171.959960938 226.4296875 c 128,-1,76
 169.166992188 222.469726562 169.166992188 222.469726562 169.166992188 215.044921875 c 0,77,78
 169.166992188 206.629882812 169.166992188 206.629882812 170.563476562 205.14453125 c 0,79,80
 171.959960938 204.650390625 171.959960938 204.650390625 176.616210938 209.10546875 c 0,81,82
 180.340820312 212.5703125 180.340820312 212.5703125 181.73828125 219.004882812 c 0,83,84
 183.134765625 224.450195312 183.134765625 224.450195312 183.134765625 229.89453125 c 0,70,71
297.672851562 -7.2099609375 m 0,85,86
 230.625976562 -7.2099609375 230.625976562 -7.2099609375 180.806640625 20.0146484375 c 128,-1,87
 130.987304688 47.240234375 130.987304688 47.240234375 98.3955078125 90.3046875 c 128,-1,88
 65.8037109375 133.370117188 65.8037109375 133.370117188 49.5068359375 186.830078125 c 128,-1,89
 33.2109375 240.290039062 33.2109375 240.290039062 33.2109375 293.75 c 0,90,91
 33.2109375 359.08984375 33.2109375 359.08984375 51.8359375 414.530273438 c 128,-1,92
 70.4599609375 469.969726562 70.4599609375 469.969726562 105.379882812 510.065429688 c 128,-1,93
 140.299804688 550.16015625 140.299804688 550.16015625 190.583984375 572.9296875 c 128,-1,94
 240.869140625 595.700195312 240.869140625 595.700195312 303.259765625 595.700195312 c 0,95,96
 360.994140625 595.700195312 360.994140625 595.700195312 409.416015625 573.424804688 c 128,-1,97
 457.837890625 551.150390625 457.837890625 551.150390625 492.758789062 512.044921875 c 128,-1,98
 527.678710938 472.940429688 527.678710938 472.940429688 547.233398438 418.985351562 c 128,-1,99
 566.7890625 365.030273438 566.7890625 365.030273438 566.7890625 302.66015625 c 0,100,101
 566.7890625 239.299804688 566.7890625 239.299804688 546.768554688 182.870117188 c 128,-1,102
 526.747070312 126.440429688 526.747070312 126.440429688 490.896484375 84.365234375 c 128,-1,103
 455.044921875 42.2900390625 455.044921875 42.2900390625 405.69140625 17.5400390625 c 128,-1,104
 356.337890625 -7.2099609375 356.337890625 -7.2099609375 297.672851562 -7.2099609375 c 0,85,86
299.53515625 69.01953125 m 0,105,106
 393.5859375 69.01953125 393.5859375 69.01953125 441.54296875 131.884765625 c 128,-1,107
 489.5 194.75 489.5 194.75 489.5 302.66015625 c 0,108,109
 489.5 346.219726562 489.5 346.219726562 476.928710938 386.315429688 c 128,-1,110
 464.357421875 426.41015625 464.357421875 426.41015625 440.146484375 457.099609375 c 128,-1,111
 415.935546875 487.790039062 415.935546875 487.790039062 381.48046875 506.10546875 c 128,-1,112
 347.026367188 524.419921875 347.026367188 524.419921875 303.259765625 524.419921875 c 0,113,114
 261.35546875 524.419921875 261.35546875 524.419921875 226.435546875 506.599609375 c 128,-1,115
 191.515625 488.780273438 191.515625 488.780273438 166.373046875 459.080078125 c 128,-1,116
 141.23046875 429.379882812 141.23046875 429.379882812 127.262695312 389.780273438 c 128,-1,117
 113.294921875 350.1796875 113.294921875 350.1796875 113.294921875 305.629882812 c 256,118,119
 113.294921875 261.080078125 113.294921875 261.080078125 125.866210938 218.509765625 c 128,-1,120
 138.4375 175.940429688 138.4375 175.940429688 162.182617188 142.775390625 c 128,-1,121
 185.928710938 109.610351562 185.928710938 109.610351562 220.3828125 89.3154296875 c 128,-1,122
 254.837890625 69.01953125 254.837890625 69.01953125 299.53515625 69.01953125 c 0,105,106
EndSplineSet
EndChar

StartChar: P
Encoding: 80 80 55
Width: 600
VWidth: 1000
GlyphClass: 2
Flags: W
LayerCount: 2
Fore
SplineSet
109.9375 -14 m 0,0,1
 89.9375 -14 89.9375 -14 72.9375 1 c 128,-1,2
 55.9375 16 55.9375 16 55.9375 69 c 2,3,-1
 55.9375 526 l 2,4,5
 55.9375 547 55.9375 547 64.4375 564 c 128,-1,6
 72.9375 581 72.9375 581 87.4375 592.5 c 128,-1,7
 101.9375 604 101.9375 604 120.4375 610 c 128,-1,8
 138.9375 616 138.9375 616 158.9375 616 c 2,9,-1
 340.9375 616 l 2,10,11
 371.9375 616 371.9375 616 407.4375 604 c 128,-1,12
 442.9375 592 442.9375 592 472.9375 566 c 128,-1,13
 502.9375 540 502.9375 540 522.9375 498 c 0,14,15
 548.9375 444 548.9375 444 542.9375 397 c 256,16,17
 541.9375 391 541.9375 391 523.4375 356.5 c 0,18,19
 490.9375 296 490.9375 296 474.9375 278.5 c 0,20,21
 445.9375 247 445.9375 247 411.9375 230.5 c 128,-1,22
 377.9375 214 377.9375 214 347.9375 214 c 2,23,-1
 195.9375 214 l 2,24,25
 186.9375 214 186.9375 214 178.4375 210 c 128,-1,26
 169.9375 206 169.9375 206 169.9375 132 c 2,27,-1
 169.9375 65 l 2,28,29
 169.9375 33 169.9375 33 164.4375 21 c 128,-1,30
 158.9375 9 158.9375 9 149.9375 1 c 128,-1,31
 140.9375 -7 140.9375 -7 130.4375 -10.5 c 128,-1,32
 119.9375 -14 119.9375 -14 109.9375 -14 c 0,0,1
336.9375 303 m 2,33,34
 353.9375 303 353.9375 303 369.9375 311 c 0,35,36
 393.9375 323 393.9375 323 399.4375 336.5 c 0,37,38
 416.9375 381 416.9375 381 420.9375 382 c 0,39,40
 428.9375 384 428.9375 384 428.9375 385 c 0,41,42
 428.9375 428 428.9375 428 420.9375 456.5 c 128,-1,43
 412.9375 485 412.9375 485 399.9375 501.5 c 128,-1,44
 386.9375 518 386.9375 518 370.9375 525 c 128,-1,45
 354.9375 532 354.9375 532 339.9375 532 c 2,46,-1
 194.9375 532 l 2,47,48
 169.9375 532 169.9375 532 169.9375 498 c 2,49,-1
 169.9375 326 l 2,50,51
 169.9375 303 169.9375 303 200.9375 303 c 2,52,-1
 336.9375 303 l 2,33,34
95.9375 21 m 256,53,54
 90.9375 26 90.9375 26 87.4375 39 c 128,-1,55
 83.9375 52 83.9375 52 83.9375 78.5 c 128,-1,56
 83.9375 105 83.9375 105 76.9375 105 c 0,57,58
 71.9375 105 71.9375 105 70.4375 96.5 c 128,-1,59
 68.9375 88 68.9375 88 68.9375 76 c 0,60,61
 68.9375 38 68.9375 38 75.9375 22 c 128,-1,62
 82.9375 6 82.9375 6 92.9375 6 c 0,63,64
 94.9375 6 94.9375 6 97.9375 8 c 128,-1,65
 100.9375 10 100.9375 10 100.9375 12 c 0,66,67
 100.9375 16 100.9375 16 95.9375 21 c 256,53,54
EndSplineSet
EndChar

StartChar: Q
Encoding: 81 81 56
Width: 600
VWidth: 1000
GlyphClass: 2
Flags: W
LayerCount: 2
Fore
SplineSet
251.61328125 647 m 4
 225.013671875 647 225.013671875 647 208.913085938 663.25 c 4
 192.813476562 679.5 192.813476562 679.5 192.813476562 706.799804688 c 4
 192.813476562 731.5 192.813476562 731.5 206.813476562 752.950195312 c 4
 220.813476562 774.400390625 220.813476562 774.400390625 251.61328125 774.400390625 c 4
 283.813476562 774.400390625 283.813476562 774.400390625 300.61328125 754.25 c 4
 317.413085938 734.100585938 317.413085938 734.100585938 317.413085938 706.799804688 c 4
 317.413085938 676.900390625 317.413085938 676.900390625 298.513671875 661.950195312 c 4
 279.61328125 647 279.61328125 647 251.61328125 647 c 4
226.413085938 714.600585938 m 4
 227.813476562 728.900390625 227.813476562 728.900390625 233.413085938 740.600585938 c 4
 239.013671875 752.299804688 239.013671875 752.299804688 232.013671875 752.299804688 c 4
 222.213867188 752.299804688 222.213867188 752.299804688 215.913085938 733.450195312 c 4
 209.61328125 714.600585938 209.61328125 714.600585938 209.61328125 700.299804688 c 4
 209.61328125 687.299804688 209.61328125 687.299804688 216.61328125 687.299804688 c 4
 222.213867188 687.299804688 222.213867188 687.299804688 223.61328125 697.049804688 c 4
 225.013671875 706.799804688 225.013671875 706.799804688 226.413085938 714.600585938 c 4
EndSplineSet
Refer: 86 113 N 1 0 0 1 -0.00029246 0 2
EndChar

StartChar: R
Encoding: 82 82 57
Width: 600
VWidth: 1000
GlyphClass: 2
Flags: W
LayerCount: 2
Fore
SplineSet
331 609 m 4,0,1
 304.400390625 609 304.400390625 609 288.299804688 625.25 c 132,-1,2
 272.200195312 641.5 272.200195312 641.5 272.200195312 668.799804688 c 4,3,4
 272.200195312 693.5 272.200195312 693.5 286.200195312 714.950195312 c 132,-1,5
 300.200195312 736.400390625 300.200195312 736.400390625 331 736.400390625 c 4,6,7
 363.200195312 736.400390625 363.200195312 736.400390625 380 716.25 c 132,-1,8
 396.799804688 696.100585938 396.799804688 696.100585938 396.799804688 668.799804688 c 4,9,10
 396.799804688 638.900390625 396.799804688 638.900390625 377.900390625 623.950195312 c 132,-1,11
 359 609 359 609 331 609 c 4,0,1
305.799804688 676.600585938 m 4,12,13
 307.200195312 690.900390625 307.200195312 690.900390625 312.799804688 702.600585938 c 132,-1,14
 318.400390625 714.299804688 318.400390625 714.299804688 311.400390625 714.299804688 c 4,15,16
 301.600585938 714.299804688 301.600585938 714.299804688 295.299804688 695.450195312 c 132,-1,17
 289 676.600585938 289 676.600585938 289 662.299804688 c 4,18,19
 289 649.299804688 289 649.299804688 296 649.299804688 c 4,20,21
 301.600585938 649.299804688 301.600585938 649.299804688 303 659.049804688 c 132,-1,22
 304.400390625 668.799804688 304.400390625 668.799804688 305.799804688 676.600585938 c 4,12,13
45 0 m 1,23,-1
 45 60 l 1,24,-1
 208 75 l 1,25,-1
 208 461 l 1,26,-1
 61 474 l 1,27,-1
 61 536 l 1,28,-1
 280 536 l 1,29,-1
 292 438 l 1,30,-1
 296 438 l 1,31,32
 324 491 324 491 357.5 518.5 c 128,-1,33
 391 546 391 546 446 546 c 0,34,35
 480 546 480 546 506.5 540 c 128,-1,36
 533 534 533 534 555 524 c 1,37,-1
 531 445 l 1,38,39
 515 454 515 454 493 460.5 c 128,-1,40
 471 467 471 467 446 467 c 0,41,42
 403 467 403 467 370 440 c 128,-1,43
 337 413 337 413 318 368 c 128,-1,44
 299 323 299 323 299 269 c 2,45,-1
 299 75 l 1,46,-1
 455 60 l 1,47,-1
 455 0 l 1,48,-1
 45 0 l 1,23,-1
EndSplineSet
EndChar

StartChar: S
Encoding: 83 83 58
Width: 600
VWidth: 1000
GlyphClass: 2
Flags: W
LayerCount: 2
Fore
SplineSet
274.799804688 -4.01953125 m 0,0,1
 214.799804688 -4.01953125 214.799804688 -4.01953125 160.19921875 5.9697265625 c 128,-1,2
 105.599609375 15.9599609375 105.599609375 15.9599609375 66 33.7197265625 c 1,3,-1
 66 125.849609375 l 1,4,5
 108 108.08984375 108 108.08984375 159 93.10546875 c 128,-1,6
 210 78.1201171875 210 78.1201171875 280.799804688 78.1201171875 c 0,7,8
 360 78.1201171875 360 78.1201171875 393 100.875 c 128,-1,9
 426 123.629882812 426 123.629882812 426 166.919921875 c 0,10,11
 426 190.23046875 426 190.23046875 414.599609375 205.21484375 c 128,-1,12
 403.19921875 220.200195312 403.19921875 220.200195312 370.799804688 235.740234375 c 128,-1,13
 338.399414062 251.280273438 338.399414062 251.280273438 276 275.700195312 c 0,14,15
 213.599609375 301.23046875 213.599609375 301.23046875 169.19921875 323.4296875 c 128,-1,16
 124.799804688 345.629882812 124.799804688 345.629882812 100.799804688 376.155273438 c 128,-1,17
 76.7998046875 406.6796875 76.7998046875 406.6796875 76.7998046875 454.41015625 c 0,18,19
 76.7998046875 507.690429688 76.7998046875 507.690429688 106.19921875 542.655273438 c 128,-1,20
 135.599609375 577.620117188 135.599609375 577.620117188 191.399414062 595.379882812 c 128,-1,21
 247.19921875 613.139648438 247.19921875 613.139648438 324 613.139648438 c 0,22,23
 376.799804688 613.139648438 376.799804688 613.139648438 424.799804688 604.259765625 c 128,-1,24
 472.799804688 595.379882812 472.799804688 595.379882812 524.399414062 575.400390625 c 1,25,-1
 492 497.700195312 l 1,26,27
 444 516.5703125 444 516.5703125 403.799804688 523.23046875 c 128,-1,28
 363.599609375 529.889648438 363.599609375 529.889648438 324 529.889648438 c 0,29,30
 249.599609375 529.889648438 249.599609375 529.889648438 215.399414062 512.129882812 c 128,-1,31
 181.19921875 494.370117188 181.19921875 494.370117188 181.19921875 456.629882812 c 0,32,33
 181.19921875 432.209960938 181.19921875 432.209960938 196.19921875 415.559570312 c 128,-1,34
 211.19921875 398.91015625 211.19921875 398.91015625 245.399414062 383.370117188 c 128,-1,35
 279.599609375 367.830078125 279.599609375 367.830078125 336 345.629882812 c 0,36,37
 399.599609375 321.209960938 399.599609375 321.209960938 444 300.120117188 c 128,-1,38
 488.399414062 279.030273438 488.399414062 279.030273438 511.19921875 249.615234375 c 128,-1,39
 534 220.200195312 534 220.200195312 534 169.139648438 c 0,40,41
 534 112.530273438 534 112.530273438 504.599609375 74.2353515625 c 128,-1,42
 475.19921875 35.9404296875 475.19921875 35.9404296875 417.599609375 15.9599609375 c 128,-1,43
 360 -4.01953125 360 -4.01953125 274.799804688 -4.01953125 c 0,0,1
326 659.599609375 m 0,44,45
 299.400390625 659.599609375 299.400390625 659.599609375 283.299804688 675.849609375 c 128,-1,46
 267.200195312 692.099609375 267.200195312 692.099609375 267.200195312 719.399414062 c 0,47,48
 267.200195312 744.099609375 267.200195312 744.099609375 281.200195312 765.549804688 c 128,-1,49
 295.200195312 787 295.200195312 787 326 787 c 0,50,51
 358.200195312 787 358.200195312 787 375 766.849609375 c 128,-1,52
 391.799804688 746.700195312 391.799804688 746.700195312 391.799804688 719.399414062 c 0,53,54
 391.799804688 689.5 391.799804688 689.5 372.900390625 674.549804688 c 128,-1,55
 354 659.599609375 354 659.599609375 326 659.599609375 c 0,44,45
300.799804688 727.200195312 m 0,56,57
 302.200195312 741.5 302.200195312 741.5 307.799804688 753.200195312 c 128,-1,58
 313.400390625 764.899414062 313.400390625 764.899414062 306.400390625 764.899414062 c 0,59,60
 296.600585938 764.899414062 296.600585938 764.899414062 290.299804688 746.049804688 c 128,-1,61
 284 727.200195312 284 727.200195312 284 712.899414062 c 0,62,63
 284 699.899414062 284 699.899414062 291 699.899414062 c 0,64,65
 296.600585938 699.899414062 296.600585938 699.899414062 298 709.649414062 c 128,-1,66
 299.400390625 719.399414062 299.400390625 719.399414062 300.799804688 727.200195312 c 0,56,57
EndSplineSet
EndChar

StartChar: T
Encoding: 84 84 59
Width: 600
VWidth: 1000
GlyphClass: 2
Flags: W
LayerCount: 2
Fore
SplineSet
416 -10 m 0,0,1
 359 -10 359 -10 314 5 c 128,-1,2
 269 20 269 20 242.5 58 c 128,-1,3
 216 96 216 96 216 163 c 2,4,-1
 216 461 l 1,5,-1
 70 461 l 1,6,-1
 70 523 l 1,7,-1
 216 539 l 1,8,-1
 234 679 l 1,9,-1
 306 679 l 1,10,-1
 306 536 l 1,11,-1
 515 536 l 1,12,-1
 515 461 l 1,13,-1
 306 461 l 1,14,-1
 306 180 l 2,15,16
 306 140 306 140 317.5 114 c 128,-1,17
 329 88 329 88 355 75.5 c 128,-1,18
 381 63 381 63 422 63 c 0,19,20
 448 63 448 63 478 68 c 128,-1,21
 508 73 508 73 530 78 c 1,22,-1
 530 6 l 1,23,24
 506 0 506 0 477 -5 c 128,-1,25
 448 -10 448 -10 416 -10 c 0,0,1
443 622 m 0,26,27
 416.400390625 622 416.400390625 622 400.299804688 638.25 c 128,-1,28
 384.200195312 654.5 384.200195312 654.5 384.200195312 681.799804688 c 0,29,30
 384.200195312 706.5 384.200195312 706.5 398.200195312 727.950195312 c 128,-1,31
 412.200195312 749.400390625 412.200195312 749.400390625 443 749.400390625 c 0,32,33
 475.200195312 749.400390625 475.200195312 749.400390625 492 729.25 c 128,-1,34
 508.799804688 709.100585938 508.799804688 709.100585938 508.799804688 681.799804688 c 0,35,36
 508.799804688 651.900390625 508.799804688 651.900390625 489.900390625 636.950195312 c 128,-1,37
 471 622 471 622 443 622 c 0,26,27
417.799804688 689.600585938 m 0,38,39
 419.200195312 703.900390625 419.200195312 703.900390625 424.799804688 715.600585938 c 128,-1,40
 430.400390625 727.299804688 430.400390625 727.299804688 423.400390625 727.299804688 c 0,41,42
 413.600585938 727.299804688 413.600585938 727.299804688 407.299804688 708.450195312 c 128,-1,43
 401 689.600585938 401 689.600585938 401 675.299804688 c 0,44,45
 401 662.299804688 401 662.299804688 408 662.299804688 c 0,46,47
 413.600585938 662.299804688 413.600585938 662.299804688 415 672.049804688 c 128,-1,48
 416.400390625 681.799804688 416.400390625 681.799804688 417.799804688 689.600585938 c 0,38,39
EndSplineSet
EndChar

StartChar: U
Encoding: 85 85 60
Width: 600
VWidth: 1000
GlyphClass: 2
Flags: W
LayerCount: 2
Fore
SplineSet
233.491210938 -4 m 0,0,1
 187.991210938 -4 187.991210938 -4 151.991210938 12.5 c 0,2,3
 106.225585938 32.9990234375 106.225585938 32.9990234375 90.4912109375 58.5 c 0,4,5
 43.9912109375 129 43.9912109375 129 51.9912109375 129.5 c 0,6,7
 53.6982421875 132.6171875 53.6982421875 132.6171875 38.4912109375 221 c 2,8,-1
 38.4912109375 530 l 2,9,10
 38.9912109375 536 38.9912109375 536 40.4912109375 555 c 0,11,12
 41.9912109375 570 41.9912109375 570 48.4912109375 583.5 c 0,13,14
 53.9912109375 597 53.9912109375 597 64.9912109375 606.5 c 128,-1,15
 75.9912109375 616 75.9912109375 616 91.4912109375 616 c 0,16,17
 134.991210938 616 134.991210938 616 138.491210938 599 c 0,18,19
 151.991210938 530 151.991210938 530 152.491210938 528 c 2,20,-1
 152.491210938 228 l 2,21,22
 151.991210938 204 151.991210938 204 152.491210938 179.5 c 0,23,24
 151.991210938 155 151.991210938 155 159.991210938 135.5 c 128,-1,25
 167.991210938 116 167.991210938 116 203.991210938 103.5 c 128,-1,26
 239.991210938 91 239.991210938 91 319.491210938 91 c 128,-1,27
 398.991210938 91 398.991210938 91 415.491210938 110 c 0,28,29
 432.991210938 129 432.991210938 129 439.991210938 157.5 c 128,-1,30
 446.991210938 186 446.991210938 186 447.991210938 220 c 0,31,32
 447.991210938 237 447.991210938 237 448.491210938 284 c 2,33,-1
 448.491210938 531 l 2,34,35
 447.991210938 543 447.991210938 543 450.491210938 556 c 0,36,37
 452.991210938 571 452.991210938 571 457.991210938 584.5 c 128,-1,38
 462.991210938 598 462.991210938 598 472.991210938 608 c 128,-1,39
 482.991210938 618 482.991210938 618 498.491210938 618 c 0,40,41
 546.991210938 618 546.991210938 618 553.491210938 597.5 c 0,42,43
 561.491210938 573.5 561.491210938 573.5 561.491210938 532 c 2,44,-1
 561.491210938 246 l 2,45,46
 561.991210938 189 561.991210938 189 548.991210938 143 c 0,47,48
 536.991210938 97 536.991210938 97 510.991210938 64.5 c 128,-1,49
 484.991210938 32 484.991210938 32 448.491210938 14 c 0,50,51
 410.991210938 -4 410.991210938 -4 233.491210938 -4 c 0,0,1
476.491210938 556 m 0,52,53
 476.991210938 560 476.991210938 560 479.491210938 568 c 0,54,55
 482.991210938 576 482.991210938 576 489.491210938 584 c 0,56,57
 496.991210938 595 496.991210938 595 497.991210938 599 c 128,-1,58
 498.991210938 603 498.991210938 603 489.491210938 603 c 0,59,60
 484.991210938 603 484.991210938 603 479.991210938 598 c 128,-1,61
 474.991210938 593 474.991210938 593 472.491210938 588 c 0,62,63
 470.991210938 583 470.991210938 583 466.991210938 575 c 0,64,65
 461.991210938 565 461.991210938 565 462.491210938 558 c 0,66,67
 462.991210938 553 462.991210938 553 463.491210938 548.5 c 0,68,69
 464.991210938 544 464.991210938 544 469.491210938 544 c 256,70,71
 474.991210938 544 474.991210938 544 475.491210938 547.5 c 128,-1,72
 475.991210938 551 475.991210938 551 476.491210938 556 c 0,52,53
80.4912109375 570 m 0,73,74
 84.9912109375 579 84.9912109375 579 89.9912109375 585 c 0,75,76
 95.9912109375 592 95.9912109375 592 95.4912109375 598 c 0,77,78
 94.9912109375 603 94.9912109375 603 92.4912109375 603 c 256,79,80
 88.9912109375 603 88.9912109375 603 83.4912109375 600.5 c 0,81,82
 76.9912109375 598 76.9912109375 598 72.4912109375 590 c 0,83,84
 56.9912109375 569 56.9912109375 569 55.4912109375 552 c 0,85,86
 52.9912109375 535 52.9912109375 535 59.4912109375 535 c 0,87,88
 64.9912109375 535 64.9912109375 535 69.9912109375 545.5 c 0,89,90
 73.9912109375 556 73.9912109375 556 80.4912109375 570 c 0,73,74
149.491210938 48 m 0,91,92
 148.991210938 51 148.991210938 51 141.991210938 57 c 128,-1,93
 134.991210938 63 134.991210938 63 126.491210938 72 c 0,94,95
 118.991210938 80 118.991210938 80 107.991210938 93.5 c 0,96,97
 101.991210938 100 101.991210938 100 90.4912109375 122 c 0,98,99
 84.9912109375 132 84.9912109375 132 80.9912109375 136 c 128,-1,100
 76.9912109375 140 76.9912109375 140 74.4912109375 140 c 0,101,102
 70.9912109375 140 70.9912109375 140 70.4912109375 133 c 0,103,104
 70.9912109375 125 70.9912109375 125 78.4912109375 109.5 c 0,105,106
 86.9912109375 94 86.9912109375 94 97.4912109375 79 c 0,107,108
 108.991210938 64 108.991210938 64 120.991210938 53 c 128,-1,109
 132.991210938 42 132.991210938 42 143.491210938 42 c 0,110,111
 150.991210938 42 150.991210938 42 149.491210938 48 c 0,91,92
172.491210938 39 m 0,112,113
 172.991210938 40 172.991210938 40 169.991210938 43 c 128,-1,114
 166.991210938 46 166.991210938 46 164.491210938 46 c 0,115,116
 158.991210938 45 158.991210938 45 157.491210938 42 c 0,117,118
 154.991210938 39 154.991210938 39 155.491210938 37 c 0,119,120
 156.991210938 34 156.991210938 34 157.491210938 31.5 c 0,121,122
 158.991210938 29 158.991210938 29 163.491210938 30 c 0,123,124
 167.991210938 30 167.991210938 30 172.491210938 39 c 0,112,113
EndSplineSet
EndChar

StartChar: V
Encoding: 86 86 61
Width: 600
VWidth: 1000
GlyphClass: 2
Flags: W
LayerCount: 2
Fore
SplineSet
284.5 641 m 4
 257.900390625 641 257.900390625 641 241.799804688 657.25 c 4
 225.700195312 673.5 225.700195312 673.5 225.700195312 700.799804688 c 4
 225.700195312 725.5 225.700195312 725.5 239.700195312 746.950195312 c 4
 253.700195312 768.400390625 253.700195312 768.400390625 284.5 768.400390625 c 4
 316.700195312 768.400390625 316.700195312 768.400390625 333.5 748.25 c 4
 350.299804688 728.100585938 350.299804688 728.100585938 350.299804688 700.799804688 c 4
 350.299804688 670.900390625 350.299804688 670.900390625 331.400390625 655.950195312 c 4
 312.5 641 312.5 641 284.5 641 c 4
259.299804688 708.600585938 m 4
 260.700195312 722.900390625 260.700195312 722.900390625 266.299804688 734.600585938 c 4
 271.900390625 746.299804688 271.900390625 746.299804688 264.900390625 746.299804688 c 4
 255.100585938 746.299804688 255.100585938 746.299804688 248.799804688 727.450195312 c 4
 242.5 708.600585938 242.5 708.600585938 242.5 694.299804688 c 4
 242.5 681.299804688 242.5 681.299804688 249.5 681.299804688 c 4
 255.100585938 681.299804688 255.100585938 681.299804688 256.5 691.049804688 c 4
 257.900390625 700.799804688 257.900390625 700.799804688 259.299804688 708.600585938 c 4
EndSplineSet
Refer: 91 118 N 1 0 0 1 0 0 2
EndChar

StartChar: W
Encoding: 87 87 62
Width: 600
VWidth: 1000
GlyphClass: 2
Flags: W
LayerCount: 2
Fore
SplineSet
573 538 m 1,0,-1
 35 538 l 1,1,-1
 35 617 l 1,2,-1
 573 617 l 1,3,-1
 573 538 l 1,0,-1
403 0 m 0,4,5
 380 0 380 0 363.5 6 c 128,-1,6
 347 12 347 12 335.5 23.5 c 128,-1,7
 324 35 324 35 316 51 c 0,8,9
 304 75 304 75 301 87 c 0,10,11
 300 91 300 91 299 97 c 128,-1,12
 298 103 298 103 296.5 109 c 128,-1,13
 295 115 295 115 293.5 119 c 128,-1,14
 292 123 292 123 290 123 c 256,15,16
 288 123 288 123 286 115.5 c 128,-1,17
 284 108 284 108 280 97 c 0,18,19
 270 71 270 71 261 52.5 c 128,-1,20
 252 34 252 34 240.5 22.5 c 128,-1,21
 229 11 229 11 215 5.5 c 128,-1,22
 201 0 201 0 181 0 c 0,23,24
 141 0 141 0 111.5 13.5 c 128,-1,25
 82 27 82 27 63 51.5 c 128,-1,26
 44 76 44 76 35 109.5 c 128,-1,27
 26 143 26 143 26 183 c 2,28,-1
 26 522 l 2,29,30
 26 532 26 532 29 545.5 c 128,-1,31
 32 559 32 559 39 571 c 128,-1,32
 46 583 46 583 57.5 591.5 c 128,-1,33
 69 600 69 600 87 600 c 0,34,35
 116 600 116 600 127 579.5 c 128,-1,36
 137.903320312 559.1796875 137.903320312 559.1796875 138 527 c 2,37,-1
 139 193 l 2,38,39
 139 183 139 183 141 166.5 c 128,-1,40
 143 150 143 150 147.5 134 c 128,-1,41
 152 118 152 118 161 106.5 c 128,-1,42
 170 95 170 95 183 95 c 0,43,44
 206 95 206 95 219.5 129 c 128,-1,45
 233 163 233 163 240 219 c 128,-1,46
 247 275 247 275 248.5 285.5 c 128,-1,47
 250 296 250 296 250 372 c 4,48,49
 250 436 250 436 260 460.5 c 132,-1,50
 270 485 270 485 300 485 c 4,51,52
 314 485 314 485 323 480 c 132,-1,53
 332 475 332 475 338 459 c 132,-1,54
 344 443 344 443 346.5 413 c 132,-1,55
 349 383 349 383 349 333 c 4,56,57
 349 271 l 0,58,-1
 350.5 236.5 l 0,59,60
 352 202 352 202 354.5 181.5 c 128,-1,61
 357 161 357 161 362 146 c 0,62,63
 371 117 371 117 381 105.5 c 128,-1,64
 391 94 391 94 404 94 c 0,65,66
 463 94 463 94 463 239 c 2,67,-1
 463 539 l 2,68,69
 463 550 463 550 465 561 c 128,-1,70
 467 572 467 572 472.5 580.5 c 128,-1,71
 478 589 478 589 488 594.5 c 128,-1,72
 498 600 498 600 513 600 c 0,73,74
 545 600 545 600 559.5 582.5 c 128,-1,75
 574 565 574 565 574 539 c 2,76,-1
 574 220 l 2,77,78
 574 178 574 178 562.5 138.5 c 128,-1,79
 551 99 551 99 529.5 68 c 128,-1,80
 508 37 508 37 476 18.5 c 128,-1,81
 444 0 444 0 403 0 c 0,4,5
51 515 m 0,82,83
 58 515 58 515 60.5 522 c 128,-1,84
 63 529 63 529 64 534 c 0,85,86
 66 548 66 548 75 557.5 c 0,87,88
 90 573 90 573 90 579 c 0,89,90
 90 581 90 581 88 584 c 128,-1,91
 86 587 86 587 83 587 c 0,92,93
 77 587 77 587 70 580.5 c 128,-1,94
 63 574 63 574 57 565 c 128,-1,95
 51 556 51 556 47.5 545.5 c 128,-1,96
 44 535 44 535 44 527 c 0,97,98
 44 523 44 523 45 519 c 128,-1,99
 46 515 46 515 51 515 c 0,82,83
496 533 m 0,100,101
 496 543 496 543 499 551 c 128,-1,102
 502 559 502 559 506 566 c 0,103,104
 511 574 511 574 510 579 c 128,-1,105
 509 584 509 584 506 584 c 0,106,107
 501 584 501 584 494.5 580.5 c 128,-1,108
 488 577 488 577 484 567 c 0,109,110
 479 551 479 551 480.5 536 c 128,-1,111
 482 521 482 521 490 521 c 0,112,113
 492 521 492 521 494 524.5 c 128,-1,114
 496 528 496 528 496 533 c 0,100,101
277 421 m 4,115,116
 277 422 277 422 279 431.5 c 132,-1,117
 281 441 281 441 284 447 c 4,118,119
 291 460 291 460 293 465 c 132,-1,120
 295 470 295 470 292 470 c 4,121,122
 290 470 290 470 284.5 468 c 132,-1,123
 279 466 279 466 274 459 c 4,124,125
 263 444 263 444 263.5 427 c 132,-1,126
 264 410 264 410 272 410 c 4,127,128
 277 410 277 410 277 421 c 4,115,116
128 37 m 0,129,130
 127 42 127 42 114 51 c 128,-1,131
 101 60 101 60 95 67 c 0,132,133
 84 78 84 78 79.5 89 c 128,-1,134
 75 100 75 100 70 99 c 0,135,136
 66 99 66 99 66.5 92 c 128,-1,137
 67 85 67 85 71.5 75 c 128,-1,138
 76 65 76 65 85 54 c 128,-1,139
 94 43 94 43 107 34 c 0,140,141
 116 27 116 27 123 29 c 0,142,143
 128 29 128 29 128 37 c 0,129,130
394 22 m 0,144,145
 394 26 394 26 390.5 27 c 128,-1,146
 387 28 387 28 384 28 c 0,147,148
 379 29 379 29 369 38 c 128,-1,149
 359 47 359 47 353 57 c 0,150,151
 343 72 343 72 335 74 c 0,152,153
 332 74 332 74 332 69 c 0,154,155
 332 67 332 67 335.5 59 c 128,-1,156
 339 51 339 51 346 42 c 128,-1,157
 353 33 353 33 362.5 25.5 c 128,-1,158
 372 18 372 18 383 17 c 0,159,160
 387 17 387 17 390 17 c 128,-1,161
 393 17 393 17 394 22 c 0,144,145
EndSplineSet
EndChar

StartChar: X
Encoding: 88 88 63
Width: 600
VWidth: 1000
GlyphClass: 2
Flags: W
LayerCount: 2
Fore
SplineSet
287.991210938 641 m 4
 261.391601562 641 261.391601562 641 245.291015625 657.25 c 4
 229.19140625 673.5 229.19140625 673.5 229.19140625 700.799804688 c 4
 229.19140625 725.5 229.19140625 725.5 243.19140625 746.950195312 c 4
 257.19140625 768.400390625 257.19140625 768.400390625 287.991210938 768.400390625 c 4
 320.19140625 768.400390625 320.19140625 768.400390625 336.991210938 748.25 c 4
 353.791015625 728.100585938 353.791015625 728.100585938 353.791015625 700.799804688 c 4
 353.791015625 670.900390625 353.791015625 670.900390625 334.891601562 655.950195312 c 4
 315.991210938 641 315.991210938 641 287.991210938 641 c 4
262.791015625 708.600585938 m 4
 264.19140625 722.900390625 264.19140625 722.900390625 269.791015625 734.600585938 c 4
 275.391601562 746.299804688 275.391601562 746.299804688 268.391601562 746.299804688 c 4
 258.591796875 746.299804688 258.591796875 746.299804688 252.291015625 727.450195312 c 4
 245.991210938 708.600585938 245.991210938 708.600585938 245.991210938 694.299804688 c 4
 245.991210938 681.299804688 245.991210938 681.299804688 252.991210938 681.299804688 c 4
 258.591796875 681.299804688 258.591796875 681.299804688 259.991210938 691.049804688 c 4
 261.391601562 700.799804688 261.391601562 700.799804688 262.791015625 708.600585938 c 4
EndSplineSet
Refer: 93 120 N 1 0 0 1 0.000200003 0 2
EndChar

StartChar: Y
Encoding: 89 89 64
Width: 600
VWidth: 1000
GlyphClass: 2
Flags: W
LayerCount: 2
Fore
SplineSet
299.014648438 0 m 0,0,1
 272.651367188 0 272.651367188 0 259.514648438 16.5 c 0,2,3
 246.014648438 32.5673828125 246.014648438 32.5673828125 246.014648438 52 c 2,4,-1
 246.014648438 191 l 2,5,6
 245.651367188 206 245.651367188 206 244.514648438 214.5 c 0,7,8
 242.651367188 225 242.651367188 225 239.514648438 236 c 0,9,10
 235.651367188 247 235.651367188 247 230.014648438 260.5 c 0,11,12
 216.651367188 290 216.651367188 290 215.014648438 294 c 2,13,-1
 67.0146484375 556 l 2,14,15
 63.6513671875 562 63.6513671875 562 66.5146484375 573.5 c 0,16,17
 68.6513671875 584 68.6513671875 584 76.5146484375 593.5 c 0,18,19
 83.6513671875 603 83.6513671875 603 96.0146484375 609.5 c 0,20,21
 107.651367188 616 107.651367188 616 124.014648438 616 c 0,22,23
 135.651367188 616 135.651367188 616 141.514648438 611.5 c 0,24,25
 149.016601562 605.71875 149.016601562 605.71875 155.014648438 595 c 2,26,-1
 277.014648438 377 l 2,27,28
 281.651367188 367 281.651367188 367 288.514648438 354 c 0,29,30
 294.651367188 342 294.651367188 342 301.014648438 342 c 256,31,32
 315.651367188 342 315.651367188 342 313.014648438 351.5 c 0,33,34
 312.546875 353.431640625 312.546875 353.431640625 326.014648438 377 c 2,35,-1
 458.014648438 608 l 6,36,37
 464.651367188 619 464.651367188 619 473.014648438 621.5 c 4,38,39
 482.651367188 624 482.651367188 624 490.014648438 624 c 4,40,41
 502.651367188 624 502.651367188 624 512.514648438 617 c 4,42,43
 521.651367188 610 521.651367188 610 527.514648438 600 c 4,44,45
 532.651367188 590 532.651367188 590 534.514648438 579 c 4,46,47
 535.6953125 566.540039062 535.6953125 566.540039062 532.014648438 560 c 6,48,-1
 375.014648438 281 l 2,49,50
 372.651367188 275 372.651367188 275 364.014648438 255.5 c 0,51,52
 359.651367188 245 359.651367188 245 358.514648438 234 c 0,53,54
 356.651367188 210 356.651367188 210 356.514648438 209.5 c 0,55,56
 356.014648438 209.209960938 356.014648438 209.209960938 356.014648438 174 c 2,57,-1
 356.014648438 52 l 2,58,59
 355.651367188 36 355.651367188 36 350.514648438 27 c 0,60,61
 344.651367188 17 344.651367188 17 336.514648438 11 c 0,62,63
 327.651367188 5 327.651367188 5 318.014648438 2.5 c 0,64,65
 307.651367188 0 307.651367188 0 299.014648438 0 c 0,0,1
98.0146484375 551 m 0,66,67
 95.6513671875 559 95.6513671875 559 96.5146484375 564.5 c 0,68,69
 96.6513671875 570 96.6513671875 570 96.0146484375 575 c 256,70,71
 94.6513671875 580 94.6513671875 580 93.0146484375 584 c 0,72,73
 90.6513671875 588 90.6513671875 588 89.0146484375 587 c 0,74,75
 77.6513671875 582 77.6513671875 582 79.5146484375 568 c 0,76,77
 80.6513671875 554 80.6513671875 554 84.0146484375 546 c 0,78,79
 89.6513671875 534 89.6513671875 534 96.0146484375 537 c 0,80,81
 99.6513671875 539 99.6513671875 539 100.014648438 543 c 0,82,83
 99.6513671875 547 99.6513671875 547 98.0146484375 551 c 0,66,67
283.014648438 33 m 0,84,85
 281.014648438 37 281.014648438 37 277.514648438 47 c 128,-1,86
 274.014648438 57 274.014648438 57 272.014648438 74 c 0,87,88
 271.014648438 97 271.014648438 97 267.014648438 97 c 0,89,90
 266.014648438 97 266.014648438 97 264.014648438 93.5 c 128,-1,91
 262.014648438 90 262.014648438 90 261.014648438 81 c 0,92,93
 259.014648438 49 259.014648438 49 266.514648438 35 c 128,-1,94
 274.014648438 21 274.014648438 21 283.014648438 21 c 0,95,96
 287.014648438 21 287.014648438 21 286.014648438 24.5 c 128,-1,97
 285.014648438 28 285.014648438 28 283.014648438 33 c 0,84,85
EndSplineSet
EndChar

StartChar: Z
Encoding: 90 90 65
Width: 600
VWidth: 1000
GlyphClass: 2
Flags: W
LayerCount: 2
Fore
SplineSet
32.5 0 m 1,0,-1
 32.5 61 l 1,1,-1
 462.5 467 l 1,2,-1
 48.5 467 l 1,3,-1
 48.5 536 l 1,4,-1
 559.5 536 l 1,5,-1
 559.5 465 l 1,6,-1
 139.5 76 l 1,7,-1
 567.5 76 l 1,8,-1
 567.5 0 l 1,9,-1
 32.5 0 l 1,0,-1
EndSplineSet
EndChar

StartChar: a
Encoding: 97 97 66
Width: 600
VWidth: 1000
GlyphClass: 2
Flags: W
LayerCount: 2
Fore
SplineSet
118 77 m 0,0,1
 106 93 106 93 97 108.5 c 128,-1,2
 88 124 88 124 86 139 c 0,3,4
 83 153 83 153 77 152 c 0,5,6
 69 152 69 152 72 134 c 0,7,8
 73 125 73 125 77.5 112 c 128,-1,9
 82 99 82 99 88 88 c 128,-1,10
 94 77 94 77 102 69.5 c 128,-1,11
 110 62 110 62 119 63 c 0,12,13
 127 65 127 65 118 77 c 0,0,1
229.5 -1 m 0,14,15
 168 -1 168 -1 121.5 30.5 c 0,16,17
 74 62 74 62 48 123.5 c 128,-1,18
 22 185 22 185 21.5 274 c 0,19,20
 22 368 22 368 54.5 433.5 c 0,21,22
 88 499 88 499 142 534 c 128,-1,23
 196 569 196 569 259.5 569 c 0,24,25
 294 569 294 569 326 555 c 128,-1,26
 358 541 358 541 385 509.5 c 128,-1,27
 412 478 412 478 426.5 426 c 1,28,-1
 429.5 426 l 1,29,-1
 452.5 509 l 1,30,-1
 542.5 509 l 1,31,32
 532 456 532 456 520 420 c 128,-1,33
 508 384 508 384 498 326.5 c 128,-1,34
 488 269 488 269 481 218.5 c 0,35,36
 475 178 475 178 474.5 131 c 0,37,38
 474 104 474 104 490 89.5 c 128,-1,39
 506 75 506 75 528.5 75 c 0,40,41
 538 75 538 75 547.5 77 c 0,42,43
 558 79 558 79 565.5 83 c 1,44,-1
 578.5 13 l 1,45,46
 568 8 568 8 550.5 3.5 c 0,47,48
 534 -1 534 -1 509.5 -1 c 0,49,50
 462 -1 462 -1 432 25.5 c 128,-1,51
 402 52 402 52 402.5 109 c 1,52,-1
 398.5 109 l 1,53,54
 336 -1 336 -1 229.5 -1 c 0,14,15
248.5 76 m 0,55,56
 284.5 76 284.5 76 317 98.5 c 128,-1,57
 349.5 121 349.5 121 371.5 159.5 c 128,-1,58
 393.5 198 393.5 198 396.5 244 c 2,59,-1
 405.5 347 l 1,60,61
 393.5 391 393.5 391 378 419.5 c 128,-1,62
 362.5 448 362.5 448 344.5 464 c 128,-1,63
 326.5 480 326.5 480 307 486 c 128,-1,64
 287.5 492 287.5 492 268.5 492 c 0,65,66
 229.5 492 229.5 492 194.5 467.5 c 128,-1,67
 159.5 443 159.5 443 137.5 395 c 128,-1,68
 115.5 347 115.5 347 115.5 275 c 0,69,70
 115.5 180 115.5 180 151 128 c 128,-1,71
 186.5 76 186.5 76 248.5 76 c 0,55,56
EndSplineSet
EndChar

StartChar: ampersand
Encoding: 38 38 67
Width: 600
VWidth: 1000
GlyphClass: 1
Flags: W
LayerCount: 2
Fore
SplineSet
214 -10 m 0,0,1
 155 -10 155 -10 113.5 14 c 128,-1,2
 72 38 72 38 50.5 80.5 c 128,-1,3
 29 123 29 123 29 176 c 0,4,5
 29 233 29 233 51.5 275.5 c 128,-1,6
 74 318 74 318 110 351.5 c 128,-1,7
 146 385 146 385 187 414 c 0,8,9
 210 430 210 430 238 454 c 128,-1,10
 266 478 266 478 287 509.5 c 128,-1,11
 308 541 308 541 308 580 c 0,12,13
 308 616 308 616 289 636 c 128,-1,14
 270 656 270 656 239 656 c 256,15,16
 208 656 208 656 189.5 635 c 128,-1,17
 171 614 171 614 171 576 c 0,18,19
 171 550 171 550 179.5 522 c 128,-1,20
 188 494 188 494 202.5 468 c 128,-1,21
 217 442 217 442 234 420 c 2,22,-1
 571 0 l 1,23,-1
 464 0 l 1,24,-1
 182 364 l 2,25,26
 160 393 160 393 138.5 427 c 128,-1,27
 117 461 117 461 103 499.5 c 128,-1,28
 89 538 89 538 89 578 c 0,29,30
 89 644 89 644 129 684.5 c 128,-1,31
 169 725 169 725 239 725 c 256,32,33
 309 725 309 725 349 684.5 c 128,-1,34
 389 644 389 644 389 580 c 0,35,36
 389 530 389 530 366 490 c 128,-1,37
 343 450 343 450 308 418.5 c 128,-1,38
 273 387 273 387 238 359 c 0,39,40
 209 336 209 336 180.5 310.5 c 128,-1,41
 152 285 152 285 133.5 253.5 c 128,-1,42
 115 222 115 222 115 181 c 0,43,44
 115 133 115 133 144 100 c 128,-1,45
 173 67 173 67 224 67 c 0,46,47
 261 67 261 67 293.5 84.5 c 128,-1,48
 326 102 326 102 353 132 c 128,-1,49
 380 162 380 162 400.5 198.5 c 128,-1,50
 421 235 421 235 434.5 274 c 128,-1,51
 448 313 448 313 454 349 c 1,52,-1
 537 349 l 1,53,54
 527 292 527 292 507.5 239 c 128,-1,55
 488 186 488 186 459 140.5 c 128,-1,56
 430 95 430 95 393 61.5 c 128,-1,57
 356 28 356 28 311 9 c 128,-1,58
 266 -10 266 -10 214 -10 c 0,0,1
EndSplineSet
EndChar

StartChar: at
Encoding: 64 64 68
Width: 600
GlyphClass: 1
Flags: W
LayerCount: 2
Fore
SplineSet
281.5 1 m 4,0,1
 224.5 1 224.5 1 176.5 22.4501953125 c 132,-1,2
 128.5 43.900390625 128.5 43.900390625 94 82.9501953125 c 132,-1,3
 59.5 122 59.5 122 40.5 177.549804688 c 132,-1,4
 21.5 233.099609375 21.5 233.099609375 21.5 300.200195312 c 4,5,6
 21.5 377.200195312 21.5 377.200195312 43.5 442.650390625 c 132,-1,7
 65.5 508.099609375 65.5 508.099609375 105 557.049804688 c 132,-1,8
 144.5 606 144.5 606 198 633.5 c 132,-1,9
 251.5 661 251.5 661 313.5 661 c 260,10,11
 375.5 661 375.5 661 425 637.900390625 c 132,-1,12
 474.5 614.799804688 474.5 614.799804688 508.5 574.099609375 c 132,-1,13
 542.5 533.400390625 542.5 533.400390625 560.5 480.049804688 c 132,-1,14
 578.5 426.700195312 578.5 426.700195312 578.5 366.200195312 c 4,15,16
 578.5 322.200195312 578.5 322.200195312 568 284.25 c 132,-1,17
 557.5 246.299804688 557.5 246.299804688 539 217.700195312 c 132,-1,18
 520.5 189.099609375 520.5 189.099609375 496 172.599609375 c 132,-1,19
 471.5 156.099609375 471.5 156.099609375 443.5 156.099609375 c 4,20,21
 421.5 156.099609375 421.5 156.099609375 408.5 165.450195312 c 132,-1,22
 395.5 174.799804688 395.5 174.799804688 388 185.799804688 c 132,-1,23
 380.5 196.799804688 380.5 196.799804688 375.5 206.150390625 c 132,-1,24
 370.5 215.5 370.5 215.5 366.5 215.5 c 260,25,26
 362.5 215.5 362.5 215.5 353.5 205.599609375 c 132,-1,27
 344.5 195.700195312 344.5 195.700195312 331 185.25 c 132,-1,28
 317.5 174.799804688 317.5 174.799804688 300 164.900390625 c 132,-1,29
 282.5 155 282.5 155 261.5 155 c 260,30,31
 239.5 155 239.5 155 221 166 c 132,-1,32
 202.5 177 202.5 177 189.5 196.25 c 132,-1,33
 176.5 215.5 176.5 215.5 168.5 240.799804688 c 132,-1,34
 160.5 266.099609375 160.5 266.099609375 160.5 295.799804688 c 4,35,36
 160.5 334.299804688 160.5 334.299804688 172.5 370.049804688 c 132,-1,37
 184.5 405.799804688 184.5 405.799804688 203.5 433.299804688 c 132,-1,38
 222.5 460.799804688 222.5 460.799804688 247.5 477.299804688 c 132,-1,39
 272.5 493.799804688 272.5 493.799804688 299.5 493.799804688 c 4,40,41
 312.5 493.799804688 312.5 493.799804688 320.5 489.400390625 c 132,-1,42
 328.5 485 328.5 485 334 480.599609375 c 132,-1,43
 339.5 476.200195312 339.5 476.200195312 342.5 472.349609375 c 132,-1,44
 345.5 468.5 345.5 468.5 348.5 468.5 c 260,45,46
 351.5 468.5 351.5 468.5 354.5 473.450195312 c 132,-1,47
 357.5 478.400390625 357.5 478.400390625 361.5 483.900390625 c 132,-1,48
 365.5 489.400390625 365.5 489.400390625 372 494.900390625 c 132,-1,49
 378.5 500.400390625 378.5 500.400390625 388.5 500.400390625 c 4,50,51
 410.5 500.400390625 410.5 500.400390625 418.5 478.950195312 c 132,-1,52
 426.5 457.5 426.5 457.5 428 428.900390625 c 132,-1,53
 429.5 400.299804688 429.5 400.299804688 427.5 371.150390625 c 132,-1,54
 425.5 342 425.5 342 425.5 328.799804688 c 4,55,56
 425.5 314.5 425.5 314.5 428.5 299.099609375 c 132,-1,57
 431.5 283.700195312 431.5 283.700195312 436.5 270.5 c 132,-1,58
 441.5 257.299804688 441.5 257.299804688 447.5 249.599609375 c 132,-1,59
 453.5 241.900390625 453.5 241.900390625 460.5 241.900390625 c 4,60,61
 472.5 241.900390625 472.5 241.900390625 483 268.849609375 c 132,-1,62
 493.5 295.799804688 493.5 295.799804688 493.5 340.900390625 c 4,63,64
 493.5 394.799804688 493.5 394.799804688 484.5 437.700195312 c 132,-1,65
 475.5 480.599609375 475.5 480.599609375 455.5 510.849609375 c 132,-1,66
 435.5 541.099609375 435.5 541.099609375 402.5 557.049804688 c 132,-1,67
 369.5 573 369.5 573 322.5 573 c 260,68,69
 275.5 573 275.5 573 236 553.200195312 c 132,-1,70
 196.5 533.400390625 196.5 533.400390625 168 498.75 c 132,-1,71
 139.5 464.099609375 139.5 464.099609375 123.5 416.799804688 c 132,-1,72
 107.5 369.5 107.5 369.5 107.5 314.5 c 4,73,74
 107.5 265 107.5 265 121.5 223.200195312 c 132,-1,75
 135.5 181.400390625 135.5 181.400390625 160 151.150390625 c 132,-1,76
 184.5 120.900390625 184.5 120.900390625 217.5 103.849609375 c 132,-1,77
 250.5 86.7998046875 250.5 86.7998046875 287.5 86.7998046875 c 4,78,79
 314.5 86.7998046875 314.5 86.7998046875 341.5 93.9501953125 c 132,-1,80
 368.5 101.099609375 368.5 101.099609375 393 110.450195312 c 132,-1,81
 417.5 119.799804688 417.5 119.799804688 439.5 126.950195312 c 132,-1,82
 461.5 134.099609375 461.5 134.099609375 478.5 134.099609375 c 4,83,84
 507.5 134.099609375 507.5 134.099609375 507.5 109.900390625 c 4,85,86
 507.5 91.2001953125 507.5 91.2001953125 487.5 71.400390625 c 132,-1,87
 467.5 51.599609375 467.5 51.599609375 435 35.650390625 c 132,-1,88
 402.5 19.7001953125 402.5 19.7001953125 362 10.349609375 c 132,-1,89
 321.5 1 321.5 1 281.5 1 c 4,0,1
197.5 356.299804688 m 4,90,91
 201.5 356.299804688 201.5 356.299804688 206.5 367.849609375 c 132,-1,92
 211.5 379.400390625 211.5 379.400390625 213.5 381.599609375 c 4,93,94
 221.5 397 221.5 397 232 410.75 c 132,-1,95
 242.5 424.5 242.5 424.5 254.5 436.599609375 c 4,96,97
 259.5 442.099609375 259.5 442.099609375 253.5 442.099609375 c 4,98,99
 246.5 442.099609375 246.5 442.099609375 235.5 432.75 c 132,-1,100
 224.5 423.400390625 224.5 423.400390625 215 410.75 c 132,-1,101
 205.5 398.099609375 205.5 398.099609375 199 384.900390625 c 132,-1,102
 192.5 371.700195312 192.5 371.700195312 192.5 364 c 4,103,104
 192.5 361.799804688 192.5 361.799804688 194 359.049804688 c 132,-1,105
 195.5 356.299804688 195.5 356.299804688 197.5 356.299804688 c 4,90,91
285.5 247.400390625 m 4,106,107
 295.5 247.400390625 295.5 247.400390625 306.5 257.849609375 c 132,-1,108
 317.5 268.299804688 317.5 268.299804688 327 283.700195312 c 132,-1,109
 336.5 299.099609375 336.5 299.099609375 342 319.450195312 c 132,-1,110
 347.5 339.799804688 347.5 339.799804688 347.5 360.700195312 c 4,111,112
 347.5 408 347.5 408 314.5 408 c 4,113,114
 301.5 408 301.5 408 288 399.75 c 132,-1,115
 274.5 391.5 274.5 391.5 264 378.299804688 c 132,-1,116
 253.5 365.099609375 253.5 365.099609375 247 348.049804688 c 132,-1,117
 240.5 331 240.5 331 240.5 313.400390625 c 4,118,119
 240.5 284.799804688 240.5 284.799804688 251 266.099609375 c 132,-1,120
 261.5 247.400390625 261.5 247.400390625 285.5 247.400390625 c 4,106,107
195.5 327.700195312 m 4,121,122
 195.5 335.400390625 195.5 335.400390625 190.5 337.599609375 c 4,123,124
 187.5 338.700195312 187.5 338.700195312 184 334.849609375 c 132,-1,125
 180.5 331 180.5 331 180.5 327.700195312 c 4,126,127
 180.5 323.299804688 180.5 323.299804688 183 319.450195312 c 132,-1,128
 185.5 315.599609375 185.5 315.599609375 188.5 315.599609375 c 260,129,130
 191.5 315.599609375 191.5 315.599609375 193.5 320 c 132,-1,131
 195.5 324.400390625 195.5 324.400390625 195.5 327.700195312 c 4,121,122
EndSplineSet
EndChar

StartChar: b
Encoding: 98 98 69
Width: 600
GlyphClass: 2
Flags: W
LayerCount: 2
Fore
SplineSet
550.5 564 m 1,0,-1
 500.5 564 l 1,1,-1
 500.5 0 l 1,2,-1
 417.5 0 l 1,3,-1
 417.5 202 l 1,4,-1
 442.5 176 l 1,5,6
 407.5 146 407.5 146 364.5 131 c 128,-1,7
 321.5 116 321.5 116 262.5 116 c 0,8,9
 166.5 116 166.5 116 110 165 c 128,-1,10
 53.5 214 53.5 214 53.5 295 c 0,11,12
 53.5 389 53.5 389 116 434 c 128,-1,13
 178.5 479 178.5 479 276.5 479 c 0,14,15
 307.5 479 307.5 479 333 476.5 c 128,-1,16
 358.5 474 358.5 474 381.5 469 c 1,17,-1
 375.5 398 l 1,18,19
 352.5 403 352.5 403 329.5 406 c 128,-1,20
 306.5 409 306.5 409 282.5 409 c 0,21,22
 213.5 409 213.5 409 175 381 c 128,-1,23
 136.5 353 136.5 353 136.5 295 c 0,24,25
 136.5 240 136.5 240 172.5 212.5 c 128,-1,26
 208.5 185 208.5 185 265.5 185 c 0,27,28
 301.5 185 301.5 185 332.5 196.5 c 128,-1,29
 363.5 208 363.5 208 389 227 c 128,-1,30
 414.5 246 414.5 246 430.5 266 c 1,31,-1
 417.5 221 l 1,32,-1
 417.5 564 l 1,33,-1
 49.5 564 l 5,34,-1
 49.5 637 l 5,35,-1
 550.5 637 l 1,36,-1
 550.5 564 l 1,0,-1
216.5 434 m 1,37,-1
 392.5 210 l 1,38,-1
 345.5 167 l 1,39,-1
 152.5 411 l 1,40,-1
 216.5 434 l 1,37,-1
EndSplineSet
EndChar

StartChar: c
Encoding: 99 99 70
Width: 600
VWidth: 1000
GlyphClass: 2
Flags: W
LayerCount: 2
Fore
SplineSet
409 17 m 0,0,1
 291 17 291 17 226 84 c 128,-1,2
 161 151 161 151 161 272 c 0,3,4
 161 352 161 352 190 407.5 c 128,-1,5
 219 463 219 463 273 492 c 1,6,-1
 45 492 l 1,7,-1
 45 564 l 1,8,-1
 555 564 l 1,9,-1
 555 492 l 1,10,-1
 453 492 l 2,11,12
 359 492 359 492 305.5 438.5 c 128,-1,13
 252 385 252 385 252 279 c 0,14,15
 252 192 252 192 295 141.5 c 128,-1,16
 338 91 338 91 418 91 c 0,17,18
 455 91 455 91 489 100.5 c 128,-1,19
 523 110 523 110 555 126 c 1,20,-1
 555 48 l 1,21,22
 526 32 526 32 491 24.5 c 128,-1,23
 456 17 456 17 409 17 c 0,0,1
EndSplineSet
EndChar

StartChar: d
Encoding: 100 100 71
Width: 600
GlyphClass: 2
Flags: W
LayerCount: 2
Fore
SplineSet
359.5 227 m 0,0,1
 328.5 227 328.5 227 297.5 221 c 128,-1,2
 266.5 215 266.5 215 242.5 204 c 1,3,4
 199.5 232 199.5 232 165 269 c 128,-1,5
 130.5 306 130.5 306 130.5 356 c 0,6,7
 130.5 415 130.5 415 169.5 445 c 128,-1,8
 208.5 475 208.5 475 289.5 475 c 2,9,-1
 410.5 475 l 1,10,-1
 410.5 564 l 1,11,-1
 75.5 564 l 1,12,-1
 75.5 637 l 1,13,-1
 543.5 637 l 1,14,-1
 543.5 564 l 1,15,-1
 493.5 564 l 1,16,-1
 493.5 403 l 1,17,-1
 290.5 403 l 2,18,19
 249.5 403 249.5 403 231 390 c 128,-1,20
 212.5 377 212.5 377 212.5 350 c 0,21,22
 212.5 331 212.5 331 225.5 313 c 128,-1,23
 238.5 295 238.5 295 255.5 283 c 1,24,25
 280.5 291 280.5 291 309 296 c 128,-1,26
 337.5 301 337.5 301 367.5 301 c 0,27,28
 450.5 301 450.5 301 494 262.5 c 128,-1,29
 537.5 224 537.5 224 537.5 158 c 0,30,31
 537.5 113 537.5 113 516.5 77 c 128,-1,32
 495.5 41 495.5 41 451.5 20.5 c 128,-1,33
 407.5 0 407.5 0 337.5 0 c 0,34,35
 249.5 0 249.5 0 180.5 34.5 c 128,-1,36
 111.5 69 111.5 69 56.5 122 c 1,37,-1
 108.5 189 l 1,38,39
 162.5 133 162.5 133 218 104.5 c 128,-1,40
 273.5 76 273.5 76 335.5 76 c 0,41,42
 395.5 76 395.5 76 425 96.5 c 128,-1,43
 454.5 117 454.5 117 454.5 155 c 0,44,45
 454.5 189 454.5 189 432.5 208 c 128,-1,46
 410.5 227 410.5 227 359.5 227 c 0,0,1
EndSplineSet
EndChar

StartChar: dollar
Encoding: 36 36 72
Width: 600
VWidth: 1000
GlyphClass: 1
Flags: W
LayerCount: 2
Fore
SplineSet
364.981445312 739.662109375 m 260,0,1
 391.59375 735.099609375 391.59375 735.099609375 399.717773438 714.4296875 c 132,-1,2
 407.860351562 693.711914062 407.860351562 693.711914062 404.80078125 676.018554688 c 6,3,-1
 290.609375 15.8212890625 l 6,4,5
 287.90625 0.05078125 287.90625 0.05078125 275.529296875 -10.0029296875 c 132,-1,6
 263.15234375 -20.0556640625 263.15234375 -20.0556640625 243.440429688 -16.6767578125 c 4,7,8
 235.555664062 -15.3251953125 235.555664062 -15.3251953125 223.108398438 -5.07421875 c 4,9,10
 208.859375 6.5 208.859375 6.5 211.731445312 23.2548828125 c 6,11,-1
 325.106445312 684.607421875 l 6,12,13
 328.823242188 706.291015625 328.823242188 706.291015625 333.596679688 725.2578125 c 132,-1,14
 338.370117188 744.223632812 338.370117188 744.223632812 364.981445312 739.662109375 c 260,0,1
266.194335938 33.1962890625 m 4,15,16
 264.334960938 22.3544921875 264.334960938 22.3544921875 260.604492188 15.384765625 c 132,-1,17
 256.873046875 8.4150390625 256.873046875 8.4150390625 254.633789062 4.232421875 c 132,-1,18
 252.395507812 0.05078125 252.395507812 0.05078125 252.057617188 -1.919921875 c 132,-1,19
 251.719726562 -3.8916015625 251.719726562 -3.8916015625 256.647460938 -4.736328125 c 4,20,21
 262.561523438 -5.75 262.561523438 -5.75 266.940429688 -0.9208984375 c 132,-1,22
 271.319335938 3.9091796875 271.319335938 3.9091796875 274.557617188 10.962890625 c 132,-1,23
 277.795898438 18.017578125 277.795898438 18.017578125 279.556640625 25.3251953125 c 132,-1,24
 281.31640625 32.6328125 281.31640625 32.6328125 282.161132812 37.560546875 c 4,25,26
 284.357421875 50.3740234375 284.357421875 50.3740234375 283.174804688 61.2294921875 c 132,-1,27
 281.9921875 72.0859375 281.9921875 72.0859375 276.078125 73.099609375 c 4,28,29
 273.12109375 73.6064453125 273.12109375 73.6064453125 271.868164062 69.255859375 c 132,-1,30
 270.615234375 64.9052734375 270.615234375 64.9052734375 269.432617188 58.005859375 c 132,-1,31
 268.25 51.1064453125 268.25 51.1064453125 267.559570312 44.1220703125 c 132,-1,32
 266.870117188 37.138671875 266.870117188 37.138671875 266.194335938 33.1962890625 c 4,15,16
279 81 m 0,33,34
 229 81 229 81 183.5 90 c 128,-1,35
 138 99 138 99 105 115 c 1,36,-1
 105 198 l 1,37,38
 140 182 140 182 182.5 168.5 c 128,-1,39
 225 155 225 155 284 155 c 0,40,41
 350 155 350 155 377.5 175.5 c 128,-1,42
 405 196 405 196 405 235 c 0,43,44
 405 256 405 256 395.5 269.5 c 128,-1,45
 386 283 386 283 359 297 c 128,-1,46
 332 311 332 311 280 333 c 0,47,48
 228 356 228 356 191 376 c 128,-1,49
 154 396 154 396 134 423.5 c 128,-1,50
 114 451 114 451 114 494 c 0,51,52
 114 542 114 542 138.5 573.5 c 128,-1,53
 163 605 163 605 209.5 621 c 128,-1,54
 256 637 256 637 320 637 c 0,55,56
 364 637 364 637 404 629 c 128,-1,57
 444 621 444 621 487 603 c 1,58,-1
 460 533 l 1,59,60
 420 550 420 550 386.5 556 c 128,-1,61
 353 562 353 562 320 562 c 0,62,63
 258 562 258 562 229.5 546 c 128,-1,64
 201 530 201 530 201 496 c 0,65,66
 201 474 201 474 213.5 459 c 128,-1,67
 226 444 226 444 254.5 430 c 128,-1,68
 283 416 283 416 330 396 c 0,69,70
 383 374 383 374 420 355 c 128,-1,71
 457 336 457 336 476 309.5 c 128,-1,72
 495 283 495 283 495 237 c 0,73,74
 495 186 495 186 470.5 151.5 c 128,-1,75
 446 117 446 117 398 99 c 128,-1,76
 350 81 350 81 279 81 c 0,33,34
EndSplineSet
EndChar

StartChar: e
Encoding: 101 101 73
Width: 600
VWidth: 1000
GlyphClass: 2
Flags: W
LayerCount: 2
Fore
SplineSet
337 -10 m 0,0,1
 251 -10 251 -10 189 22 c 128,-1,2
 127 54 127 54 93.5 115.5 c 128,-1,3
 60 177 60 177 60 266 c 0,4,5
 60 354 60 354 92 416.5 c 128,-1,6
 124 479 124 479 181 512.5 c 128,-1,7
 238 546 238 546 314 546 c 0,8,9
 384 546 384 546 434.5 515 c 128,-1,10
 485 484 485 484 512.5 427.5 c 128,-1,11
 540 371 540 371 540 292 c 2,12,-1
 540 251 l 1,13,-1
 151 251 l 1,14,15
 153 181 153 181 177.5 140 c 128,-1,16
 202 99 202 99 244.5 81.5 c 128,-1,17
 287 64 287 64 343 64 c 0,18,19
 387 64 387 64 430 76 c 128,-1,20
 473 88 473 88 516 108 c 1,21,-1
 516 28 l 1,22,23
 470 8 470 8 424 -1 c 128,-1,24
 378 -10 378 -10 337 -10 c 0,0,1
450 323 m 1,25,26
 448 370 448 370 432 403.5 c 128,-1,27
 416 437 416 437 386.5 455 c 128,-1,28
 357 473 357 473 314 473 c 0,29,30
 247 473 247 473 205.5 432.5 c 128,-1,31
 164 392 164 392 153 323 c 1,32,-1
 450 323 l 1,25,26
EndSplineSet
EndChar

StartChar: f
Encoding: 102 102 74
Width: 600
GlyphClass: 2
Flags: W
LayerCount: 2
Fore
SplineSet
364 564 m 5,0,-1
 364 321 l 5,1,-1
 349.599609375 349 l 5,2,3
 372.799804688 379 372.799804688 379 399.200195312 394 c 132,-1,4
 425.599609375 409 425.599609375 409 458.400390625 409 c 4,5,6
 516.799804688 409 516.799804688 409 550 366.5 c 132,-1,7
 583.200195312 324 583.200195312 324 583.200195312 245 c 4,8,9
 583.200195312 191 583.200195312 191 566.400390625 141.5 c 132,-1,10
 549.599609375 92 549.599609375 92 513.599609375 42 c 5,11,-1
 457.599609375 87 l 5,12,13
 484.799804688 123 484.799804688 123 501.599609375 162.5 c 132,-1,14
 518.400390625 202 518.400390625 202 518.400390625 245 c 4,15,16
 518.400390625 291 518.400390625 291 501.599609375 314.5 c 132,-1,17
 484.799804688 338 484.799804688 338 455.200195312 338 c 4,18,19
 424.799804688 338 424.799804688 338 400.799804688 317.5 c 132,-1,20
 376.799804688 297 376.799804688 297 359.200195312 263 c 5,21,-1
 364 300 l 5,22,-1
 364 0 l 5,23,-1
 297.599609375 0 l 5,24,-1
 297.599609375 244 l 5,25,-1
 310.400390625 220 l 5,26,27
 290.400390625 194 290.400390625 194 260.400390625 179 c 132,-1,28
 230.400390625 164 230.400390625 164 194.400390625 164 c 4,29,30
 144 164 144 164 112.400390625 188.5 c 132,-1,31
 80.7998046875 213 80.7998046875 213 66.400390625 258.5 c 132,-1,32
 52 304 52 304 52 369 c 6,33,-1
 52 564 l 5,34,-1
 16.7998046875 564 l 5,35,-1
 16.7998046875 637 l 5,36,-1
 573.599609375 637 l 5,37,-1
 573.599609375 564 l 5,38,-1
 364 564 l 5,0,-1
118.400390625 564 m 5,39,-1
 118.400390625 371 l 6,40,41
 118.400390625 320 118.400390625 320 127.200195312 290.5 c 132,-1,42
 136 261 136 261 153.599609375 249 c 132,-1,43
 171.200195312 237 171.200195312 237 196.799804688 237 c 4,44,45
 228.799804688 237 228.799804688 237 259.599609375 259.5 c 132,-1,46
 290.400390625 282 290.400390625 282 312.799804688 313 c 5,47,-1
 297.599609375 258 l 5,48,-1
 297.599609375 564 l 5,49,-1
 118.400390625 564 l 5,39,-1
EndSplineSet
EndChar

StartChar: g
Encoding: 103 103 75
Width: 600
VWidth: 1000
GlyphClass: 2
Flags: W
LayerCount: 2
Fore
SplineSet
299 1 m 0,0,1
 236 1 236 1 195.5 34 c 128,-1,2
 155 67 155 67 132 117 c 128,-1,3
 109 167 109 167 100.5 225 c 128,-1,4
 92 283 92 283 92 334 c 0,5,6
 92 390 92 390 105.5 443.5 c 128,-1,7
 119 497 119 497 147.5 538.5 c 128,-1,8
 176 580 176 580 221.5 605.5 c 128,-1,9
 267 631 267 631 331 631 c 0,10,11
 358 631 358 631 387.5 625 c 128,-1,12
 417 619 417 619 441.5 602.5 c 128,-1,13
 466 586 466 586 482.5 558 c 128,-1,14
 499 530 499 530 499 486 c 0,15,16
 499 470 499 470 492.5 460.5 c 128,-1,17
 486 451 486 451 476.5 445.5 c 128,-1,18
 467 440 467 440 457 438.5 c 128,-1,19
 447 437 447 437 441 437 c 0,20,21
 427 437 427 437 414.5 447 c 128,-1,22
 402 457 402 457 402 486 c 0,23,24
 402 509 402 509 394 521 c 128,-1,25
 386 533 386 533 375 538.5 c 128,-1,26
 364 544 364 544 353.5 545 c 128,-1,27
 343 546 343 546 337 546 c 0,28,29
 311 546 311 546 288 530.5 c 128,-1,30
 265 515 265 515 247.5 486 c 128,-1,31
 230 457 230 457 220 415 c 128,-1,32
 210 373 210 373 210 320 c 0,33,34
 210 291 210 291 213.5 251 c 128,-1,35
 217 211 217 211 229 175 c 128,-1,36
 241 139 241 139 263 113.5 c 128,-1,37
 285 88 285 88 321 88 c 0,38,39
 344 88 344 88 361 103 c 128,-1,40
 378 118 378 118 389.5 140 c 128,-1,41
 401 162 401 162 407 186.5 c 128,-1,42
 413 211 413 211 412 230 c 0,43,44
 411 246 411 246 392.5 247.5 c 128,-1,45
 374 249 374 249 351 249 c 2,46,-1
 289 249 l 2,47,48
 283 249 283 249 278 255 c 128,-1,49
 273 261 273 261 270 269.5 c 128,-1,50
 267 278 267 278 265 287 c 128,-1,51
 263 296 263 296 263 302 c 0,52,53
 263 318 263 318 273.5 330.5 c 128,-1,54
 284 343 284 343 307 343 c 2,55,-1
 432 342 l 2,56,57
 445 342 445 342 458.5 336.5 c 128,-1,58
 472 331 472 331 482.5 320.5 c 128,-1,59
 493 310 493 310 500 293.5 c 128,-1,60
 507 277 507 277 507 254 c 0,61,62
 507 219 507 219 507.5 189 c 128,-1,63
 508 159 508 159 508 115 c 0,64,65
 508 81 508 81 505.5 60 c 128,-1,66
 503 39 503 39 497 27 c 128,-1,67
 491 15 491 15 482.5 10.5 c 128,-1,68
 474 6 474 6 462 6 c 0,69,70
 445 6 445 6 437 18.5 c 128,-1,71
 429 31 429 31 425.5 46 c 128,-1,72
 422 61 422 61 421 73.5 c 128,-1,73
 420 86 420 86 417 86 c 256,74,75
 414 86 414 86 408 72.5 c 128,-1,76
 402 59 402 59 389 43.5 c 128,-1,77
 376 28 376 28 355 14.5 c 128,-1,78
 334 1 334 1 299 1 c 0,0,1
204 82 m 0,79,80
 204 87 204 87 188 110 c 0,81,82
 181 121 181 121 174 135.5 c 128,-1,83
 167 150 167 150 162 164 c 128,-1,84
 157 178 157 178 154 190 c 128,-1,85
 151 202 151 202 152 206 c 0,86,87
 153 211 153 211 150 213.5 c 128,-1,88
 147 216 147 216 146 216 c 0,89,90
 138 216 138 216 136 205 c 256,91,92
 134 194 134 194 139.5 173 c 128,-1,93
 145 152 145 152 154.5 131 c 128,-1,94
 164 110 164 110 175.5 94 c 128,-1,95
 187 78 187 78 196 77 c 0,96,97
 203 75 203 75 204 82 c 0,79,80
467 31 m 0,98,99
 467 39 467 39 459 44.5 c 128,-1,100
 451 50 451 50 450 62 c 0,101,102
 450 65 450 65 449.5 73 c 128,-1,103
 449 81 449 81 444 81 c 256,104,105
 439 81 439 81 438 74.5 c 128,-1,106
 437 68 437 68 437 63 c 256,107,108
 437 58 437 58 438.5 50.5 c 128,-1,109
 440 43 440 43 443 36.5 c 128,-1,110
 446 30 446 30 450 25 c 128,-1,111
 454 20 454 20 459 20 c 256,112,113
 464 20 464 20 465.5 24 c 128,-1,114
 467 28 467 28 467 31 c 0,98,99
224 65 m 0,115,116
 225 68 225 68 222.5 70.5 c 128,-1,117
 220 73 220 73 218 73 c 0,118,119
 214 74 214 74 212.5 71 c 128,-1,120
 211 68 211 68 210 66 c 0,121,122
 209 61 209 61 211.5 59.5 c 128,-1,123
 214 58 214 58 216 58 c 0,124,125
 222 58 222 58 224 65 c 0,115,116
EndSplineSet
EndChar

StartChar: grave
Encoding: 96 96 76
Width: 600
GlyphClass: 1
Flags: W
LayerCount: 2
Fore
SplineSet
304 784 m 1,0,1
 315 761 315 761 332.5 733.5 c 128,-1,2
 350 706 350 706 368.5 679 c 128,-1,3
 387 652 387 652 403 633 c 1,4,-1
 403 621 l 1,5,-1
 342 621 l 1,6,7
 325 635 325 635 303.5 655 c 128,-1,8
 282 675 282 675 261 697 c 128,-1,9
 240 719 240 719 223 739.5 c 128,-1,10
 206 760 206 760 197 774 c 1,11,-1
 197 784 l 1,12,-1
 304 784 l 1,0,1
EndSplineSet
EndChar

StartChar: h
Encoding: 104 104 77
Width: 600
VWidth: 1000
GlyphClass: 2
Flags: W
LayerCount: 2
Fore
SplineSet
77.5 0 m 1,0,-1
 77.5 616 l 5,1,-1
 167.5 616 l 5,2,-1
 167.5 400 l 6,3,4
 168 381 168 381 166 352 c 132,-1,5
 164 323 164 323 163.5 306 c 5,6,-1
 168.5 306 l 5,7,8
 186 339 186 339 211 360 c 132,-1,9
 236 381 236 381 268.5 391.5 c 4,10,11
 300 402 300 402 336.5 402 c 4,12,13
 420 402 420 402 471 355.5 c 4,14,15
 522.5 308.543945312 522.5 308.543945312 522.5 206 c 6,16,-1
 522.5 0 l 1,17,-1
 432.5 0 l 1,18,-1
 432.5 188 l 6,19,20
 432 261 432 261 401.5 295 c 4,21,22
 370 329 370 329 313.5 329 c 4,23,24
 270 329 270 329 236.5 306 c 4,25,26
 204 283 204 283 185.5 239.5 c 4,27,28
 167.5 194.756835938 167.5 194.756835938 167.5 134 c 6,29,-1
 167.5 0 l 1,30,-1
 77.5 0 l 1,0,-1
EndSplineSet
EndChar

StartChar: i
Encoding: 105 105 78
Width: 600
VWidth: 1000
GlyphClass: 2
Flags: W
LayerCount: 2
Fore
SplineSet
230.5 576 m 4,0,1
 190.5 576 190.5 576 162 604 c 132,-1,2
 133.5 632 133.5 632 133.5 676 c 4,3,4
 133.5 700 133.5 700 142 721.5 c 132,-1,5
 150.5 743 150.5 743 165.5 758.5 c 132,-1,6
 180.5 774 180.5 774 201.5 783.5 c 132,-1,7
 222.5 793 222.5 793 247.5 793 c 4,8,9
 267.5 793 267.5 793 284.5 784.5 c 132,-1,10
 301.5 776 301.5 776 313.5 761 c 132,-1,11
 325.5 746 325.5 746 332 727 c 132,-1,12
 338.5 708 338.5 708 338.5 687 c 4,13,14
 338.5 660 338.5 660 330 639.5 c 132,-1,15
 321.5 619 321.5 619 306.5 605 c 132,-1,16
 291.5 591 291.5 591 272 583.5 c 132,-1,17
 252.5 576 252.5 576 230.5 576 c 4,0,1
193.5 749 m 4,18,19
 200.5 756 200.5 756 202 761 c 132,-1,20
 203.5 766 203.5 766 201.5 766 c 4,21,22
 193.5 766 193.5 766 184.5 758.5 c 132,-1,23
 175.5 751 175.5 751 168 740.5 c 132,-1,24
 160.5 730 160.5 730 155.5 718 c 132,-1,25
 150.5 706 150.5 706 150.5 696 c 4,26,27
 150.5 694 150.5 694 152 688 c 132,-1,28
 153.5 682 153.5 682 156.5 682 c 4,29,30
 160.5 682 160.5 682 166.5 704 c 4,31,32
 169.5 718 169.5 718 177.5 729.5 c 132,-1,33
 185.5 741 185.5 741 193.5 749 c 4,18,19
234.5 633 m 4,34,35
 246.5 633 246.5 633 263 647 c 132,-1,36
 279.5 661 279.5 661 279.5 687 c 4,37,38
 279.5 707 279.5 707 269 720.5 c 132,-1,39
 258.5 734 258.5 734 241.5 734 c 260,40,41
 224.5 734 224.5 734 210.5 720.5 c 132,-1,42
 196.5 707 196.5 707 196.5 683 c 260,43,44
 196.5 659 196.5 659 207.5 646 c 132,-1,45
 218.5 633 218.5 633 234.5 633 c 4,34,35
70 0 m 1,46,-1
 70 60 l 1,47,-1
 261 75 l 1,48,-1
 261 461 l 1,49,-1
 86 474 l 1,50,-1
 86 536 l 1,51,-1
 351 536 l 1,52,-1
 351 75 l 1,53,-1
 530 60 l 1,54,-1
 530 0 l 1,55,-1
 70 0 l 1,46,-1
EndSplineSet
EndChar

StartChar: j
Encoding: 106 106 79
Width: 600
VWidth: 1000
GlyphClass: 2
Flags: W
LayerCount: 2
Fore
SplineSet
466 16 m 0
 439.400390625 16 439.400390625 16 423.299804688 32.25 c 0
 407.200195312 48.5 407.200195312 48.5 407.200195312 75.7998046875 c 0
 407.200195312 100.5 407.200195312 100.5 421.200195312 121.950195312 c 0
 435.200195312 143.400390625 435.200195312 143.400390625 466 143.400390625 c 0
 498.200195312 143.400390625 498.200195312 143.400390625 515 123.25 c 0
 531.799804688 103.100585938 531.799804688 103.100585938 531.799804688 75.7998046875 c 0
 531.799804688 45.900390625 531.799804688 45.900390625 512.900390625 30.9501953125 c 0
 494 16 494 16 466 16 c 0
440.799804688 83.6005859375 m 0
 442.200195312 97.900390625 442.200195312 97.900390625 447.799804688 109.600585938 c 0
 453.400390625 121.299804688 453.400390625 121.299804688 446.400390625 121.299804688 c 0
 436.600585938 121.299804688 436.600585938 121.299804688 430.299804688 102.450195312 c 0
 424 83.6005859375 424 83.6005859375 424 69.2998046875 c 0
 424 56.2998046875 424 56.2998046875 431 56.2998046875 c 0
 436.600585938 56.2998046875 436.600585938 56.2998046875 438 66.0498046875 c 0
 439.400390625 75.7998046875 439.400390625 75.7998046875 440.799804688 83.6005859375 c 0
EndSplineSet
Refer: 49 74 N 1 0 0 1 0 0 2
EndChar

StartChar: k
Encoding: 107 107 80
Width: 600
GlyphClass: 2
Flags: W
LayerCount: 2
Fore
SplineSet
567.959960938 521.341796875 m 1,0,-1
 362.16015625 521.341796875 l 1,1,-1
 362.16015625 315.290039062 l 1,2,-1
 350.400390625 324.529296875 l 1,3,4
 367.200195312 348.553710938 367.200195312 348.553710938 396.599609375 363.799804688 c 128,-1,5
 426 379.046875 426 379.046875 462.959960938 379.046875 c 0,6,7
 524.280273438 379.046875 524.280273438 379.046875 558.299804688 338.390625 c 128,-1,8
 592.3203125 297.734375 592.3203125 297.734375 592.3203125 227.509765625 c 0,9,10
 592.3203125 178.538085938 592.3203125 178.538085938 575.099609375 132.337890625 c 128,-1,11
 557.879882812 86.1376953125 557.879882812 86.1376953125 520.080078125 39.9384765625 c 1,12,-1
 460.440429688 81.517578125 l 1,13,14
 489 113.858398438 489 113.858398438 506.639648438 149.431640625 c 128,-1,15
 524.280273438 185.005859375 524.280273438 185.005859375 524.280273438 228.434570312 c 0,16,17
 524.280273438 270.014648438 524.280273438 270.014648438 505.799804688 291.265625 c 128,-1,18
 487.3203125 312.517578125 487.3203125 312.517578125 455.400390625 312.517578125 c 0,19,20
 426.83984375 312.517578125 426.83984375 312.517578125 401.219726562 292.190429688 c 128,-1,21
 375.599609375 271.862304688 375.599609375 271.862304688 359.639648438 236.75 c 1,22,-1
 362.16015625 271.862304688 l 1,23,-1
 362.16015625 0.2060546875 l 1,24,-1
 292.440429688 0.2060546875 l 1,25,-1
 292.440429688 198.865234375 l 1,26,-1
 304.200195312 172.994140625 l 1,27,28
 288.240234375 155.438476562 288.240234375 155.438476562 268.080078125 141.115234375 c 128,-1,29
 247.919921875 126.793945312 247.919921875 126.793945312 222.719726562 119.40234375 c 128,-1,30
 197.51953125 112.009765625 197.51953125 112.009765625 168.959960938 112.009765625 c 0,31,32
 125.280273438 112.009765625 125.280273438 112.009765625 88.3203125 130.490234375 c 128,-1,33
 51.3603515625 148.970703125 51.3603515625 148.970703125 29.51953125 185.467773438 c 128,-1,34
 7.6796875 221.965820312 7.6796875 221.965820312 7.6796875 275.55859375 c 0,35,36
 7.6796875 353.173828125 7.6796875 353.173828125 54.7197265625 396.140625 c 128,-1,37
 101.759765625 439.10546875 101.759765625 439.10546875 184.919921875 439.10546875 c 0,38,39
 207.599609375 439.10546875 207.599609375 439.10546875 226.919921875 436.796875 c 128,-1,40
 246.240234375 434.485351562 246.240234375 434.485351562 262.200195312 429.865234375 c 1,41,-1
 256.3203125 360.565429688 l 1,42,43
 242.040039062 365.185546875 242.040039062 365.185546875 224.400390625 367.49609375 c 128,-1,44
 206.759765625 369.805664062 206.759765625 369.805664062 186.599609375 369.805664062 c 0,45,46
 134.51953125 369.805664062 134.51953125 369.805664062 105.959960938 344.858398438 c 128,-1,47
 77.400390625 319.909179688 77.400390625 319.909179688 77.400390625 272.786132812 c 0,48,49
 77.400390625 226.5859375 77.400390625 226.5859375 103.860351562 203.485351562 c 128,-1,50
 130.3203125 180.385742188 130.3203125 180.385742188 168.959960938 180.385742188 c 0,51,52
 210.120117188 180.385742188 210.120117188 180.385742188 243.719726562 203.485351562 c 128,-1,53
 277.3203125 226.5859375 277.3203125 226.5859375 295.799804688 258.92578125 c 1,54,-1
 292.440429688 211.802734375 l 1,55,-1
 292.440429688 521.341796875 l 1,56,-1
 15.240234375 521.341796875 l 1,57,-1
 15.240234375 588.793945312 l 1,58,-1
 567.959960938 588.793945312 l 1,59,-1
 567.959960938 521.341796875 l 1,0,-1
EndSplineSet
EndChar

StartChar: l
Encoding: 108 108 81
Width: 600
VWidth: 1000
GlyphClass: 2
Flags: W
LayerCount: 2
Fore
SplineSet
63 28 m 0,0,1
 63 35 63 35 64.5 40.5 c 128,-1,2
 66 46 66 46 69 53.5 c 128,-1,3
 72 61 72 61 76.5 71 c 128,-1,4
 81 81 81 81 87 96 c 256,5,6
 93 111 93 111 97 123.5 c 128,-1,7
 101 136 101 136 103.5 150 c 128,-1,8
 106 164 106 164 107.5 180.5 c 128,-1,9
 109 197 109 197 109 218 c 2,10,-1
 109 251 l 1,11,-1
 89 251 l 2,12,13
 70 251 70 251 60.5 260 c 128,-1,14
 51 269 51 269 51 281 c 0,15,16
 51 292 51 292 57.5 306 c 128,-1,17
 64 320 64 320 82 320 c 2,18,-1
 107 320 l 1,19,-1
 107 387 l 2,20,21
 107 433 107 433 114.5 475 c 128,-1,22
 122 517 122 517 140.5 549.5 c 128,-1,23
 159 582 159 582 190.5 601 c 128,-1,24
 222 620 222 620 270 620 c 0,25,26
 293 620 293 620 314.5 612.5 c 128,-1,27
 336 605 336 605 353 590.5 c 128,-1,28
 370 576 370 576 380.5 555 c 128,-1,29
 391 534 391 534 391 508 c 0,30,31
 391 464 391 464 368 464 c 0,32,33
 351 464 351 464 334 494 c 0,34,35
 323 513 323 513 308 527.5 c 128,-1,36
 293 542 293 542 275 542 c 0,37,38
 251 542 251 542 236.5 530 c 128,-1,39
 222 518 222 518 214 496.5 c 128,-1,40
 206 475 206 475 203 445 c 128,-1,41
 200 415 200 415 200 379 c 2,42,-1
 200 322 l 1,43,-1
 286 322 l 6,44,45
 310 322 310 322 323.5 318.5 c 132,-1,46
 337 315 337 315 344 309.5 c 132,-1,47
 351 304 351 304 353 296.5 c 132,-1,48
 355 289 355 289 355 280 c 4,49,50
 355 274 355 274 353.5 268.5 c 132,-1,51
 352 263 352 263 346.5 259.5 c 132,-1,52
 341 256 341 256 330 253.5 c 132,-1,53
 319 251 319 251 300 251 c 6,54,-1
 200 251 l 1,55,-1
 200 186 l 2,56,57
 200 139 200 139 190 115.5 c 128,-1,58
 180 92 180 92 174 79 c 0,59,60
 170 71 170 71 175 71.5 c 128,-1,61
 180 72 180 72 190 74 c 0,62,63
 196 75 196 75 201.5 76 c 128,-1,64
 207 77 207 77 214 77.5 c 128,-1,65
 221 78 221 78 231 78 c 0,66,67
 244 78 244 78 257 78 c 2,68,-1
 473 78 l 2,69,70
 515 78 515 78 532 70.5 c 128,-1,71
 549 63 549 63 549 43 c 0,72,73
 549 17 549 17 536.5 8 c 128,-1,74
 524 -1 524 -1 496 1 c 0,75,76
 444 3 444 3 312 1.5 c 128,-1,77
 180 0 180 0 123 0 c 0,78,79
 97 0 97 0 80 7 c 128,-1,80
 63 14 63 14 63 28 c 0,0,1
142 460 m 0,81,82
 144 460 144 460 148 471 c 128,-1,83
 152 482 152 482 158.5 498 c 128,-1,84
 165 514 165 514 175 531.5 c 128,-1,85
 185 549 185 549 200 562 c 0,86,87
 213 574 213 574 214.5 579.5 c 128,-1,88
 216 585 216 585 213 585 c 0,89,90
 205 585 205 585 195 579.5 c 128,-1,91
 185 574 185 574 171 560 c 0,92,93
 163 552 163 552 156.5 540 c 128,-1,94
 150 528 150 528 145.5 515 c 128,-1,95
 141 502 141 502 139 490 c 128,-1,96
 137 478 137 478 137 469 c 256,97,98
 137 460 137 460 142 460 c 0,81,82
142 432 m 0,99,100
 142 436 142 436 139 438 c 128,-1,101
 136 440 136 440 133 440 c 0,102,103
 129 440 129 440 125 434 c 0,104,105
 124 431 124 431 123 428 c 0,106,107
 123 419 123 419 133 419 c 0,108,109
 142 419 142 419 142 432 c 0,99,100
EndSplineSet
EndChar

StartChar: m
Encoding: 109 109 82
Width: 600
GlyphClass: 2
Flags: W
LayerCount: 2
Fore
SplineSet
506.5 564 m 5,0,-1
 506.5 0 l 5,1,-1
 423.5 0 l 5,2,-1
 423.5 256 l 5,3,-1
 219.5 256 l 1,4,-1
 219.5 218 l 2,5,6
 219 184 219 184 204.5 169.5 c 0,7,8
 189 155 189 155 170.5 155 c 256,9,10
 151 155 151 155 129.5 167.5 c 0,11,12
 107 180 107 180 89 200 c 128,-1,13
 71 220 71 220 59 242.5 c 0,14,15
 48 263 48 263 47.5 285 c 0,16,17
 47 303 47 303 61.5 316 c 128,-1,18
 76 329 76 329 109.5 329 c 2,19,-1
 136.5 329 l 1,20,-1
 136.5 564 l 1,21,-1
 18.5 564 l 1,22,-1
 18.5 637 l 1,23,-1
 581.5 637 l 5,24,-1
 581.5 564 l 5,25,-1
 506.5 564 l 5,0,-1
423.5 564 m 5,26,-1
 219.5 564 l 1,27,-1
 219.5 329 l 1,28,-1
 423.5 329 l 5,29,-1
 423.5 564 l 5,26,-1
EndSplineSet
EndChar

StartChar: n
Encoding: 110 110 83
Width: 600
GlyphClass: 2
Flags: W
LayerCount: 2
Fore
SplineSet
42.0107421875 637 m 1,0,-1
 578.010742188 637 l 1,1,-1
 578.010742188 564 l 1,2,-1
 472.010742188 564 l 1,3,-1
 472.010742188 0 l 1,4,-1
 389.010742188 0 l 1,5,-1
 389.010742188 305 l 1,6,-1
 193.010742188 305 l 1,7,-1
 193.010742188 250 l 2,8,9
 193.510742188 222 193.510742188 222 178.510742188 207 c 0,10,11
 163.510742188 193 163.510742188 193 141.010742188 193 c 0,12,13
 123.510742188 193 123.510742188 193 101.510742188 205 c 128,-1,14
 79.5107421875 217 79.5107421875 217 62.0107421875 237.5 c 0,15,16
 43.5107421875 258 43.5107421875 258 33.0107421875 281 c 0,17,18
 21.5107421875 304 21.5107421875 304 22.0107421875 326 c 0,19,20
 21.5107421875 350 21.5107421875 350 36.0107421875 364 c 0,21,22
 49.5107421875 378 49.5107421875 378 84.0107421875 378 c 2,23,-1
 389.010742188 378 l 1,24,-1
 389.010742188 564 l 1,25,-1
 42.0107421875 564 l 1,26,-1
 42.0107421875 637 l 1,0,-1
EndSplineSet
EndChar

StartChar: o
Encoding: 111 111 84
Width: 600
VWidth: 1000
GlyphClass: 2
Flags: W
LayerCount: 2
Fore
SplineSet
172.3203125 266 m 5,0,-1
 172.3203125 330 l 5,1,-1
 435.744140625 330 l 5,2,-1
 435.744140625 266 l 5,3,-1
 172.3203125 266 l 5,0,-1
308.064453125 -9 m 4,4,5
 234.14453125 -9 234.14453125 -9 179.711914062 17.5 c 132,-1,6
 125.280273438 44 125.280273438 44 89.6640625 87.5 c 132,-1,7
 54.048828125 131 54.048828125 131 36.576171875 185.5 c 132,-1,8
 19.1044921875 240 19.1044921875 240 19.1044921875 296 c 260,9,10
 19.1044921875 352 19.1044921875 352 35.2314453125 410.5 c 132,-1,11
 51.3603515625 469 51.3603515625 469 86.3046875 516.5 c 132,-1,12
 121.248046875 564 121.248046875 564 176.3515625 594.5 c 132,-1,13
 231.456054688 625 231.456054688 625 309.408203125 625 c 4,14,15
 380.639648438 625 380.639648438 625 431.711914062 597.5 c 132,-1,16
 482.784179688 570 482.784179688 570 515.711914062 524 c 132,-1,17
 548.639648438 478 548.639648438 478 564.768554688 417.5 c 132,-1,18
 580.895507812 357 580.895507812 357 580.895507812 291 c 4,19,20
 580.895507812 236 580.895507812 236 564.768554688 182 c 132,-1,21
 548.639648438 128 548.639648438 128 515.711914062 85.5 c 132,-1,22
 482.784179688 43 482.784179688 43 431.040039062 17 c 132,-1,23
 379.295898438 -9 379.295898438 -9 308.064453125 -9 c 4,4,5
103.775390625 468 m 4,24,25
 107.80859375 468 107.80859375 468 113.184570312 473.5 c 132,-1,26
 118.559570312 479 118.559570312 479 124.608398438 487.5 c 132,-1,27
 130.65625 496 130.65625 496 138.048828125 505 c 132,-1,28
 145.440429688 514 145.440429688 514 152.16015625 521 c 4,29,30
 181.728515625 550 181.728515625 550 207.935546875 567 c 132,-1,31
 234.14453125 584 234.14453125 584 234.14453125 589 c 4,32,33
 234.14453125 592 234.14453125 592 227.423828125 593 c 4,34,35
 211.295898438 593 211.295898438 593 189.120117188 579 c 132,-1,36
 166.944335938 565 166.944335938 565 146.784179688 545.5 c 132,-1,37
 126.624023438 526 126.624023438 526 112.51171875 505.5 c 132,-1,38
 98.400390625 485 98.400390625 485 98.400390625 473 c 4,39,40
 98.400390625 468 98.400390625 468 103.775390625 468 c 4,24,25
308.064453125 71 m 4,41,42
 348.383789062 71 348.383789062 71 373.248046875 93.5 c 132,-1,43
 398.111328125 116 398.111328125 116 412.224609375 149.5 c 132,-1,44
 426.3359375 183 426.3359375 183 431.711914062 223 c 132,-1,45
 437.088867188 263 437.088867188 263 437.088867188 299 c 260,46,47
 437.088867188 335 437.088867188 335 433.728515625 376 c 132,-1,48
 430.368164062 417 430.368164062 417 416.928710938 452 c 132,-1,49
 403.48828125 487 403.48828125 487 377.951171875 510 c 132,-1,50
 352.416015625 533 352.416015625 533 309.408203125 533 c 4,51,52
 267.744140625 533 267.744140625 533 240.864257812 505 c 132,-1,53
 213.984375 477 213.984375 477 198.528320312 438.5 c 132,-1,54
 183.071289062 400 183.071289062 400 177.6953125 360 c 132,-1,55
 172.3203125 320 172.3203125 320 172.3203125 296 c 260,56,57
 172.3203125 272 172.3203125 272 176.3515625 233.5 c 132,-1,58
 180.383789062 195 180.383789062 195 194.49609375 159 c 132,-1,59
 208.608398438 123 208.608398438 123 235.48828125 97 c 132,-1,60
 262.368164062 71 262.368164062 71 308.064453125 71 c 4,41,42
105.120117188 446 m 260,61,62
 105.120117188 454 105.120117188 454 95.7119140625 456 c 4,63,64
 91.6796875 456 91.6796875 456 84.9599609375 452.5 c 132,-1,65
 78.240234375 449 78.240234375 449 78.240234375 441 c 4,66,67
 78.240234375 432 78.240234375 432 88.9912109375 432 c 4,68,69
 93.0244140625 432 93.0244140625 432 99.0712890625 435 c 132,-1,70
 105.120117188 438 105.120117188 438 105.120117188 446 c 260,61,62
EndSplineSet
EndChar

StartChar: p
Encoding: 112 112 85
Width: 600
GlyphClass: 2
Flags: W
LayerCount: 2
Fore
SplineSet
503 564 m 1,0,-1
 503 0 l 1,1,-1
 421 0 l 1,2,-1
 421 250 l 1,3,-1
 440 222 l 1,4,5
 414 197 414 197 374 181 c 128,-1,6
 334 165 334 165 285 165 c 0,7,8
 225 165 225 165 182 187.5 c 128,-1,9
 139 210 139 210 116.5 255.5 c 128,-1,10
 94 301 94 301 94 369 c 2,11,-1
 94 564 l 1,12,-1
 42 564 l 5,13,-1
 42 637 l 5,14,-1
 558 637 l 1,15,-1
 558 564 l 1,16,-1
 503 564 l 1,0,-1
421 564 m 1,17,-1
 177 564 l 1,18,-1
 177 366 l 2,19,20
 177 322 177 322 189 293.5 c 128,-1,21
 201 265 201 265 225.5 251.5 c 128,-1,22
 250 238 250 238 283 238 c 0,23,24
 328 238 328 238 369.5 263 c 128,-1,25
 411 288 411 288 437 323 c 1,26,-1
 421 269 l 1,27,-1
 421 564 l 1,17,-1
EndSplineSet
EndChar

